{
.appVersion = "1192";
classes = (
{
automatic = 1;

glyphs = (
{
glyphname = A;
layers = (
{
anchors = (
{
name = bottom;
position = "{474, 0}";
},
{
name = ogonek;
position = "{964, 0}";
},
{
name = top;
position = "{720, 1400}";
}
);
background = {
paths = (
{
closed = 1;
nodes = (
"1020 0 LINE",
"816 1400 LINE",
"624 1400 LINE",
"-74 0 LINE",
"126 0 LINE",
"308 378 LINE",
"770 378 LINE",
"820 0 LINE"
);
},
{
closed = 1;
nodes = (
"738 550 LINE",
"400 550 LINE",
"672 1134 LINE"
);
}
);
};
layerId = UUID0;
paths = (
{
closed = 1;
nodes = (
"126 0 LINE",
"308 378 LINE",
"770 378 LINE",
"820 0 LINE",
"1020 0 LINE",
"816 1400 LINE",
"624 1400 LINE",
"-74 0 LINE"
);
},
{
closed = 1;
nodes = (
"672 1134 LINE",
"738 550 LINE",
"400 550 LINE"
);
}
);
width = 1136;
},
{
anchors = (
{
name = bottom;
position = "{512, 0}";
},
{
name = ogonek;
position = "{1044, 0}";
},
{
name = top;
position = "{744, 1400}";
}
);
background = {
paths = (
{
closed = 1;
nodes = (
"1108 0 LINE",
"878 1400 LINE",
"638 1400 LINE",
"-86 0 LINE",
"180 0 LINE",
"352 338 LINE",
"788 338 LINE",
"842 0 LINE"
);
},
{
closed = 1;
nodes = (
"744 586 LINE",
"484 586 LINE",
"686 996 LINE"
);
}
);
};
layerId = "D879A026-05F7-4E99-AC55-D533E46CE7AB";
paths = (
{
closed = 1;
nodes = (
"180 0 LINE",
"352 338 LINE",
"788 338 LINE",
"842 0 LINE",
"1108 0 LINE",
"878 1400 LINE",
"638 1400 LINE",
"-86 0 LINE"
);
},
{
closed = 1;
nodes = (
"686 996 LINE",
"744 586 LINE",
"484 586 LINE"
);
}
);
width = 1214;
}
);
leftKerningGroup = A;
rightKerningGroup = A;
unicode = 0041;
},
{
glyphname = AE;
layers = (
{
anchors = (
{
name = top;
position = "{1196, 1400}";
}
);
background = {
paths = (
{
closed = 1;
nodes = (
"1404 0 LINE",
"1434 172 LINE",
"864 172 LINE",
"948 646 LINE",
"1374 646 LINE",
"1404 818 LINE",
"978 818 LINE",
"1050 1226 LINE",
"1602 1226 LINE",
"1634 1400 LINE",
"758 1400 LINE",
"-104 0 LINE",
"86 0 LINE",
"310 360 LINE",
"682 360 LINE",
"620 0 LINE"
);
},
{
closed = 1;
nodes = (
"716 544 LINE",
"428 544 LINE",
"834 1222 LINE"
);
}
);
};
layerId = UUID0;
paths = (
{
closed = 1;
nodes = (
"86 0 LINE",
"310 360 LINE",
"682 360 LINE",
"620 0 LINE",
"1404 0 LINE",
"1434 172 LINE",
"864 172 LINE",
"948 646 LINE",
"1374 646 LINE",
"1404 818 LINE",
"978 818 LINE",
"1050 1226 LINE",
"1602 1226 LINE",
"1634 1400 LINE",
"758 1400 LINE",
"-104 0 LINE"
);
},
{
closed = 1;
nodes = (
"834 1222 LINE",
"716 544 LINE",
"428 544 LINE"
);
}
);
width = 1576;
},
{
anchors = (
{
name = top;
position = "{1266, 1400}";
}
);
background = {
paths = (
{
closed = 1;
nodes = (
"1512 0 LINE",
"1556 248 LINE",
"974 248 LINE",
"1038 606 LINE",
"1472 606 LINE",
"1516 854 LINE",
"1082 854 LINE",
"1134 1152 LINE",
"1698 1152 LINE",
"1742 1400 LINE",
"790 1400 LINE",
"-112 0 LINE",
"156 0 LINE",
"368 338 LINE",
"734 338 LINE",
"674 0 LINE"
);
},
{
closed = 1;
nodes = (
"778 586 LINE",
"530 586 LINE",
"876 1146 LINE"
);
}
);
};
layerId = "D879A026-05F7-4E99-AC55-D533E46CE7AB";
paths = (
{
closed = 1;
nodes = (
"156 0 LINE",
"368 338 LINE",
"734 338 LINE",
"674 0 LINE",
"1512 0 LINE",
"1556 248 LINE",
"974 248 LINE",
"1038 606 LINE",
"1472 606 LINE",
"1516 854 LINE",
"1082 854 LINE",
"1134 1152 LINE",
"1698 1152 LINE",
"1742 1400 LINE",
"790 1400 LINE",
"-112 0 LINE"
);
},
{
closed = 1;
nodes = (
"876 1146 LINE",
"778 586 LINE",
"530 586 LINE"
);
}
);
width = 1686;
}
);
rightKerningGroup = E;
unicode = 00C6;
},
{
glyphname = B;
layers = (
{
background = {
paths = (
{
closed = 1;
nodes = (
"506 0 LINE SMOOTH",
"746 0 OFFCURVE",
"1026 74 OFFCURVE",
"1026 484 CURVE SMOOTH",
"1026 598 OFFCURVE",
"980 690 OFFCURVE",
"864 746 CURVE",
"974 858 OFFCURVE",
"1030 936 OFFCURVE",
"1030 1132 CURVE SMOOTH",
"1030 1358 OFFCURVE",
"864 1400 OFFCURVE",
"606 1400 CURVE SMOOTH",
"302 1400 LINE",
"56 0 LINE"
);
},
{
closed = 1;
nodes = (
"638 1230 LINE SMOOTH",
"750 1230 OFFCURVE",
"836 1218 OFFCURVE",
"836 1090 CURVE SMOOTH",
"836 836 OFFCURVE",
"720 818 OFFCURVE",
"606 818 CURVE SMOOTH",
"390 818 LINE",
"462 1230 LINE"
);
},
{
closed = 1;
nodes = (
"618 646 LINE SMOOTH",
"732 646 OFFCURVE",
"826 610 OFFCURVE",
"826 458 CURVE SMOOTH",
"826 204 OFFCURVE",
"692 172 OFFCURVE",
"468 172 CURVE SMOOTH",
"276 172 LINE",
"360 646 LINE"
);
}
);
};
layerId = UUID0;
paths = (
{
closed = 1;
nodes = (
"466 0 LINE SMOOTH",
"798 0 OFFCURVE",
"1026 152 OFFCURVE",
"1026 462 CURVE SMOOTH",
"1026 608 OFFCURVE",
"960 706 OFFCURVE",
"832 754 CURVE",
"952 816 OFFCURVE",
"1030 934 OFFCURVE",
"1030 1100 CURVE SMOOTH",
"1030 1328 OFFCURVE",
"876 1400 OFFCURVE",
"618 1400 CURVE SMOOTH",
"302 1400 LINE",
"56 0 LINE"
);
},
{
closed = 1;
nodes = (
"360 646 LINE",
"598 646 LINE SMOOTH",
"750 646 OFFCURVE",
"826 576 OFFCURVE",
"826 442 CURVE SMOOTH",
"826 260 OFFCURVE",
"664 172 OFFCURVE",
"468 172 CURVE SMOOTH",
"276 172 LINE"
);
},
{
closed = 1;
nodes = (
"462 1230 LINE",
"636 1230 LINE SMOOTH",
"766 1230 OFFCURVE",
"836 1178 OFFCURVE",
"836 1054 CURVE SMOOTH",
"836 908 OFFCURVE",
"732 818 OFFCURVE",
"574 818 CURVE SMOOTH",
"390 818 LINE"
);
}
);
width = 1130;
},
{
background = {
paths = (
{
closed = 1;
nodes = (
"580 0 LINE SMOOTH",
"832 0 OFFCURVE",
"1142 106 OFFCURVE",
"1142 478 CURVE SMOOTH",
"1142 614 OFFCURVE",
"1076 696 OFFCURVE",
"958 748 CURVE",
"1072 838 OFFCURVE",
"1132 964 OFFCURVE",
"1132 1118 CURVE SMOOTH",
"1132 1358 OFFCURVE",
"946 1400 OFFCURVE",
"672 1400 CURVE SMOOTH",
"298 1400 LINE",
"52 0 LINE"
);
},
{
closed = 1;
nodes = (
"740 1182 LINE SMOOTH",
"832 1182 OFFCURVE",
"888 1156 OFFCURVE",
"888 1052 CURVE SMOOTH",
"888 876 OFFCURVE",
"770 838 OFFCURVE",
"698 838 CURVE SMOOTH",
"456 838 LINE",
"516 1182 LINE"
);
},
{
closed = 1;
nodes = (
"670 636 LINE SMOOTH",
"792 636 OFFCURVE",
"878 596 OFFCURVE",
"878 470 CURVE SMOOTH",
"878 284 OFFCURVE",
"772 218 OFFCURVE",
"598 218 CURVE SMOOTH",
"346 218 LINE",
"420 636 LINE"
);
}
);
};
layerId = "D879A026-05F7-4E99-AC55-D533E46CE7AB";
paths = (
{
closed = 1;
nodes = (
"598 0 LINE SMOOTH",
"888 0 OFFCURVE",
"1142 166 OFFCURVE",
"1142 464 CURVE SMOOTH",
"1142 602 OFFCURVE",
"1072 698 OFFCURVE",
"940 742 CURVE",
"1058 814 OFFCURVE",
"1132 936 OFFCURVE",
"1132 1084 CURVE SMOOTH",
"1132 1330 OFFCURVE",
"946 1400 OFFCURVE",
"714 1400 CURVE SMOOTH",
"298 1400 LINE",
"52 0 LINE"
);
},
{
closed = 1;
nodes = (
"420 636 LINE",
"660 636 LINE SMOOTH",
"792 636 OFFCURVE",
"858 570 OFFCURVE",
"858 458 CURVE SMOOTH",
"858 300 OFFCURVE",
"740 218 OFFCURVE",
"588 218 CURVE SMOOTH",
"346 218 LINE"
);
},
{
closed = 1;
nodes = (
"516 1182 LINE",
"730 1182 LINE SMOOTH",
"820 1182 OFFCURVE",
"868 1144 OFFCURVE",
"868 1046 CURVE SMOOTH",
"868 914 OFFCURVE",
"780 838 OFFCURVE",
"668 838 CURVE SMOOTH",
"456 838 LINE"
);
}
);
width = 1232;
}
);
leftKerningGroup = I;
unicode = 0042;
},
{
glyphname = C;
layers = (
{
anchors = (
{
name = bottom;
position = "{626, 0}";
},
{
name = top;
position = "{886, 1400}";
}
);
background = {
paths = (
{
closed = 1;
nodes = (
"736 -28 OFFCURVE",
"874 6 OFFCURVE",
"972 52 CURVE",
"984 228 LINE",
"876 190 OFFCURVE",
"768 144 OFFCURVE",
"640 144 CURVE SMOOTH",
"410 144 OFFCURVE",
"302 330 OFFCURVE",
"302 572 CURVE SMOOTH",
"302 928 OFFCURVE",
"502 1256 OFFCURVE",
"834 1256 CURVE SMOOTH",
"964 1256 OFFCURVE",
"1056 1208 OFFCURVE",
"1150 1170 CURVE",
"1202 1346 LINE",
"1122 1392 OFFCURVE",
"992 1428 OFFCURVE",
"864 1428 CURVE SMOOTH",
"446 1428 OFFCURVE",
"92 1072 OFFCURVE",
"92 556 CURVE SMOOTH",
"92 200 OFFCURVE",
"294 -28 OFFCURVE",
"608 -28 CURVE SMOOTH"
);
}
);
};
layerId = UUID0;
paths = (
{
closed = 1;
nodes = (
"734 -28 OFFCURVE",
"874 6 OFFCURVE",
"972 52 CURVE",
"984 228 LINE",
"876 190 OFFCURVE",
"766 144 OFFCURVE",
"646 144 CURVE SMOOTH",
"410 144 OFFCURVE",
"302 324 OFFCURVE",
"302 578 CURVE SMOOTH",
"302 926 OFFCURVE",
"502 1256 OFFCURVE",
"836 1256 CURVE SMOOTH",
"964 1256 OFFCURVE",
"1056 1208 OFFCURVE",
"1150 1170 CURVE",
"1202 1346 LINE",
"1122 1392 OFFCURVE",
"992 1428 OFFCURVE",
"862 1428 CURVE SMOOTH",
"446 1428 OFFCURVE",
"92 1064 OFFCURVE",
"92 568 CURVE SMOOTH",
"92 192 OFFCURVE",
"294 -28 OFFCURVE",
"610 -28 CURVE SMOOTH"
);
}
);
width = 1130;
},
{
anchors = (
{
name = bottom;
position = "{654, 0}";
},
{
name = top;
position = "{914, 1400}";
}
);
background = {
paths = (
{
closed = 1;
nodes = (
"772 -28 OFFCURVE",
"922 4 OFFCURVE",
"1030 54 CURVE",
"1044 298 LINE",
"924 252 OFFCURVE",
"816 218 OFFCURVE",
"674 218 CURVE SMOOTH",
"466 218 OFFCURVE",
"366 372 OFFCURVE",
"366 588 CURVE SMOOTH",
"366 908 OFFCURVE",
"538 1182 OFFCURVE",
"844 1182 CURVE SMOOTH",
"986 1182 OFFCURVE",
"1082 1148 OFFCURVE",
"1186 1102 CURVE",
"1258 1346 LINE",
"1168 1396 OFFCURVE",
"1028 1428 OFFCURVE",
"888 1428 CURVE SMOOTH",
"448 1428 OFFCURVE",
"84 1072 OFFCURVE",
"84 564 CURVE SMOOTH",
"84 206 OFFCURVE",
"298 -28 OFFCURVE",
"632 -28 CURVE SMOOTH"
);
}
);
};
layerId = "D879A026-05F7-4E99-AC55-D533E46CE7AB";
paths = (
{
closed = 1;
nodes = (
"768 -28 OFFCURVE",
"922 4 OFFCURVE",
"1030 54 CURVE",
"1044 298 LINE",
"932 254 OFFCURVE",
"806 218 OFFCURVE",
"692 218 CURVE SMOOTH",
"454 218 OFFCURVE",
"366 372 OFFCURVE",
"366 598 CURVE SMOOTH",
"366 910 OFFCURVE",
"534 1182 OFFCURVE",
"860 1182 CURVE SMOOTH",
"990 1182 OFFCURVE",
"1106 1138 OFFCURVE",
"1186 1102 CURVE",
"1258 1346 LINE",
"1168 1396 OFFCURVE",
"1026 1428 OFFCURVE",
"894 1428 CURVE SMOOTH",
"448 1428 OFFCURVE",
"84 1068 OFFCURVE",
"84 574 CURVE SMOOTH",
"84 196 OFFCURVE",
"298 -28 OFFCURVE",
"640 -28 CURVE SMOOTH"
);
}
);
width = 1186;
}
);
leftKerningGroup = O;
rightKerningGroup = C;
unicode = 0043;
},
{
glyphname = D;
layers = (
{
anchors = (
{
name = bottom;
position = "{672, 0}";
},
{
name = top;
position = "{822, 1400}";
}
);
background = {
paths = (
{
closed = 1;
nodes = (
"524 0 LINE SMOOTH",
"946 0 OFFCURVE",
"1288 326 OFFCURVE",
"1288 840 CURVE SMOOTH",
"1288 1192 OFFCURVE",
"1084 1400 OFFCURVE",
"770 1400 CURVE SMOOTH",
"302 1400 LINE",
"56 0 LINE"
);
},
{
closed = 1;
nodes = (
"740 1228 LINE SMOOTH",
"968 1228 OFFCURVE",
"1078 1066 OFFCURVE",
"1078 826 CURVE SMOOTH",
"1078 464 OFFCURVE",
"888 172 OFFCURVE",
"554 172 CURVE SMOOTH",
"276 172 LINE",
"462 1228 LINE"
);
}
);
};
layerId = UUID0;
paths = (
{
closed = 1;
nodes = (
"524 0 LINE SMOOTH",
"946 0 OFFCURVE",
"1288 334 OFFCURVE",
"1288 822 CURVE SMOOTH",
"1288 1200 OFFCURVE",
"1084 1400 OFFCURVE",
"770 1400 CURVE SMOOTH",
"302 1400 LINE",
"56 0 LINE"
);
},
{
closed = 1;
nodes = (
"462 1228 LINE",
"740 1228 LINE SMOOTH",
"968 1228 OFFCURVE",
"1078 1072 OFFCURVE",
"1078 812 CURVE SMOOTH",
"1078 470 OFFCURVE",
"888 172 OFFCURVE",
"554 172 CURVE SMOOTH",
"276 172 LINE"
);
}
);
width = 1344;
},
{
anchors = (
{
name = bottom;
position = "{702, 0}";
},
{
name = top;
position = "{862, 1400}";
}
);
background = {
paths = (
{
closed = 1;
nodes = (
"556 0 LINE SMOOTH",
"996 0 OFFCURVE",
"1356 324 OFFCURVE",
"1356 832 CURVE SMOOTH",
"1356 1188 OFFCURVE",
"1136 1400 OFFCURVE",
"802 1400 CURVE SMOOTH",
"298 1400 LINE",
"52 0 LINE"
);
},
{
closed = 1;
nodes = (
"760 1154 LINE SMOOTH",
"970 1154 OFFCURVE",
"1074 1020 OFFCURVE",
"1074 808 CURVE SMOOTH",
"1074 486 OFFCURVE",
"910 246 OFFCURVE",
"600 246 CURVE SMOOTH",
"352 246 LINE",
"512 1154 LINE"
);
}
);
};
layerId = "D879A026-05F7-4E99-AC55-D533E46CE7AB";
paths = (
{
closed = 1;
nodes = (
"556 0 LINE SMOOTH",
"996 0 OFFCURVE",
"1356 332 OFFCURVE",
"1356 816 CURVE SMOOTH",
"1356 1196 OFFCURVE",
"1136 1400 OFFCURVE",
"802 1400 CURVE SMOOTH",
"298 1400 LINE",
"52 0 LINE"
);
},
{
closed = 1;
nodes = (
"512 1154 LINE",
"760 1154 LINE SMOOTH",
"970 1154 OFFCURVE",
"1074 1028 OFFCURVE",
"1074 792 CURVE SMOOTH",
"1074 494 OFFCURVE",
"910 246 OFFCURVE",
"600 246 CURVE SMOOTH",
"352 246 LINE"
);
}
);
width = 1404;
}
);
leftKerningGroup = I;
rightKerningGroup = D;
unicode = 0044;
},
{
glyphname = Eth;
layers = (
{
background = {
paths = (
{
closed = 1;
nodes = (
"532 0 LINE SMOOTH",
"952 0 OFFCURVE",
"1292 326 OFFCURVE",
"1292 842 CURVE SMOOTH",
"1292 1192 OFFCURVE",
"1090 1400 OFFCURVE",
"778 1400 CURVE SMOOTH",
"314 1400 LINE",
"200 754 LINE",
"28 754 LINE",
"6 626 LINE",
"178 626 LINE",
"68 0 LINE"
);
},
{
closed = 1;
nodes = (
"748 1228 LINE SMOOTH",
"976 1228 OFFCURVE",
"1086 1068 OFFCURVE",
"1086 828 CURVE SMOOTH",
"1086 462 OFFCURVE",
"900 174 OFFCURVE",
"562 174 CURVE SMOOTH",
"282 174 LINE",
"362 626 LINE",
"594 626 LINE",
"618 754 LINE",
"384 754 LINE",
"468 1228 LINE"
);
}
);
};
layerId = UUID0;
paths = (
{
closed = 1;
nodes = (
"532 0 LINE SMOOTH",
"952 0 OFFCURVE",
"1292 326 OFFCURVE",
"1292 842 CURVE SMOOTH",
"1292 1192 OFFCURVE",
"1090 1400 OFFCURVE",
"778 1400 CURVE SMOOTH",
"314 1400 LINE",
"68 0 LINE"
);
},
{
closed = 1;
nodes = (
"628 630 LINE",
"658 794 LINE",
"66 794 LINE",
"38 630 LINE"
);
},
{
closed = 1;
nodes = (
"468 1228 LINE",
"748 1228 LINE SMOOTH",
"976 1228 OFFCURVE",
"1086 1068 OFFCURVE",
"1086 828 CURVE SMOOTH",
"1086 462 OFFCURVE",
"900 174 OFFCURVE",
"562 174 CURVE SMOOTH",
"282 174 LINE"
);
}
);
width = 1348;
},
{
background = {
paths = (
{
closed = 1;
nodes = (
"582 0 LINE SMOOTH",
"1024 0 OFFCURVE",
"1384 324 OFFCURVE",
"1384 832 CURVE SMOOTH",
"1384 1188 OFFCURVE",
"1164 1400 OFFCURVE",
"830 1400 CURVE SMOOTH",
"324 1400 LINE",
"216 786 LINE",
"42 786 LINE",
"8 598 LINE",
"184 598 LINE",
"78 0 LINE"
);
},
{
closed = 1;
nodes = (
"786 1154 LINE SMOOTH",
"998 1154 OFFCURVE",
"1100 1020 OFFCURVE",
"1100 808 CURVE SMOOTH",
"1100 486 OFFCURVE",
"936 246 OFFCURVE",
"626 246 CURVE SMOOTH",
"378 246 LINE",
"440 598 LINE",
"672 598 LINE",
"704 786 LINE",
"474 786 LINE",
"538 1154 LINE"
);
}
);
};
layerId = "D879A026-05F7-4E99-AC55-D533E46CE7AB";
paths = (
{
closed = 1;
nodes = (
"582 0 LINE SMOOTH",
"1024 0 OFFCURVE",
"1384 324 OFFCURVE",
"1384 832 CURVE SMOOTH",
"1384 1188 OFFCURVE",
"1164 1400 OFFCURVE",
"830 1400 CURVE SMOOTH",
"324 1400 LINE",
"78 0 LINE"
);
},
{
closed = 1;
nodes = (
"700 618 LINE",
"732 806 LINE",
"90 806 LINE",
"56 618 LINE"
);
},
{
closed = 1;
nodes = (
"538 1154 LINE",
"786 1154 LINE SMOOTH",
"998 1154 OFFCURVE",
"1100 1020 OFFCURVE",
"1100 808 CURVE SMOOTH",
"1100 486 OFFCURVE",
"936 246 OFFCURVE",
"626 246 CURVE SMOOTH",
"378 246 LINE"
);
}
);
width = 1432;
}
);
leftKerningGroup = I;
rightKerningGroup = D;
unicode = 00D0;
},
{
glyphname = E;
layers = (
{
anchors = (
{
name = bottom;
position = "{476, 0}";
},
{
name = ogonek;
position = "{798, 0}";
},
{
name = top;
position = "{690, 1400}";
}
);
background = {
paths = (
{
closed = 1;
nodes = (
"854 0 LINE",
"884 172 LINE",
"278 172 LINE",
"362 646 LINE",
"826 646 LINE",
"856 818 LINE",
"392 818 LINE",
"464 1228 LINE",
"1054 1228 LINE",
"1084 1400 LINE",
"302 1400 LINE",
"56 0 LINE"
);
}
);
};
layerId = UUID0;
paths = (
{
closed = 1;
nodes = (
"854 0 LINE",
"884 172 LINE",
"278 172 LINE",
"362 646 LINE",
"826 646 LINE",
"856 818 LINE",
"392 818 LINE",
"464 1228 LINE",
"1054 1228 LINE",
"1084 1400 LINE",
"302 1400 LINE",
"56 0 LINE"
);
}
);
width = 1028;
},
{
anchors = (
{
name = bottom;
position = "{516, 0}";
},
{
name = ogonek;
position = "{874, 0}";
},
{
name = top;
position = "{734, 1400}";
}
);
background = {
paths = (
{
closed = 1;
nodes = (
"938 0 LINE",
"982 248 LINE",
"358 248 LINE",
"422 606 LINE",
"888 606 LINE",
"932 854 LINE",
"466 854 LINE",
"518 1152 LINE",
"1122 1152 LINE",
"1166 1400 LINE",
"298 1400 LINE",
"52 0 LINE"
);
}
);
};
layerId = "D879A026-05F7-4E99-AC55-D533E46CE7AB";
paths = (
{
closed = 1;
nodes = (
"938 0 LINE",
"982 248 LINE",
"358 248 LINE",
"422 606 LINE",
"888 606 LINE",
"932 854 LINE",
"466 854 LINE",
"518 1152 LINE",
"1122 1152 LINE",
"1166 1400 LINE",
"298 1400 LINE",
"52 0 LINE"
);
}
);
width = 1110;
}
);
leftKerningGroup = E;
rightKerningGroup = E;
unicode = 0045;
},
{
glyphname = F;
layers = (
{
background = {
paths = (
{
closed = 1;
nodes = (
"1044 1228 LINE",
"1074 1400 LINE",
"302 1400 LINE",
"56 0 LINE",
"246 0 LINE",
"360 646 LINE",
"808 646 LINE",
"838 818 LINE",
"390 818 LINE",
"462 1228 LINE"
);
}
);
};
layerId = UUID0;
paths = (
{
closed = 1;
nodes = (
"246 0 LINE",
"360 646 LINE",
"808 646 LINE",
"838 818 LINE",
"390 818 LINE",
"462 1228 LINE",
"1044 1228 LINE",
"1074 1400 LINE",
"302 1400 LINE",
"56 0 LINE"
);
}
);
width = 974;
},
{
background = {
paths = (
{
closed = 1;
nodes = (
"1084 1152 LINE",
"1128 1400 LINE",
"298 1400 LINE",
"52 0 LINE",
"308 0 LINE",
"414 606 LINE",
"858 606 LINE",
"902 854 LINE",
"458 854 LINE",
"512 1152 LINE"
);
}
);
};
layerId = "D879A026-05F7-4E99-AC55-D533E46CE7AB";
paths = (
{
closed = 1;
nodes = (
"308 0 LINE",
"414 606 LINE",
"858 606 LINE",
"902 854 LINE",
"458 854 LINE",
"512 1152 LINE",
"1084 1152 LINE",
"1128 1400 LINE",
"298 1400 LINE",
"52 0 LINE"
);
}
);
width = 1026;
}
);
leftKerningGroup = I;
unicode = 0046;
},
{
glyphname = G;
layers = (
{
anchors = (
{
name = bottom;
position = "{622, 0}";
},
{
name = top;
position = "{854, 1400}";
}
);
background = {
paths = (
{
closed = 1;
nodes = (
"742 -28 OFFCURVE",
"940 20 OFFCURVE",
"1048 78 CURVE",
"1158 702 LINE",
"788 702 LINE",
"758 530 LINE",
"938 530 LINE",
"876 182 LINE",
"806 152 OFFCURVE",
"724 144 OFFCURVE",
"670 144 CURVE SMOOTH",
"418 144 OFFCURVE",
"302 324 OFFCURVE",
"302 570 CURVE SMOOTH",
"302 918 OFFCURVE",
"486 1256 OFFCURVE",
"844 1256 CURVE SMOOTH",
"958 1256 OFFCURVE",
"1086 1222 OFFCURVE",
"1182 1182 CURVE",
"1230 1348 LINE",
"1144 1394 OFFCURVE",
"992 1428 OFFCURVE",
"868 1428 CURVE SMOOTH",
"442 1428 OFFCURVE",
"94 1072 OFFCURVE",
"94 558 CURVE SMOOTH",
"94 200 OFFCURVE",
"296 -28 OFFCURVE",
"598 -28 CURVE SMOOTH"
);
}
);
};
layerId = UUID0;
paths = (
{
closed = 1;
nodes = (
"774 -28 OFFCURVE",
"944 20 OFFCURVE",
"1048 78 CURVE",
"1158 702 LINE",
"788 702 LINE",
"758 530 LINE",
"938 530 LINE",
"876 182 LINE",
"806 152 OFFCURVE",
"724 144 OFFCURVE",
"670 144 CURVE SMOOTH",
"418 144 OFFCURVE",
"302 318 OFFCURVE",
"302 580 CURVE SMOOTH",
"302 912 OFFCURVE",
"486 1256 OFFCURVE",
"844 1256 CURVE SMOOTH",
"958 1256 OFFCURVE",
"1086 1222 OFFCURVE",
"1182 1182 CURVE",
"1230 1348 LINE",
"1144 1394 OFFCURVE",
"994 1428 OFFCURVE",
"864 1428 CURVE SMOOTH",
"442 1428 OFFCURVE",
"94 1064 OFFCURVE",
"94 570 CURVE SMOOTH",
"94 194 OFFCURVE",
"304 -28 OFFCURVE",
"618 -28 CURVE SMOOTH"
);
}
);
width = 1242;
},
{
anchors = (
{
name = bottom;
position = "{647, 0}";
},
{
name = top;
position = "{888, 1400}";
}
);
background = {
paths = (
{
closed = 1;
nodes = (
"780 -28 OFFCURVE",
"1000 20 OFFCURVE",
"1106 78 CURVE",
"1216 702 LINE",
"824 702 LINE",
"786 490 LINE",
"924 490 LINE",
"880 240 LINE",
"812 226 OFFCURVE",
"754 218 OFFCURVE",
"698 218 CURVE SMOOTH",
"476 218 OFFCURVE",
"368 374 OFFCURVE",
"368 596 CURVE SMOOTH",
"368 904 OFFCURVE",
"528 1182 OFFCURVE",
"860 1182 CURVE SMOOTH",
"978 1182 OFFCURVE",
"1120 1146 OFFCURVE",
"1214 1102 CURVE",
"1286 1346 LINE",
"1198 1396 OFFCURVE",
"1026 1428 OFFCURVE",
"896 1428 CURVE SMOOTH",
"444 1428 OFFCURVE",
"84 1070 OFFCURVE",
"84 566 CURVE SMOOTH",
"84 206 OFFCURVE",
"300 -28 OFFCURVE",
"626 -28 CURVE SMOOTH"
);
}
);
};
layerId = "D879A026-05F7-4E99-AC55-D533E46CE7AB";
paths = (
{
closed = 1;
nodes = (
"780 -28 OFFCURVE",
"1000 20 OFFCURVE",
"1106 78 CURVE",
"1216 702 LINE",
"824 702 LINE",
"786 490 LINE",
"924 490 LINE",
"880 240 LINE",
"812 226 OFFCURVE",
"752 218 OFFCURVE",
"700 218 CURVE SMOOTH",
"476 218 OFFCURVE",
"368 368 OFFCURVE",
"368 608 CURVE SMOOTH",
"368 898 OFFCURVE",
"528 1182 OFFCURVE",
"860 1182 CURVE SMOOTH",
"978 1182 OFFCURVE",
"1120 1146 OFFCURVE",
"1214 1102 CURVE",
"1286 1346 LINE",
"1198 1396 OFFCURVE",
"1026 1428 OFFCURVE",
"892 1428 CURVE SMOOTH",
"444 1428 OFFCURVE",
"84 1064 OFFCURVE",
"84 578 CURVE SMOOTH",
"84 200 OFFCURVE",
"300 -28 OFFCURVE",
"630 -28 CURVE"
);
}
);
width = 1292;
}
);
leftKerningGroup = O;
unicode = 0047;
},
{
glyphname = H;
layers = (
{
anchors = (
{
name = bottom;
position = "{584, 0}";
},
{
name = top;
position = "{830, 1400}";
}
);
background = {
paths = (
{
closed = 1;
nodes = (
"1110 0 LINE",
"1358 1400 LINE",
"1168 1400 LINE",
"1066 822 LINE",
"390 822 LINE",
"492 1400 LINE",
"302 1400 LINE",
"56 0 LINE",
"246 0 LINE",
"360 642 LINE",
"1034 642 LINE",
"920 0 LINE"
);
}
);
};
layerId = UUID0;
paths = (
{
closed = 1;
nodes = (
"246 0 LINE",
"360 642 LINE",
"1034 642 LINE",
"920 0 LINE",
"1110 0 LINE",
"1358 1400 LINE",
"1168 1400 LINE",
"1066 822 LINE",
"390 822 LINE",
"492 1400 LINE",
"302 1400 LINE",
"56 0 LINE"
);
}
);
width = 1376;
},
{
anchors = (
{
name = bottom;
position = "{616, 0}";
},
{
name = top;
position = "{862, 1400}";
}
);
background = {
paths = (
{
closed = 1;
nodes = (
"1178 0 LINE",
"1424 1400 LINE",
"1168 1400 LINE",
"1072 854 LINE",
"458 854 LINE",
"554 1400 LINE",
"298 1400 LINE",
"52 0 LINE",
"308 0 LINE",
"414 606 LINE",
"1028 606 LINE",
"922 0 LINE"
);
}
);
};
layerId = "D879A026-05F7-4E99-AC55-D533E46CE7AB";
paths = (
{
closed = 1;
nodes = (
"308 0 LINE",
"414 606 LINE",
"1028 606 LINE",
"922 0 LINE",
"1178 0 LINE",
"1424 1400 LINE",
"1168 1400 LINE",
"1072 854 LINE",
"458 854 LINE",
"554 1400 LINE",
"298 1400 LINE",
"52 0 LINE"
);
}
);
width = 1436;
}
);
leftKerningGroup = I;
rightKerningGroup = I;
unicode = 0048;
},
{
glyphname = Hbar;
layers = (
{
components = (
{
name = H;
}
);
layerId = UUID0;
paths = (
{
closed = 1;
nodes = (
"1408 1002 LINE",
"1430 1126 LINE",
"132 1126 LINE",
"112 1002 LINE"
);
}
);
width = 1376;
},
{
components = (
{
name = H;
}
);
layerId = "D879A026-05F7-4E99-AC55-D533E46CE7AB";
paths = (
{
closed = 1;
nodes = (
"1460 976 LINE",
"1492 1156 LINE",
"144 1156 LINE",
"114 976 LINE"
);
}
);
width = 1448;
}
);
unicode = 0126;
},
{
glyphname = I;
layers = (
{
anchors = (
{
name = bottom;
position = "{152, 0}";
},
{
name = ogonek;
position = "{190, 0}";
},
{
name = top;
position = "{396, 1400}";
}
);
background = {
paths = (
{
closed = 1;
nodes = (
"246 0 LINE",
"492 1400 LINE",
"302 1400 LINE",
"56 0 LINE"
);
}
);
};
layerId = UUID0;
paths = (
{
closed = 1;
nodes = (
"246 0 LINE",
"492 1400 LINE",
"302 1400 LINE",
"56 0 LINE"
);
}
);
width = 510;
},
{
anchors = (
{
name = bottom;
position = "{180, 0}";
},
{
name = ogonek;
position = "{244, 0}";
},
{
name = top;
position = "{430, 1400}";
}
);
background = {
paths = (
{
closed = 1;
nodes = (
"308 0 LINE",
"554 1400 LINE",
"298 1400 LINE",
"52 0 LINE"
);
}
);
};
layerId = "D879A026-05F7-4E99-AC55-D533E46CE7AB";
paths = (
{
closed = 1;
nodes = (
"308 0 LINE",
"554 1400 LINE",
"298 1400 LINE",
"52 0 LINE"
);
}
);
width = 566;
}
);
leftKerningGroup = I;
rightKerningGroup = I;
unicode = 0049;
},
{
glyphname = IJ;
layers = (
{
layerId = UUID0;
paths = (
{
closed = 1;
nodes = (
"914 -28 OFFCURVE",
"1124 210 OFFCURVE",
"1192 594 CURVE SMOOTH",
"1334 1400 LINE",
"1144 1400 LINE",
"1018 686 LINE SMOOTH",
"970 412 OFFCURVE",
"872 144 OFFCURVE",
"590 144 CURVE SMOOTH",
"396 144 OFFCURVE",
"334 272 OFFCURVE",
"330 442 CURVE",
"130 396 LINE",
"134 130 OFFCURVE",
"272 -28 OFFCURVE",
"560 -28 CURVE SMOOTH"
);
},
{
closed = 1;
nodes = (
"338 582 LINE",
"342 616 OFFCURVE",
"348 652 OFFCURVE",
"354 686 CURVE SMOOTH",
"480 1400 LINE",
"290 1400 LINE",
"146 582 LINE"
);
}
);
width = 1336;
},
{
layerId = "D879A026-05F7-4E99-AC55-D533E46CE7AB";
paths = (
{
closed = 1;
nodes = (
"966 -28 OFFCURVE",
"1186 220 OFFCURVE",
"1254 600 CURVE SMOOTH",
"1396 1400 LINE",
"1140 1400 LINE",
"1014 686 LINE SMOOTH",
"968 426 OFFCURVE",
"880 218 OFFCURVE",
"630 218 CURVE SMOOTH",
"458 218 OFFCURVE",
"400 316 OFFCURVE",
"392 464 CURVE",
"126 400 LINE",
"134 132 OFFCURVE",
"282 -28 OFFCURVE",
"588 -28 CURVE SMOOTH"
);
},
{
closed = 1;
nodes = (
"400 606 LINE",
"402 630 OFFCURVE",
"406 658 OFFCURVE",
"412 686 CURVE SMOOTH",
"538 1400 LINE",
"284 1400 LINE",
"142 606 LINE"
);
}
);
width = 1390;
}
);
unicode = 0132;
},
{
glyphname = J;
layers = (
{
anchors = (
{
name = top;
position = "{400, 1400}";
}
);
background = {
paths = (
{
closed = 1;
nodes = (
"-110 -344 LINE SMOOTH",
"88 -344 OFFCURVE",
"204 -244 OFFCURVE",
"236 -64 CURVE SMOOTH",
"494 1400 LINE",
"304 1400 LINE",
"56 -6 LINE SMOOTH",
"28 -162 OFFCURVE",
"-12 -232 OFFCURVE",
"-130 -232 CURVE SMOOTH",
"-148 -232 LINE",
"-150 -344 LINE"
);
}
);
};
layerId = UUID0;
paths = (
{
closed = 1;
nodes = (
"-110 -344 LINE SMOOTH",
"88 -344 OFFCURVE",
"204 -244 OFFCURVE",
"236 -64 CURVE SMOOTH",
"494 1400 LINE",
"304 1400 LINE",
"56 -6 LINE SMOOTH",
"28 -162 OFFCURVE",
"-12 -232 OFFCURVE",
"-130 -232 CURVE SMOOTH",
"-148 -232 LINE",
"-152 -344 LINE"
);
}
);
width = 512;
},
{
anchors = (
{
name = top;
position = "{426, 1400}";
}
);
background = {
paths = (
{
closed = 1;
nodes = (
"-64 -344 LINE SMOOTH",
"122 -344 OFFCURVE",
"262 -248 OFFCURVE",
"298 -48 CURVE SMOOTH",
"554 1400 LINE",
"298 1400 LINE",
"52 8 LINE SMOOTH",
"32 -102 OFFCURVE",
"0 -152 OFFCURVE",
"-66 -152 CURVE SMOOTH",
"-126 -152 LINE",
"-140 -344 LINE"
);
}
);
};
layerId = "D879A026-05F7-4E99-AC55-D533E46CE7AB";
paths = (
{
closed = 1;
nodes = (
"-64 -344 LINE SMOOTH",
"122 -344 OFFCURVE",
"262 -248 OFFCURVE",
"298 -48 CURVE SMOOTH",
"554 1400 LINE",
"298 1400 LINE",
"52 8 LINE SMOOTH",
"32 -102 OFFCURVE",
"0 -152 OFFCURVE",
"-66 -152 CURVE SMOOTH",
"-126 -152 LINE",
"-140 -344 LINE"
);
}
);
width = 566;
}
);
unicode = 004A;
},
{
glyphname = K;
layers = (
{
anchors = (
{
name = bottom;
position = "{506, 0}";
},
{
name = top;
position = "{730, 1400}";
}
);
background = {
paths = (
{
closed = 1;
nodes = (
"972 0 LINE",
"644 742 LINE",
"1218 1400 LINE",
"1012 1400 LINE",
"438 742 LINE",
"766 0 LINE"
);
},
{
closed = 1;
nodes = (
"246 0 LINE",
"492 1400 LINE",
"302 1400 LINE",
"56 0 LINE"
);
}
);
};
layerId = UUID0;
paths = (
{
closed = 1;
nodes = (
"984 0 LINE",
"598 742 LINE",
"1196 1400 LINE",
"968 1400 LINE",
"394 742 LINE",
"766 0 LINE"
);
},
{
closed = 1;
nodes = (
"246 0 LINE",
"492 1400 LINE",
"302 1400 LINE",
"56 0 LINE"
);
}
);
width = 1094;
},
{
anchors = (
{
name = bottom;
position = "{556, 0}";
},
{
name = top;
position = "{788, 1400}";
}
);
background = {
paths = (
{
closed = 1;
nodes = (
"1106 0 LINE",
"772 740 LINE",
"1352 1400 LINE",
"1062 1400 LINE",
"482 740 LINE",
"816 0 LINE"
);
},
{
closed = 1;
nodes = (
"308 0 LINE",
"554 1400 LINE",
"298 1400 LINE",
"52 0 LINE"
);
}
);
};
layerId = "D879A026-05F7-4E99-AC55-D533E46CE7AB";
paths = (
{
closed = 1;
nodes = (
"1082 0 LINE",
"732 740 LINE",
"1332 1400 LINE",
"1022 1400 LINE",
"456 740 LINE",
"804 0 LINE"
);
},
{
closed = 1;
nodes = (
"308 0 LINE",
"554 1400 LINE",
"298 1400 LINE",
"52 0 LINE"
);
}
);
width = 1212;
}
);
leftKerningGroup = I;
unicode = 004B;
},
{
glyphname = L;
layers = (
{
anchors = (
{
name = bottom;
position = "{468, 0}";
},
{
name = top;
position = "{398, 1400}";
},
{
name = topright;
position = "{932, 1400}";
}
);
background = {
paths = (
{
closed = 1;
nodes = (
"804 0 LINE",
"836 172 LINE",
"276 172 LINE",
"492 1400 LINE",
"302 1400 LINE",
"56 0 LINE"
);
}
);
};
layerId = UUID0;
paths = (
{
closed = 1;
nodes = (
"804 0 LINE",
"836 172 LINE",
"276 172 LINE",
"492 1400 LINE",
"302 1400 LINE",
"56 0 LINE"
);
}
);
width = 934;
},
{
anchors = (
{
name = bottom;
position = "{491, 0}";
},
{
name = top;
position = "{426, 1400}";
},
{
name = topright;
position = "{914, 1400}";
}
);
background = {
paths = (
{
closed = 1;
nodes = (
"850 0 LINE",
"894 248 LINE",
"352 248 LINE",
"554 1400 LINE",
"298 1400 LINE",
"52 0 LINE"
);
}
);
};
layerId = "D879A026-05F7-4E99-AC55-D533E46CE7AB";
paths = (
{
closed = 1;
nodes = (
"850 0 LINE",
"894 248 LINE",
"352 248 LINE",
"554 1400 LINE",
"298 1400 LINE",
"52 0 LINE"
);
}
);
width = 980;
}
);
leftKerningGroup = I;
unicode = 004C;
},
{
glyphname = Lslash;
layers = (
{
components = (
{
name = L;
}
);
layerId = UUID0;
paths = (
{
closed = 1;
nodes = (
"772 972 LINE",
"798 1118 LINE",
"66 842 LINE",
"40 696 LINE"
);
}
);
width = 934;
},
{
components = (
{
name = L;
}
);
layerId = "D879A026-05F7-4E99-AC55-D533E46CE7AB";
paths = (
{
closed = 1;
nodes = (
"826 940 LINE",
"862 1140 LINE",
"70 842 LINE",
"34 642 LINE"
);
}
);
width = 980;
}
);
unicode = 0141;
},
{
glyphname = M;
layers = (
{
anchors = (
{
name = bottom;
position = "{648, 0}";
},
{
name = top;
position = "{894, 1400}";
}
);
background = {
paths = (
{
closed = 1;
nodes = (
"1300 0 LINE",
"1376 1400 LINE",
"1216 1400 LINE",
"772 706 LINE",
"572 1400 LINE",
"412 1400 LINE",
"-6 0 LINE",
"194 0 LINE",
"494 1058 LINE",
"708 332 LINE",
"1172 1058 LINE",
"1100 0 LINE"
);
}
);
};
layerId = UUID0;
paths = (
{
closed = 1;
nodes = (
"194 0 LINE",
"490 1032 LINE",
"708 332 LINE",
"1168 1032 LINE",
"1100 0 LINE",
"1300 0 LINE",
"1376 1400 LINE",
"1204 1400 LINE",
"772 706 LINE",
"584 1400 LINE",
"412 1400 LINE",
"-6 0 LINE"
);
}
);
width = 1504;
},
{
anchors = (
{
name = bottom;
position = "{704, 0}";
},
{
name = top;
position = "{952, 1400}";
}
);
background = {
paths = (
{
closed = 1;
nodes = (
"1424 0 LINE",
"1482 1400 LINE",
"1274 1400 LINE",
"838 762 LINE",
"628 1400 LINE",
"418 1400 LINE",
"-16 0 LINE",
"250 0 LINE",
"528 936 LINE",
"756 294 LINE",
"1210 938 LINE",
"1158 0 LINE"
);
}
);
};
layerId = "D879A026-05F7-4E99-AC55-D533E46CE7AB";
paths = (
{
closed = 1;
nodes = (
"250 0 LINE",
"526 930 LINE",
"756 294 LINE",
"1214 930 LINE",
"1158 0 LINE",
"1424 0 LINE",
"1482 1400 LINE",
"1262 1400 LINE",
"838 762 LINE",
"640 1400 LINE",
"418 1400 LINE",
"-16 0 LINE"
);
}
);
width = 1618;
}
);
unicode = 004D;
},
{
glyphname = N;
layers = (
{
anchors = (
{
name = bottom;
position = "{564, 0}";
},
{
name = top;
position = "{800, 1400}";
}
);
background = {
paths = (
{
closed = 1;
nodes = (
"1040 0 LINE",
"1288 1400 LINE",
"1096 1400 LINE",
"912 352 LINE",
"502 1400 LINE",
"302 1400 LINE",
"56 0 LINE",
"246 0 LINE",
"442 1106 LINE",
"880 0 LINE"
);
}
);
};
layerId = UUID0;
paths = (
{
closed = 1;
nodes = (
"246 0 LINE",
"442 1106 LINE",
"880 0 LINE",
"1040 0 LINE",
"1288 1400 LINE",
"1096 1400 LINE",
"912 352 LINE",
"502 1400 LINE",
"302 1400 LINE",
"56 0 LINE"
);
}
);
width = 1306;
},
{
anchors = (
{
name = bottom;
position = "{608, 0}";
},
{
name = top;
position = "{828, 1400}";
}
);
background = {
paths = (
{
closed = 1;
nodes = (
"1116 0 LINE",
"1364 1400 LINE",
"1108 1400 LINE",
"948 496 LINE",
"548 1400 LINE",
"298 1400 LINE",
"52 0 LINE",
"308 0 LINE",
"478 960 LINE",
"908 0 LINE"
);
}
);
};
layerId = "D879A026-05F7-4E99-AC55-D533E46CE7AB";
paths = (
{
closed = 1;
nodes = (
"308 0 LINE",
"478 960 LINE",
"908 0 LINE",
"1116 0 LINE",
"1364 1400 LINE",
"1108 1400 LINE",
"948 496 LINE",
"548 1400 LINE",
"298 1400 LINE",
"52 0 LINE"
);
}
);
width = 1376;
}
);
leftKerningGroup = I;
rightKerningGroup = I;
unicode = 004E;
},
{
glyphname = Eng;
layers = (
{
layerId = UUID0;
paths = (
{
closed = 1;
nodes = (
"1256 920 LINE SMOOTH",
"1264 962 OFFCURVE",
"1268 1004 OFFCURVE",
"1268 1042 CURVE SMOOTH",
"1268 1274 OFFCURVE",
"1144 1428 OFFCURVE",
"902 1428 CURVE SMOOTH",
"742 1428 OFFCURVE",
"598 1370 OFFCURVE",
"464 1258 CURVE",
"476 1400 LINE",
"316 1400 LINE",
"68 0 LINE",
"258 0 LINE",
"450 1090 LINE",
"538 1178 OFFCURVE",
"660 1256 OFFCURVE",
"810 1256 CURVE SMOOTH",
"984 1256 OFFCURVE",
"1072 1162 OFFCURVE",
"1072 990 CURVE SMOOTH",
"1072 962 OFFCURVE",
"1070 932 OFFCURVE",
"1064 900 CURVE SMOOTH",
"918 80 LINE SMOOTH",
"890 -106 OFFCURVE",
"784 -198 OFFCURVE",
"644 -198 CURVE SMOOTH",
"580 -198 OFFCURVE",
"518 -184 OFFCURVE",
"460 -158 CURVE",
"406 -326 LINE",
"470 -354 OFFCURVE",
"544 -370 OFFCURVE",
"622 -370 CURVE SMOOTH",
"864 -370 OFFCURVE",
"1054 -228 OFFCURVE",
"1108 80 CURVE SMOOTH"
);
}
);
width = 1348;
},
{
layerId = "D879A026-05F7-4E99-AC55-D533E46CE7AB";
paths = (
{
closed = 1;
nodes = (
"1298 836 LINE SMOOTH",
"1310 900 OFFCURVE",
"1314 952 OFFCURVE",
"1314 1006 CURVE SMOOTH",
"1314 1250 OFFCURVE",
"1188 1428 OFFCURVE",
"920 1428 CURVE SMOOTH",
"774 1428 OFFCURVE",
"632 1372 OFFCURVE",
"518 1266 CURVE",
"530 1400 LINE",
"312 1400 LINE",
"64 0 LINE",
"320 0 LINE",
"504 1038 LINE",
"576 1124 OFFCURVE",
"682 1182 OFFCURVE",
"814 1182 CURVE SMOOTH",
"968 1182 OFFCURVE",
"1046 1088 OFFCURVE",
"1046 926 CURVE SMOOTH",
"1046 886 OFFCURVE",
"1042 846 OFFCURVE",
"1034 796 CURVE SMOOTH",
"906 60 LINE SMOOTH",
"878 -100 OFFCURVE",
"780 -164 OFFCURVE",
"650 -164 CURVE SMOOTH",
"590 -164 OFFCURVE",
"530 -156 OFFCURVE",
"476 -138 CURVE",
"408 -374 LINE",
"474 -398 OFFCURVE",
"546 -410 OFFCURVE",
"624 -410 CURVE SMOOTH",
"892 -410 OFFCURVE",
"1110 -254 OFFCURVE",
"1166 76 CURVE SMOOTH"
);
}
);
width = 1394;
}
);
unicode = 014A;
},
{
glyphname = O;
layers = (
{
anchors = (
{
name = bottom;
position = "{592, 0}";
},
{
name = ogonek;
position = "{678, 0}";
},
{
name = top;
position = "{852, 1400}";
},
{
name = topright;
position = "{1004, 1400}";
}
);
background = {
paths = (
{
closed = 1;
nodes = (
"1016 -28 OFFCURVE",
"1366 330 OFFCURVE",
"1366 846 CURVE SMOOTH",
"1366 1200 OFFCURVE",
"1168 1428 OFFCURVE",
"858 1428 CURVE SMOOTH",
"440 1428 OFFCURVE",
"92 1070 OFFCURVE",
"92 554 CURVE SMOOTH",
"92 200 OFFCURVE",
"290 -28 OFFCURVE",
"600 -28 CURVE SMOOTH"
);
},
{
closed = 1;
nodes = (
"1052 1256 OFFCURVE",
"1158 1070 OFFCURVE",
"1158 830 CURVE SMOOTH",
"1158 476 OFFCURVE",
"962 144 OFFCURVE",
"632 144 CURVE SMOOTH",
"406 144 OFFCURVE",
"302 330 OFFCURVE",
"302 570 CURVE SMOOTH",
"302 924 OFFCURVE",
"496 1256 OFFCURVE",
"828 1256 CURVE SMOOTH"
);
}
);
};
layerId = UUID0;
paths = (
{
closed = 1;
nodes = (
"1016 -28 OFFCURVE",
"1366 340 OFFCURVE",
"1366 836 CURVE SMOOTH",
"1366 1210 OFFCURVE",
"1168 1428 OFFCURVE",
"852 1428 CURVE SMOOTH",
"440 1428 OFFCURVE",
"92 1060 OFFCURVE",
"92 564 CURVE SMOOTH",
"92 190 OFFCURVE",
"290 -28 OFFCURVE",
"606 -28 CURVE SMOOTH"
);
},
{
closed = 1;
nodes = (
"400 144 OFFCURVE",
"302 332 OFFCURVE",
"302 576 CURVE SMOOTH",
"302 924 OFFCURVE",
"502 1256 OFFCURVE",
"820 1256 CURVE SMOOTH",
"1058 1256 OFFCURVE",
"1158 1070 OFFCURVE",
"1158 824 CURVE SMOOTH",
"1158 476 OFFCURVE",
"956 144 OFFCURVE",
"638 144 CURVE SMOOTH"
);
}
);
width = 1420;
},
{
anchors = (
{
name = bottom;
position = "{618, 0}";
},
{
name = ogonek;
position = "{708, 0}";
},
{
name = top;
position = "{894, 1400}";
},
{
name = topright;
position = "{1054, 1400}";
}
);
background = {
paths = (
{
closed = 1;
nodes = (
"1074 -28 OFFCURVE",
"1440 328 OFFCURVE",
"1440 836 CURVE SMOOTH",
"1440 1194 OFFCURVE",
"1224 1428 OFFCURVE",
"890 1428 CURVE SMOOTH",
"450 1428 OFFCURVE",
"84 1072 OFFCURVE",
"84 564 CURVE SMOOTH",
"84 206 OFFCURVE",
"300 -28 OFFCURVE",
"634 -28 CURVE SMOOTH"
);
},
{
closed = 1;
nodes = (
"1056 1182 OFFCURVE",
"1156 1028 OFFCURVE",
"1156 812 CURVE SMOOTH",
"1156 492 OFFCURVE",
"982 218 OFFCURVE",
"676 218 CURVE SMOOTH",
"466 218 OFFCURVE",
"366 372 OFFCURVE",
"366 588 CURVE SMOOTH",
"366 908 OFFCURVE",
"540 1182 OFFCURVE",
"846 1182 CURVE SMOOTH"
);
}
);
};
layerId = "D879A026-05F7-4E99-AC55-D533E46CE7AB";
paths = (
{
closed = 1;
nodes = (
"1074 -28 OFFCURVE",
"1440 336 OFFCURVE",
"1440 826 CURVE SMOOTH",
"1440 1202 OFFCURVE",
"1224 1428 OFFCURVE",
"882 1428 CURVE SMOOTH",
"450 1428 OFFCURVE",
"84 1064 OFFCURVE",
"84 574 CURVE SMOOTH",
"84 198 OFFCURVE",
"300 -28 OFFCURVE",
"642 -28 CURVE SMOOTH"
);
},
{
closed = 1;
nodes = (
"466 218 OFFCURVE",
"366 364 OFFCURVE",
"366 596 CURVE SMOOTH",
"366 902 OFFCURVE",
"542 1182 OFFCURVE",
"840 1182 CURVE SMOOTH",
"1056 1182 OFFCURVE",
"1156 1036 OFFCURVE",
"1156 804 CURVE SMOOTH",
"1156 498 OFFCURVE",
"980 218 OFFCURVE",
"682 218 CURVE SMOOTH"
);
}
);
width = 1484;
}
);
leftKerningGroup = O;
rightKerningGroup = O;
unicode = 004F;
},
{
glyphname = Oslash;
layers = (
{
background = {
paths = (
{
closed = 1;
nodes = (
"1020 -24 OFFCURVE",
"1368 330 OFFCURVE",
"1368 840 CURVE SMOOTH",
"1368 998 OFFCURVE",
"1328 1148 OFFCURVE",
"1256 1254 CURVE",
"1402 1432 LINE",
"1212 1432 LINE",
"1144 1344 LINE",
"1054 1404 OFFCURVE",
"962 1428 OFFCURVE",
"858 1428 CURVE SMOOTH",
"442 1428 OFFCURVE",
"94 1070 OFFCURVE",
"94 558 CURVE SMOOTH",
"94 406 OFFCURVE",
"130 258 OFFCURVE",
"198 150 CURVE",
"24 -60 LINE",
"216 -60 LINE",
"308 62 LINE",
"400 0 OFFCURVE",
"496 -24 OFFCURVE",
"602 -24 CURVE SMOOTH"
);
},
{
closed = 1;
nodes = (
"1116 1096 LINE",
"1144 1034 OFFCURVE",
"1156 926 OFFCURVE",
"1156 848 CURVE SMOOTH",
"1156 480 OFFCURVE",
"966 152 OFFCURVE",
"634 152 CURVE SMOOTH",
"568 152 OFFCURVE",
"510 166 OFFCURVE",
"442 210 CURVE"
);
},
{
closed = 1;
nodes = (
"892 1250 OFFCURVE",
"944 1236 OFFCURVE",
"1012 1194 CURVE",
"340 312 LINE",
"318 400 OFFCURVE",
"308 498 OFFCURVE",
"308 574 CURVE SMOOTH",
"308 922 OFFCURVE",
"496 1250 OFFCURVE",
"826 1250 CURVE SMOOTH"
);
}
);
};
components = (
{
name = O;
}
);
layerId = UUID0;
paths = (
{
closed = 1;
nodes = (
"34 -88 LINE",
"216 -88 LINE",
"1436 1488 LINE",
"1252 1488 LINE"
);
}
);
width = 1420;
},
{
background = {
paths = (
{
closed = 1;
nodes = (
"1074 -28 OFFCURVE",
"1440 328 OFFCURVE",
"1440 836 CURVE SMOOTH",
"1440 990 OFFCURVE",
"1400 1136 OFFCURVE",
"1332 1230 CURVE",
"1502 1432 LINE",
"1232 1432 LINE",
"1172 1360 LINE",
"1096 1404 OFFCURVE",
"1000 1428 OFFCURVE",
"890 1428 CURVE SMOOTH",
"450 1428 OFFCURVE",
"84 1072 OFFCURVE",
"84 562 CURVE SMOOTH",
"84 410 OFFCURVE",
"120 268 OFFCURVE",
"186 174 CURVE",
"-14 -62 LINE",
"256 -62 LINE",
"342 44 LINE",
"420 -2 OFFCURVE",
"520 -28 OFFCURVE",
"634 -28 CURVE SMOOTH"
);
},
{
closed = 1;
nodes = (
"1134 1004 LINE",
"1150 956 OFFCURVE",
"1158 882 OFFCURVE",
"1158 816 CURVE SMOOTH",
"1158 490 OFFCURVE",
"984 218 OFFCURVE",
"676 218 CURVE SMOOTH",
"612 218 OFFCURVE",
"558 230 OFFCURVE",
"522 252 CURVE"
);
},
{
closed = 1;
nodes = (
"906 1182 OFFCURVE",
"958 1170 OFFCURVE",
"992 1150 CURVE",
"384 404 LINE",
"372 448 OFFCURVE",
"364 520 OFFCURVE",
"364 582 CURVE SMOOTH",
"364 910 OFFCURVE",
"540 1182 OFFCURVE",
"848 1182 CURVE SMOOTH"
);
}
);
};
components = (
{
name = O;
}
);
layerId = "D879A026-05F7-4E99-AC55-D533E46CE7AB";
paths = (
{
closed = 1;
nodes = (
"48 -88 LINE",
"250 -88 LINE",
"1462 1488 LINE",
"1258 1488 LINE"
);
}
);
width = 1484;
},
{
associatedMasterId = UUID0;
background = {
paths = (
{
closed = 1;
nodes = (
"1020 -24 OFFCURVE",
"1368 330 OFFCURVE",
"1368 840 CURVE SMOOTH",
"1368 998 OFFCURVE",
"1328 1148 OFFCURVE",
"1256 1254 CURVE",
"1402 1432 LINE",
"1212 1432 LINE",
"1144 1344 LINE",
"1054 1404 OFFCURVE",
"962 1428 OFFCURVE",
"858 1428 CURVE SMOOTH",
"442 1428 OFFCURVE",
"94 1070 OFFCURVE",
"94 558 CURVE SMOOTH",
"94 406 OFFCURVE",
"130 258 OFFCURVE",
"198 150 CURVE",
"24 -60 LINE",
"216 -60 LINE",
"308 62 LINE",
"400 0 OFFCURVE",
"496 -24 OFFCURVE",
"602 -24 CURVE SMOOTH"
);
},
{
closed = 1;
nodes = (
"1116 1096 LINE",
"1144 1034 OFFCURVE",
"1156 926 OFFCURVE",
"1156 848 CURVE SMOOTH",
"1156 480 OFFCURVE",
"966 152 OFFCURVE",
"634 152 CURVE SMOOTH",
"568 152 OFFCURVE",
"510 166 OFFCURVE",
"442 210 CURVE"
);
},
{
closed = 1;
nodes = (
"892 1250 OFFCURVE",
"944 1236 OFFCURVE",
"1012 1194 CURVE",
"340 312 LINE",
"318 400 OFFCURVE",
"308 498 OFFCURVE",
"308 574 CURVE SMOOTH",
"308 922 OFFCURVE",
"496 1250 OFFCURVE",
"826 1250 CURVE SMOOTH"
);
}
);
};
layerId = "BC412A9C-9705-479E-8029-59547D621978";
name = "Regular Sep 25 16, 02:36";
paths = (
{
closed = 1;
nodes = (
"216 -60 LINE",
"308 62 LINE",
"400 0 OFFCURVE",
"496 -24 OFFCURVE",
"602 -24 CURVE SMOOTH",
"602 -24 LINE",
"1020 -24 OFFCURVE",
"1368 330 OFFCURVE",
"1368 840 CURVE SMOOTH",
"1368 998 OFFCURVE",
"1328 1148 OFFCURVE",
"1256 1254 CURVE",
"1402 1432 LINE",
"1212 1432 LINE",
"1144 1344 LINE",
"1054 1404 OFFCURVE",
"962 1428 OFFCURVE",
"858 1428 CURVE SMOOTH",
"442 1428 OFFCURVE",
"94 1070 OFFCURVE",
"94 558 CURVE SMOOTH",
"94 406 OFFCURVE",
"130 258 OFFCURVE",
"198 150 CURVE",
"24 -60 LINE"
);
},
{
closed = 1;
nodes = (
"568 152 OFFCURVE",
"510 166 OFFCURVE",
"442 210 CURVE",
"1116 1096 LINE",
"1144 1034 OFFCURVE",
"1156 926 OFFCURVE",
"1156 848 CURVE SMOOTH",
"1156 480 OFFCURVE",
"966 152 OFFCURVE",
"634 152 CURVE SMOOTH"
);
},
{
closed = 1;
nodes = (
"318 400 OFFCURVE",
"308 498 OFFCURVE",
"308 574 CURVE SMOOTH",
"308 922 OFFCURVE",
"496 1250 OFFCURVE",
"826 1250 CURVE",
"892 1250 OFFCURVE",
"944 1236 OFFCURVE",
"1012 1194 CURVE",
"340 312 LINE"
);
}
);
width = 1422;
},
{
associatedMasterId = "D879A026-05F7-4E99-AC55-D533E46CE7AB";
background = {
paths = (
{
closed = 1;
nodes = (
"1074 -28 OFFCURVE",
"1440 328 OFFCURVE",
"1440 836 CURVE SMOOTH",
"1440 990 OFFCURVE",
"1400 1136 OFFCURVE",
"1332 1230 CURVE",
"1502 1432 LINE",
"1232 1432 LINE",
"1172 1360 LINE",
"1096 1404 OFFCURVE",
"1000 1428 OFFCURVE",
"890 1428 CURVE SMOOTH",
"450 1428 OFFCURVE",
"84 1072 OFFCURVE",
"84 562 CURVE SMOOTH",
"84 410 OFFCURVE",
"120 268 OFFCURVE",
"186 174 CURVE",
"-14 -62 LINE",
"256 -62 LINE",
"342 44 LINE",
"420 -2 OFFCURVE",
"520 -28 OFFCURVE",
"634 -28 CURVE SMOOTH"
);
},
{
closed = 1;
nodes = (
"1134 1004 LINE",
"1150 956 OFFCURVE",
"1158 882 OFFCURVE",
"1158 816 CURVE SMOOTH",
"1158 490 OFFCURVE",
"984 218 OFFCURVE",
"676 218 CURVE SMOOTH",
"612 218 OFFCURVE",
"558 230 OFFCURVE",
"522 252 CURVE"
);
},
{
closed = 1;
nodes = (
"906 1182 OFFCURVE",
"958 1170 OFFCURVE",
"992 1150 CURVE",
"384 404 LINE",
"372 448 OFFCURVE",
"364 520 OFFCURVE",
"364 582 CURVE SMOOTH",
"364 910 OFFCURVE",
"540 1182 OFFCURVE",
"848 1182 CURVE SMOOTH"
);
}
);
};
layerId = "F1BD0304-0A78-4466-BF22-C02150065BB8";
name = "Bold Sep 25 16, 02:36";
paths = (
{
closed = 1;
nodes = (
"256 -62 LINE",
"342 44 LINE",
"420 -2 OFFCURVE",
"520 -28 OFFCURVE",
"634 -28 CURVE SMOOTH",
"634 -28 LINE",
"1074 -28 OFFCURVE",
"1440 328 OFFCURVE",
"1440 836 CURVE SMOOTH",
"1440 990 OFFCURVE",
"1400 1136 OFFCURVE",
"1332 1230 CURVE",
"1502 1432 LINE",
"1232 1432 LINE",
"1172 1360 LINE",
"1096 1404 OFFCURVE",
"1000 1428 OFFCURVE",
"890 1428 CURVE SMOOTH",
"450 1428 OFFCURVE",
"84 1072 OFFCURVE",
"84 562 CURVE SMOOTH",
"84 410 OFFCURVE",
"120 268 OFFCURVE",
"186 174 CURVE",
"-14 -62 LINE"
);
},
{
closed = 1;
nodes = (
"612 218 OFFCURVE",
"558 230 OFFCURVE",
"522 252 CURVE",
"1134 1004 LINE",
"1150 956 OFFCURVE",
"1158 882 OFFCURVE",
"1158 816 CURVE SMOOTH",
"1158 490 OFFCURVE",
"984 218 OFFCURVE",
"676 218 CURVE SMOOTH"
);
},
{
closed = 1;
nodes = (
"372 448 OFFCURVE",
"364 520 OFFCURVE",
"364 582 CURVE SMOOTH",
"364 910 OFFCURVE",
"540 1182 OFFCURVE",
"848 1182 CURVE",
"906 1182 OFFCURVE",
"958 1170 OFFCURVE",
"992 1150 CURVE",
"384 404 LINE"
);
}
);
visible = 1;
width = 1482;
}
);
leftKerningGroup = O;
rightKerningGroup = O;
unicode = 00D8;
},
{
glyphname = OE;
layers = (
{
anchors = (
{
name = top;
position = "{1194, 1400}";
}
);
layerId = UUID0;
paths = (
{
closed = 1;
nodes = (
"990 -28 OFFCURVE",
"1260 380 OFFCURVE",
"1260 842 CURVE SMOOTH",
"1260 1170 OFFCURVE",
"1108 1428 OFFCURVE",
"812 1428 CURVE SMOOTH",
"420 1428 OFFCURVE",
"92 1046 OFFCURVE",
"92 564 CURVE SMOOTH",
"92 192 OFFCURVE",
"280 -28 OFFCURVE",
"572 -28 CURVE SMOOTH"
);
},
{
closed = 1;
nodes = (
"394 144 OFFCURVE",
"302 332 OFFCURVE",
"302 576 CURVE SMOOTH",
"302 924 OFFCURVE",
"494 1256 OFFCURVE",
"798 1256 CURVE SMOOTH",
"1016 1256 OFFCURVE",
"1108 1070 OFFCURVE",
"1108 824 CURVE SMOOTH",
"1108 476 OFFCURVE",
"916 144 OFFCURVE",
"616 144 CURVE SMOOTH"
);
},
{
closed = 1;
nodes = (
"1774 0 LINE",
"1804 172 LINE",
"1198 172 LINE",
"1282 646 LINE",
"1746 646 LINE",
"1776 818 LINE",
"1312 818 LINE",
"1384 1228 LINE",
"1974 1228 LINE",
"2004 1400 LINE",
"1242 1400 LINE",
"996 0 LINE"
);
}
);
width = 1948;
},
{
anchors = (
{
name = top;
position = "{1241, 1400}";
}
);
layerId = "D879A026-05F7-4E99-AC55-D533E46CE7AB";
paths = (
{
closed = 1;
nodes = (
"1007 -28 OFFCURVE",
"1345 342 OFFCURVE",
"1345 842 CURVE SMOOTH",
"1345 1158 OFFCURVE",
"1139 1428 OFFCURVE",
"825 1428 CURVE SMOOTH",
"423 1428 OFFCURVE",
"85 1064 OFFCURVE",
"85 574 CURVE SMOOTH",
"85 184 OFFCURVE",
"305 -28 OFFCURVE",
"609 -28 CURVE SMOOTH"
);
},
{
closed = 1;
nodes = (
"467 218 OFFCURVE",
"367 364 OFFCURVE",
"367 596 CURVE SMOOTH",
"367 902 OFFCURVE",
"543 1182 OFFCURVE",
"839 1182 CURVE SMOOTH",
"1055 1182 OFFCURVE",
"1157 1044 OFFCURVE",
"1157 824 CURVE SMOOTH",
"1157 508 OFFCURVE",
"1001 218 OFFCURVE",
"679 218 CURVE SMOOTH"
);
},
{
closed = 1;
nodes = (
"1885 0 LINE",
"1929 248 LINE",
"1305 248 LINE",
"1369 606 LINE",
"1835 606 LINE",
"1879 854 LINE",
"1413 854 LINE",
"1465 1152 LINE",
"2069 1152 LINE",
"2113 1400 LINE",
"1281 1400 LINE",
"1035 0 LINE"
);
}
);
width = 2057;
},
{
anchors = (
{
name = top;
position = "{1186, 1400}";
}
);
associatedMasterId = UUID0;
background = {
paths = (
{
closed = 1;
nodes = (
"1776 0 LINE",
"1806 172 LINE",
"1240 172 LINE",
"1324 646 LINE",
"1746 646 LINE",
"1776 818 LINE",
"1354 818 LINE",
"1426 1228 LINE",
"1976 1228 LINE",
"2006 1398 LINE",
"1270 1398 LINE",
"1240 1234 LINE",
"1118 1378 OFFCURVE",
"998 1428 OFFCURVE",
"852 1428 CURVE SMOOTH",
"440 1428 OFFCURVE",
"94 1070 OFFCURVE",
"94 554 CURVE SMOOTH",
"94 200 OFFCURVE",
"290 -28 OFFCURVE",
"594 -28 CURVE SMOOTH",
"740 -28 OFFCURVE",
"878 22 OFFCURVE",
"1052 166 CURVE",
"1024 0 LINE"
);
},
{
closed = 1;
nodes = (
"1042 1256 OFFCURVE",
"1146 1076 OFFCURVE",
"1146 834 CURVE SMOOTH",
"1146 476 OFFCURVE",
"958 144 OFFCURVE",
"624 144 CURVE SMOOTH",
"400 144 OFFCURVE",
"298 324 OFFCURVE",
"298 566 CURVE SMOOTH",
"298 924 OFFCURVE",
"486 1256 OFFCURVE",
"820 1256 CURVE SMOOTH"
);
}
);
};
layerId = "23266A53-CEA2-4943-9C88-814BDA055DF9";
name = "Regular Sep 25 16, 02:44";
paths = (
{
closed = 1;
nodes = (
"740 -28 OFFCURVE",
"878 22 OFFCURVE",
"1052 166 CURVE",
"1024 0 LINE",
"1776 0 LINE",
"1806 172 LINE",
"1240 172 LINE",
"1324 646 LINE",
"1746 646 LINE",
"1776 818 LINE",
"1354 818 LINE",
"1426 1228 LINE",
"1976 1228 LINE",
"2006 1398 LINE",
"1270 1398 LINE",
"1240 1234 LINE",
"1118 1378 OFFCURVE",
"998 1428 OFFCURVE",
"852 1428 CURVE SMOOTH",
"440 1428 OFFCURVE",
"94 1070 OFFCURVE",
"94 554 CURVE SMOOTH",
"94 200 OFFCURVE",
"290 -28 OFFCURVE",
"594 -28 CURVE SMOOTH"
);
},
{
closed = 1;
nodes = (
"400 144 OFFCURVE",
"298 324 OFFCURVE",
"298 566 CURVE SMOOTH",
"298 924 OFFCURVE",
"486 1256 OFFCURVE",
"820 1256 CURVE",
"1042 1256 OFFCURVE",
"1146 1076 OFFCURVE",
"1146 834 CURVE SMOOTH",
"1146 476 OFFCURVE",
"958 144 OFFCURVE",
"624 144 CURVE SMOOTH"
);
}
);
width = 1950;
},
{
anchors = (
{
name = top;
position = "{1251, 1400}";
}
);
associatedMasterId = "D879A026-05F7-4E99-AC55-D533E46CE7AB";
background = {
paths = (
{
closed = 1;
nodes = (
"1884 0 LINE",
"1928 248 LINE",
"1346 248 LINE",
"1410 606 LINE",
"1844 606 LINE",
"1888 854 LINE",
"1454 854 LINE",
"1506 1152 LINE",
"2070 1152 LINE",
"2114 1400 LINE",
"1286 1400 LINE",
"1266 1290 LINE",
"1182 1378 OFFCURVE",
"1050 1428 OFFCURVE",
"892 1428 CURVE SMOOTH",
"450 1428 OFFCURVE",
"84 1072 OFFCURVE",
"84 564 CURVE SMOOTH",
"84 206 OFFCURVE",
"302 -28 OFFCURVE",
"636 -28 CURVE SMOOTH",
"794 -28 OFFCURVE",
"942 22 OFFCURVE",
"1058 110 CURVE",
"1038 0 LINE"
);
},
{
closed = 1;
nodes = (
"1060 1182 OFFCURVE",
"1160 1028 OFFCURVE",
"1160 812 CURVE SMOOTH",
"1160 490 OFFCURVE",
"984 218 OFFCURVE",
"678 218 CURVE SMOOTH",
"468 218 OFFCURVE",
"368 372 OFFCURVE",
"368 588 CURVE SMOOTH",
"368 910 OFFCURVE",
"542 1182 OFFCURVE",
"848 1182 CURVE SMOOTH"
);
}
);
};
layerId = "1D92D621-075D-4454-9766-B2763B6A52EB";
name = "Bold Sep 25 16, 02:44";
paths = (
{
closed = 1;
nodes = (
"794 -28 OFFCURVE",
"942 22 OFFCURVE",
"1058 110 CURVE",
"1038 0 LINE",
"1884 0 LINE",
"1928 248 LINE",
"1346 248 LINE",
"1410 606 LINE",
"1844 606 LINE",
"1888 854 LINE",
"1454 854 LINE",
"1506 1152 LINE",
"2070 1152 LINE",
"2114 1400 LINE",
"1286 1400 LINE",
"1266 1290 LINE",
"1182 1378 OFFCURVE",
"1050 1428 OFFCURVE",
"892 1428 CURVE SMOOTH",
"450 1428 OFFCURVE",
"84 1072 OFFCURVE",
"84 564 CURVE SMOOTH",
"84 206 OFFCURVE",
"302 -28 OFFCURVE",
"636 -28 CURVE SMOOTH"
);
},
{
closed = 1;
nodes = (
"468 218 OFFCURVE",
"368 372 OFFCURVE",
"368 588 CURVE SMOOTH",
"368 910 OFFCURVE",
"542 1182 OFFCURVE",
"848 1182 CURVE",
"1060 1182 OFFCURVE",
"1160 1028 OFFCURVE",
"1160 812 CURVE SMOOTH",
"1160 490 OFFCURVE",
"984 218 OFFCURVE",
"678 218 CURVE SMOOTH"
);
}
);
visible = 1;
width = 2058;
}
);
leftKerningGroup = O;
leftMetricsKey = O;
rightKerningGroup = E;
rightMetricsKey = E;
unicode = 0152;
},
{
glyphname = P;
layers = (
{
background = {
paths = (
{
closed = 1;
nodes = (
"596 490 LINE SMOOTH",
"794 490 OFFCURVE",
"1098 628 OFFCURVE",
"1098 1076 CURVE SMOOTH",
"1098 1352 OFFCURVE",
"926 1400 OFFCURVE",
"692 1400 CURVE SMOOTH",
"302 1400 LINE",
"56 0 LINE",
"252 0 LINE",
"338 490 LINE"
);
},
{
closed = 1;
nodes = (
"660 1230 LINE SMOOTH",
"832 1230 OFFCURVE",
"898 1176 OFFCURVE",
"898 1038 CURVE SMOOTH",
"898 832 OFFCURVE",
"824 660 OFFCURVE",
"594 660 CURVE SMOOTH",
"368 660 LINE",
"470 1230 LINE"
);
}
);
};
layerId = UUID0;
paths = (
{
closed = 1;
nodes = (
"252 0 LINE",
"338 490 LINE",
"596 490 LINE SMOOTH",
"844 490 OFFCURVE",
"1098 632 OFFCURVE",
"1098 1024 CURVE SMOOTH",
"1098 1286 OFFCURVE",
"964 1400 OFFCURVE",
"688 1400 CURVE SMOOTH",
"302 1400 LINE",
"56 0 LINE"
);
},
{
closed = 1;
nodes = (
"470 1230 LINE",
"684 1230 LINE SMOOTH",
"844 1230 OFFCURVE",
"898 1138 OFFCURVE",
"898 998 CURVE SMOOTH",
"898 808 OFFCURVE",
"794 660 OFFCURVE",
"594 660 CURVE SMOOTH",
"368 660 LINE"
);
}
);
width = 1076;
},
{
background = {
paths = (
{
closed = 1;
nodes = (
"620 460 LINE SMOOTH",
"838 460 OFFCURVE",
"1200 576 OFFCURVE",
"1200 1068 CURVE SMOOTH",
"1200 1352 OFFCURVE",
"1012 1400 OFFCURVE",
"670 1400 CURVE SMOOTH",
"298 1400 LINE",
"52 0 LINE",
"306 0 LINE",
"388 460 LINE"
);
},
{
closed = 1;
nodes = (
"716 1186 LINE SMOOTH",
"880 1186 OFFCURVE",
"934 1132 OFFCURVE",
"934 1020 CURVE SMOOTH",
"934 806 OFFCURVE",
"872 700 OFFCURVE",
"630 700 CURVE SMOOTH",
"430 700 LINE",
"516 1186 LINE"
);
}
);
};
layerId = "D879A026-05F7-4E99-AC55-D533E46CE7AB";
paths = (
{
closed = 1;
nodes = (
"306 0 LINE",
"388 460 LINE",
"620 460 LINE SMOOTH",
"960 460 OFFCURVE",
"1200 650 OFFCURVE",
"1200 1010 CURVE SMOOTH",
"1200 1248 OFFCURVE",
"1054 1400 OFFCURVE",
"774 1400 CURVE SMOOTH",
"298 1400 LINE",
"52 0 LINE"
);
},
{
closed = 1;
nodes = (
"516 1186 LINE",
"746 1186 LINE SMOOTH",
"878 1186 OFFCURVE",
"934 1120 OFFCURVE",
"934 990 CURVE SMOOTH",
"934 792 OFFCURVE",
"820 700 OFFCURVE",
"658 700 CURVE SMOOTH",
"430 700 LINE"
);
}
);
width = 1174;
},
{
associatedMasterId = "D879A026-05F7-4E99-AC55-D533E46CE7AB";
background = {
paths = (
{
closed = 1;
nodes = (
"620 460 LINE SMOOTH",
"838 460 OFFCURVE",
"1200 576 OFFCURVE",
"1200 1068 CURVE SMOOTH",
"1200 1352 OFFCURVE",
"1012 1400 OFFCURVE",
"670 1400 CURVE SMOOTH",
"298 1400 LINE",
"52 0 LINE",
"306 0 LINE",
"388 460 LINE"
);
},
{
closed = 1;
nodes = (
"716 1186 LINE SMOOTH",
"880 1186 OFFCURVE",
"934 1132 OFFCURVE",
"934 1020 CURVE SMOOTH",
"934 806 OFFCURVE",
"872 700 OFFCURVE",
"630 700 CURVE SMOOTH",
"430 700 LINE",
"516 1186 LINE"
);
}
);
};
layerId = "1013F805-A96C-4D4F-B156-24D5B8125D5B";
name = "Bold Sep 27 16, 03:10";
paths = (
{
closed = 1;
nodes = (
"306 0 LINE",
"388 460 LINE",
"620 460 LINE SMOOTH",
"838 460 OFFCURVE",
"1200 590 OFFCURVE",
"1200 1044 CURVE SMOOTH",
"1200 1352 OFFCURVE",
"1034 1400 OFFCURVE",
"670 1400 CURVE SMOOTH",
"298 1400 LINE",
"52 0 LINE"
);
},
{
closed = 1;
nodes = (
"516 1186 LINE",
"716 1186 LINE SMOOTH",
"910 1186 OFFCURVE",
"934 1112 OFFCURVE",
"934 998 CURVE SMOOTH",
"934 806 OFFCURVE",
"864 700 OFFCURVE",
"630 700 CURVE SMOOTH",
"430 700 LINE"
);
}
);
visible = 1;
width = 1174;
}
);
leftKerningGroup = I;
unicode = 0050;
},
{
glyphname = Thorn;
layers = (
{
background = {
paths = (
{
closed = 1;
nodes = (
"434 412 LINE SMOOTH",
"884 412 OFFCURVE",
"1048 538 OFFCURVE",
"1048 858 CURVE SMOOTH",
"1048 1076 OFFCURVE",
"882 1120 OFFCURVE",
"560 1120 CURVE SMOOTH",
"450 1120 LINE",
"498 1400 LINE",
"302 1400 LINE",
"56 0 LINE",
"252 0 LINE",
"324 412 LINE"
);
},
{
closed = 1;
nodes = (
"602 1006 LINE SMOOTH",
"776 1006 OFFCURVE",
"854 956 OFFCURVE",
"854 826 CURVE SMOOTH",
"854 640 OFFCURVE",
"766 522 OFFCURVE",
"516 522 CURVE SMOOTH",
"344 522 LINE",
"430 1006 LINE"
);
}
);
};
layerId = UUID0;
paths = (
{
closed = 1;
nodes = (
"236 0 LINE",
"304 382 LINE",
"574 382 LINE SMOOTH",
"864 382 OFFCURVE",
"1054 538 OFFCURVE",
"1054 798 CURVE SMOOTH",
"1054 982 OFFCURVE",
"932 1090 OFFCURVE",
"698 1090 CURVE SMOOTH",
"428 1090 LINE",
"484 1400 LINE",
"288 1400 LINE",
"40 0 LINE"
);
},
{
closed = 1;
nodes = (
"398 920 LINE",
"654 920 LINE SMOOTH",
"786 920 OFFCURVE",
"854 866 OFFCURVE",
"854 766 CURVE SMOOTH",
"854 630 OFFCURVE",
"756 552 OFFCURVE",
"590 552 CURVE SMOOTH",
"334 552 LINE"
);
}
);
width = 1034;
},
{
background = {
paths = (
{
closed = 1;
nodes = (
"456 386 LINE SMOOTH",
"888 386 OFFCURVE",
"1100 504 OFFCURVE",
"1100 854 CURVE SMOOTH",
"1100 1098 OFFCURVE",
"904 1138 OFFCURVE",
"588 1138 CURVE SMOOTH",
"508 1138 LINE",
"554 1400 LINE",
"298 1400 LINE",
"52 0 LINE",
"306 0 LINE",
"374 386 LINE"
);
},
{
closed = 1;
nodes = (
"616 942 LINE SMOOTH",
"780 942 OFFCURVE",
"834 902 OFFCURVE",
"834 810 CURVE SMOOTH",
"834 684 OFFCURVE",
"794 578 OFFCURVE",
"552 578 CURVE SMOOTH",
"408 578 LINE",
"472 942 LINE"
);
}
);
};
layerId = "D879A026-05F7-4E99-AC55-D533E46CE7AB";
paths = (
{
closed = 1;
nodes = (
"286 0 LINE",
"344 330 LINE",
"568 330 LINE SMOOTH",
"886 330 OFFCURVE",
"1094 500 OFFCURVE",
"1094 790 CURVE SMOOTH",
"1094 992 OFFCURVE",
"962 1110 OFFCURVE",
"706 1110 CURVE SMOOTH",
"482 1110 LINE",
"534 1400 LINE",
"280 1400 LINE",
"32 0 LINE"
);
},
{
closed = 1;
nodes = (
"444 896 LINE",
"636 896 LINE SMOOTH",
"772 896 OFFCURVE",
"828 848 OFFCURVE",
"828 752 CURVE SMOOTH",
"828 616 OFFCURVE",
"744 544 OFFCURVE",
"574 544 CURVE SMOOTH",
"382 544 LINE"
);
}
);
width = 1074;
},
{
associatedMasterId = UUID0;
background = {
paths = (
{
closed = 1;
nodes = (
"434 412 LINE SMOOTH",
"884 412 OFFCURVE",
"1048 538 OFFCURVE",
"1048 858 CURVE SMOOTH",
"1048 1076 OFFCURVE",
"882 1120 OFFCURVE",
"560 1120 CURVE SMOOTH",
"450 1120 LINE",
"498 1400 LINE",
"302 1400 LINE",
"56 0 LINE",
"252 0 LINE",
"324 412 LINE"
);
},
{
closed = 1;
nodes = (
"602 1006 LINE SMOOTH",
"776 1006 OFFCURVE",
"854 956 OFFCURVE",
"854 826 CURVE SMOOTH",
"854 640 OFFCURVE",
"766 522 OFFCURVE",
"516 522 CURVE SMOOTH",
"344 522 LINE",
"430 1006 LINE"
);
}
);
};
layerId = "7101C012-EE9D-4D8C-8E9A-0C0D484B756B";
name = "Regular Sep 25 16, 03:57";
paths = (
{
closed = 1;
nodes = (
"252 0 LINE",
"324 412 LINE",
"434 412 LINE SMOOTH",
"884 412 OFFCURVE",
"1048 538 OFFCURVE",
"1048 858 CURVE SMOOTH",
"1048 1076 OFFCURVE",
"882 1120 OFFCURVE",
"560 1120 CURVE SMOOTH",
"450 1120 LINE",
"498 1400 LINE",
"302 1400 LINE",
"56 0 LINE"
);
},
{
closed = 1;
nodes = (
"430 1006 LINE",
"602 1006 LINE SMOOTH",
"776 1006 OFFCURVE",
"854 956 OFFCURVE",
"854 826 CURVE SMOOTH",
"854 640 OFFCURVE",
"766 522 OFFCURVE",
"516 522 CURVE SMOOTH",
"344 522 LINE"
);
}
);
width = 1050;
},
{
associatedMasterId = "D879A026-05F7-4E99-AC55-D533E46CE7AB";
background = {
paths = (
{
closed = 1;
nodes = (
"456 386 LINE SMOOTH",
"888 386 OFFCURVE",
"1100 504 OFFCURVE",
"1100 854 CURVE SMOOTH",
"1100 1098 OFFCURVE",
"904 1138 OFFCURVE",
"588 1138 CURVE SMOOTH",
"508 1138 LINE",
"554 1400 LINE",
"298 1400 LINE",
"52 0 LINE",
"306 0 LINE",
"374 386 LINE"
);
},
{
closed = 1;
nodes = (
"616 942 LINE SMOOTH",
"780 942 OFFCURVE",
"834 902 OFFCURVE",
"834 810 CURVE SMOOTH",
"834 684 OFFCURVE",
"794 578 OFFCURVE",
"552 578 CURVE SMOOTH",
"408 578 LINE",
"472 942 LINE"
);
}
);
};
layerId = "069A781F-1C14-46E6-AFD8-9181E29ECD2B";
name = "Bold Sep 25 16, 03:57";
paths = (
{
closed = 1;
nodes = (
"306 0 LINE",
"374 386 LINE",
"456 386 LINE SMOOTH",
"888 386 OFFCURVE",
"1100 504 OFFCURVE",
"1100 854 CURVE SMOOTH",
"1100 1098 OFFCURVE",
"904 1138 OFFCURVE",
"588 1138 CURVE SMOOTH",
"508 1138 LINE",
"554 1400 LINE",
"298 1400 LINE",
"52 0 LINE"
);
},
{
closed = 1;
nodes = (
"472 942 LINE",
"616 942 LINE SMOOTH",
"780 942 OFFCURVE",
"834 902 OFFCURVE",
"834 810 CURVE SMOOTH",
"834 684 OFFCURVE",
"794 578 OFFCURVE",
"552 578 CURVE SMOOTH",
"408 578 LINE"
);
}
);
visible = 1;
width = 1100;
}
);
leftKerningGroup = I;
unicode = 00DE;
},
{
glyphname = Q;
layers = (
{
background = {
paths = (
{
closed = 1;
nodes = (
"1232 124 LINE",
"1140 222 LINE",
"1298 438 OFFCURVE",
"1366 624 OFFCURVE",
"1366 846 CURVE SMOOTH",
"1366 1200 OFFCURVE",
"1168 1428 OFFCURVE",
"858 1428 CURVE SMOOTH",
"440 1428 OFFCURVE",
"92 1070 OFFCURVE",
"92 554 CURVE SMOOTH",
"92 200 OFFCURVE",
"292 -28 OFFCURVE",
"600 -28 CURVE SMOOTH",
"740 -28 OFFCURVE",
"874 16 OFFCURVE",
"1006 114 CURVE",
"1106 6 LINE"
);
},
{
closed = 1;
nodes = (
"1058 1256 OFFCURVE",
"1168 1070 OFFCURVE",
"1168 826 CURVE SMOOTH",
"1168 588 OFFCURVE",
"1108 482 OFFCURVE",
"1018 344 CURVE",
"868 514 LINE",
"742 392 LINE",
"892 224 LINE",
"808 158 OFFCURVE",
"708 144 OFFCURVE",
"632 144 CURVE SMOOTH",
"404 144 OFFCURVE",
"302 326 OFFCURVE",
"302 568 CURVE SMOOTH",
"302 924 OFFCURVE",
"492 1256 OFFCURVE",
"828 1256 CURVE SMOOTH"
);
}
);
};
layerId = UUID0;
paths = (
{
closed = 1;
nodes = (
"740 -28 OFFCURVE",
"874 16 OFFCURVE",
"1006 114 CURVE",
"1106 6 LINE",
"1232 124 LINE",
"1140 222 LINE",
"1298 438 OFFCURVE",
"1366 626 OFFCURVE",
"1366 840 CURVE SMOOTH",
"1366 1200 OFFCURVE",
"1174 1428 OFFCURVE",
"850 1428 CURVE SMOOTH",
"440 1428 OFFCURVE",
"92 1060 OFFCURVE",
"92 566 CURVE SMOOTH",
"92 192 OFFCURVE",
"292 -28 OFFCURVE",
"602 -28 CURVE SMOOTH"
);
},
{
closed = 1;
nodes = (
"400 144 OFFCURVE",
"302 324 OFFCURVE",
"302 572 CURVE SMOOTH",
"302 922 OFFCURVE",
"496 1256 OFFCURVE",
"822 1256 CURVE SMOOTH",
"822 1256 LINE",
"1058 1256 OFFCURVE",
"1168 1082 OFFCURVE",
"1168 808 CURVE SMOOTH",
"1168 582 OFFCURVE",
"1094 460 OFFCURVE",
"1018 344 CURVE",
"868 514 LINE",
"742 392 LINE",
"892 224 LINE",
"808 158 OFFCURVE",
"706 144 OFFCURVE",
"640 144 CURVE SMOOTH"
);
}
);
width = 1418;
},
{
background = {
paths = (
{
closed = 1;
nodes = (
"1332 158 LINE",
"1232 260 LINE",
"1354 420 OFFCURVE",
"1440 610 OFFCURVE",
"1440 836 CURVE SMOOTH",
"1440 1194 OFFCURVE",
"1224 1428 OFFCURVE",
"890 1428 CURVE SMOOTH",
"450 1428 OFFCURVE",
"84 1072 OFFCURVE",
"84 564 CURVE SMOOTH",
"84 206 OFFCURVE",
"300 -28 OFFCURVE",
"634 -28 CURVE SMOOTH",
"780 -28 OFFCURVE",
"922 14 OFFCURVE",
"1038 94 CURVE",
"1152 -20 LINE"
);
},
{
closed = 1;
nodes = (
"1056 1182 OFFCURVE",
"1154 1028 OFFCURVE",
"1154 814 CURVE SMOOTH",
"1154 664 OFFCURVE",
"1106 542 OFFCURVE",
"1048 436 CURVE",
"912 584 LINE",
"730 406 LINE",
"860 264 LINE",
"808 234 OFFCURVE",
"750 218 OFFCURVE",
"676 218 CURVE SMOOTH",
"466 218 OFFCURVE",
"366 372 OFFCURVE",
"366 588 CURVE SMOOTH",
"366 910 OFFCURVE",
"540 1182 OFFCURVE",
"846 1182 CURVE SMOOTH"
);
}
);
};
layerId = "D879A026-05F7-4E99-AC55-D533E46CE7AB";
paths = (
{
closed = 1;
nodes = (
"780 -28 OFFCURVE",
"922 14 OFFCURVE",
"1038 94 CURVE",
"1152 -20 LINE",
"1332 158 LINE",
"1232 260 LINE",
"1354 420 OFFCURVE",
"1440 610 OFFCURVE",
"1440 836 CURVE SMOOTH",
"1440 1194 OFFCURVE",
"1228 1428 OFFCURVE",
"882 1428 CURVE SMOOTH",
"450 1428 OFFCURVE",
"84 1062 OFFCURVE",
"84 574 CURVE SMOOTH",
"84 200 OFFCURVE",
"300 -28 OFFCURVE",
"636 -28 CURVE SMOOTH"
);
},
{
closed = 1;
nodes = (
"466 218 OFFCURVE",
"366 366 OFFCURVE",
"366 598 CURVE SMOOTH",
"366 906 OFFCURVE",
"544 1182 OFFCURVE",
"840 1182 CURVE SMOOTH",
"840 1182 LINE",
"1060 1182 OFFCURVE",
"1154 1028 OFFCURVE",
"1154 816 CURVE SMOOTH",
"1154 664 OFFCURVE",
"1106 542 OFFCURVE",
"1048 436 CURVE",
"912 584 LINE",
"730 406 LINE",
"860 264 LINE",
"808 234 OFFCURVE",
"748 218 OFFCURVE",
"678 218 CURVE SMOOTH"
);
}
);
width = 1484;
}
);
leftKerningGroup = O;
rightKerningGroup = O;
unicode = 0051;
},
{
glyphname = R;
layers = (
{
anchors = (
{
name = bottom;
position = "{516, 0}";
},
{
name = top;
position = "{752, 1400}";
}
);
background = {
paths = (
{
closed = 1;
nodes = (
"982 0 LINE",
"796 596 LINE",
"972 686 OFFCURVE",
"1102 858 OFFCURVE",
"1102 1084 CURVE SMOOTH",
"1102 1322 OFFCURVE",
"950 1400 OFFCURVE",
"728 1400 CURVE SMOOTH",
"302 1400 LINE",
"56 0 LINE",
"252 0 LINE",
"348 546 LINE",
"604 546 LINE",
"780 0 LINE"
);
},
{
closed = 1;
nodes = (
"684 1246 LINE SMOOTH",
"834 1246 OFFCURVE",
"900 1172 OFFCURVE",
"900 1050 CURVE SMOOTH",
"900 818 OFFCURVE",
"778 730 OFFCURVE",
"620 730 CURVE SMOOTH",
"380 730 LINE",
"472 1246 LINE"
);
}
);
};
layerId = UUID0;
paths = (
{
closed = 1;
nodes = (
"252 0 LINE",
"348 546 LINE",
"604 546 LINE",
"780 0 LINE",
"982 0 LINE",
"796 596 LINE",
"966 652 OFFCURVE",
"1102 810 OFFCURVE",
"1102 1046 CURVE SMOOTH",
"1102 1274 OFFCURVE",
"968 1400 OFFCURVE",
"692 1400 CURVE SMOOTH",
"302 1400 LINE",
"56 0 LINE"
);
},
{
closed = 1;
nodes = (
"472 1246 LINE",
"684 1246 LINE SMOOTH",
"842 1246 OFFCURVE",
"900 1172 OFFCURVE",
"900 1032 CURVE SMOOTH",
"900 828 OFFCURVE",
"778 730 OFFCURVE",
"620 730 CURVE SMOOTH",
"380 730 LINE"
);
}
);
width = 1130;
},
{
anchors = (
{
name = bottom;
position = "{566, 0}";
},
{
name = top;
position = "{768, 1400}";
}
);
background = {
paths = (
{
closed = 1;
nodes = (
"1092 0 LINE",
"892 588 LINE",
"1058 686 OFFCURVE",
"1200 816 OFFCURVE",
"1200 1076 CURVE SMOOTH",
"1200 1316 OFFCURVE",
"1026 1400 OFFCURVE",
"800 1400 CURVE SMOOTH",
"298 1400 LINE",
"52 0 LINE",
"306 0 LINE",
"398 520 LINE",
"642 520 LINE",
"826 0 LINE"
);
},
{
closed = 1;
nodes = (
"698 1186 LINE SMOOTH",
"874 1186 OFFCURVE",
"926 1128 OFFCURVE",
"926 1032 CURVE SMOOTH",
"926 852 OFFCURVE",
"846 760 OFFCURVE",
"604 760 CURVE SMOOTH",
"440 760 LINE",
"516 1186 LINE"
);
}
);
};
layerId = "D879A026-05F7-4E99-AC55-D533E46CE7AB";
paths = (
{
closed = 1;
nodes = (
"306 0 LINE",
"398 520 LINE",
"642 520 LINE",
"826 0 LINE",
"1092 0 LINE",
"892 588 LINE",
"1052 676 OFFCURVE",
"1200 812 OFFCURVE",
"1200 1042 CURVE SMOOTH",
"1200 1296 OFFCURVE",
"1026 1400 OFFCURVE",
"760 1400 CURVE SMOOTH",
"298 1400 LINE",
"52 0 LINE"
);
},
{
closed = 1;
nodes = (
"516 1186 LINE",
"734 1186 LINE SMOOTH",
"874 1186 OFFCURVE",
"926 1120 OFFCURVE",
"926 1018 CURVE SMOOTH",
"926 852 OFFCURVE",
"798 760 OFFCURVE",
"640 760 CURVE SMOOTH",
"440 760 LINE"
);
}
);
width = 1226;
}
);
leftKerningGroup = I;
unicode = 0052;
},
{
glyphname = S;
layers = (
{
anchors = (
{
name = bottom;
position = "{464, 0}";
},
{
name = top;
position = "{682, 1400}";
}
);
background = {
paths = (
{
closed = 1;
nodes = (
"842 -28 OFFCURVE",
"976 214 OFFCURVE",
"976 432 CURVE SMOOTH",
"976 678 OFFCURVE",
"774 748 OFFCURVE",
"594 816 CURVE SMOOTH",
"468 864 OFFCURVE",
"366 912 OFFCURVE",
"366 1022 CURVE SMOOTH",
"366 1188 OFFCURVE",
"542 1256 OFFCURVE",
"672 1256 CURVE SMOOTH",
"796 1256 OFFCURVE",
"898 1198 OFFCURVE",
"1014 1130 CURVE",
"1068 1332 LINE",
"1006 1376 OFFCURVE",
"854 1428 OFFCURVE",
"688 1428 CURVE SMOOTH",
"298 1428 OFFCURVE",
"156 1148 OFFCURVE",
"156 970 CURVE SMOOTH",
"156 774 OFFCURVE",
"326 708 OFFCURVE",
"494 642 CURVE SMOOTH",
"640 584 OFFCURVE",
"762 526 OFFCURVE",
"762 394 CURVE SMOOTH",
"762 214 OFFCURVE",
"610 144 OFFCURVE",
"444 144 CURVE SMOOTH",
"268 144 OFFCURVE",
"142 216 OFFCURVE",
"76 284 CURVE",
"12 62 LINE",
"80 16 OFFCURVE",
"222 -28 OFFCURVE",
"410 -28 CURVE SMOOTH"
);
}
);
};
layerId = UUID0;
paths = (
{
closed = 1;
nodes = (
"842 -28 OFFCURVE",
"976 216 OFFCURVE",
"976 426 CURVE SMOOTH",
"976 684 OFFCURVE",
"774 746 OFFCURVE",
"594 816 CURVE SMOOTH",
"454 870 OFFCURVE",
"366 914 OFFCURVE",
"366 1026 CURVE SMOOTH",
"366 1186 OFFCURVE",
"542 1256 OFFCURVE",
"674 1256 CURVE SMOOTH",
"808 1256 OFFCURVE",
"906 1212 OFFCURVE",
"1014 1130 CURVE",
"1068 1332 LINE",
"988 1378 OFFCURVE",
"854 1428 OFFCURVE",
"688 1428 CURVE SMOOTH",
"298 1428 OFFCURVE",
"156 1148 OFFCURVE",
"156 970 CURVE SMOOTH",
"156 764 OFFCURVE",
"346 702 OFFCURVE",
"494 642 CURVE SMOOTH",
"642 582 OFFCURVE",
"762 532 OFFCURVE",
"762 384 CURVE SMOOTH",
"762 218 OFFCURVE",
"610 144 OFFCURVE",
"438 144 CURVE SMOOTH",
"274 144 OFFCURVE",
"152 218 OFFCURVE",
"76 284 CURVE",
"12 62 LINE",
"80 16 OFFCURVE",
"224 -28 OFFCURVE",
"408 -28 CURVE SMOOTH"
);
}
);
width = 1076;
},
{
anchors = (
{
name = bottom;
position = "{488, 0}";
},
{
name = top;
position = "{717, 1400}";
}
);
background = {
paths = (
{
closed = 1;
nodes = (
"890 -28 OFFCURVE",
"1038 220 OFFCURVE",
"1038 448 CURVE SMOOTH",
"1038 700 OFFCURVE",
"824 774 OFFCURVE",
"650 834 CURVE SMOOTH",
"524 876 OFFCURVE",
"416 918 OFFCURVE",
"416 1016 CURVE SMOOTH",
"416 1152 OFFCURVE",
"576 1184 OFFCURVE",
"682 1184 CURVE SMOOTH",
"808 1184 OFFCURVE",
"922 1140 OFFCURVE",
"1054 1058 CURVE",
"1126 1320 LINE",
"1066 1368 OFFCURVE",
"902 1428 OFFCURVE",
"716 1428 CURVE SMOOTH",
"308 1428 OFFCURVE",
"150 1146 OFFCURVE",
"150 952 CURVE SMOOTH",
"150 748 OFFCURVE",
"322 682 OFFCURVE",
"478 620 CURVE SMOOTH",
"614 566 OFFCURVE",
"744 518 OFFCURVE",
"744 396 CURVE SMOOTH",
"744 264 OFFCURVE",
"648 218 OFFCURVE",
"488 218 CURVE SMOOTH",
"284 218 OFFCURVE",
"148 292 OFFCURVE",
"90 366 CURVE",
"10 74 LINE",
"76 22 OFFCURVE",
"234 -28 OFFCURVE",
"438 -28 CURVE SMOOTH"
);
}
);
};
layerId = "D879A026-05F7-4E99-AC55-D533E46CE7AB";
paths = (
{
closed = 1;
nodes = (
"894 -28 OFFCURVE",
"1038 222 OFFCURVE",
"1038 442 CURVE SMOOTH",
"1038 698 OFFCURVE",
"836 770 OFFCURVE",
"650 834 CURVE SMOOTH",
"514 880 OFFCURVE",
"416 918 OFFCURVE",
"416 1020 CURVE SMOOTH",
"416 1140 OFFCURVE",
"528 1184 OFFCURVE",
"666 1184 CURVE SMOOTH",
"808 1184 OFFCURVE",
"916 1140 OFFCURVE",
"1054 1058 CURVE",
"1126 1320 LINE",
"1046 1368 OFFCURVE",
"886 1428 OFFCURVE",
"686 1428 CURVE SMOOTH",
"362 1428 OFFCURVE",
"150 1244 OFFCURVE",
"150 992 CURVE SMOOTH",
"150 776 OFFCURVE",
"266 694 OFFCURVE",
"478 620 CURVE SMOOTH",
"660 556 OFFCURVE",
"744 508 OFFCURVE",
"744 388 CURVE SMOOTH",
"744 264 OFFCURVE",
"644 218 OFFCURVE",
"486 218 CURVE SMOOTH",
"308 218 OFFCURVE",
"174 292 OFFCURVE",
"90 366 CURVE",
"10 74 LINE",
"116 20 OFFCURVE",
"264 -28 OFFCURVE",
"456 -28 CURVE SMOOTH"
);
}
);
width = 1132;
}
);
leftKerningGroup = S;
rightKerningGroup = S;
unicode = 0053;
},
{
glyphname = Germandbls;
layers = (
{
layerId = UUID0;
paths = (
{
closed = 1;
nodes = (
"238 0 LINE",
"410 974 LINE SMOOTH",
"444 1168 OFFCURVE",
"574 1256 OFFCURVE",
"750 1256 CURVE SMOOTH",
"850 1256 OFFCURVE",
"922 1236 OFFCURVE",
"988 1204 CURVE",
"996 1306 LINE",
"604 808 LINE",
"578 668 LINE",
"606 666 LINE SMOOTH",
"762 654 OFFCURVE",
"862 580 OFFCURVE",
"862 428 CURVE SMOOTH",
"862 260 OFFCURVE",
"754 144 OFFCURVE",
"576 144 CURVE SMOOTH",
"520 144 OFFCURVE",
"470 154 OFFCURVE",
"426 170 CURVE",
"392 0 LINE",
"444 -16 OFFCURVE",
"508 -28 OFFCURVE",
"572 -28 CURVE SMOOTH",
"870 -28 OFFCURVE",
"1070 174 OFFCURVE",
"1070 442 CURVE SMOOTH",
"1070 668 OFFCURVE",
"914 806 OFFCURVE",
"676 806 CURVE",
"748 722 LINE",
"1100 1174 LINE",
"1132 1326 LINE",
"1036 1384 OFFCURVE",
"904 1428 OFFCURVE",
"750 1428 CURVE SMOOTH",
"482 1428 OFFCURVE",
"274 1290 OFFCURVE",
"220 970 CURVE SMOOTH",
"48 0 LINE"
);
}
);
width = 1152;
},
{
layerId = "D879A026-05F7-4E99-AC55-D533E46CE7AB";
paths = (
{
closed = 1;
nodes = (
"292 0 LINE",
"444 860 LINE SMOOTH",
"486 1092 OFFCURVE",
"618 1194 OFFCURVE",
"804 1194 CURVE SMOOTH",
"904 1194 OFFCURVE",
"976 1172 OFFCURVE",
"1042 1138 CURVE",
"1062 1296 LINE",
"658 828 LINE",
"620 628 LINE",
"660 626 LINE SMOOTH",
"794 620 OFFCURVE",
"876 558 OFFCURVE",
"876 432 CURVE SMOOTH",
"876 288 OFFCURVE",
"770 218 OFFCURVE",
"642 218 CURVE SMOOTH",
"584 218 OFFCURVE",
"528 228 OFFCURVE",
"488 240 CURVE",
"446 0 LINE",
"508 -16 OFFCURVE",
"594 -28 OFFCURVE",
"664 -28 CURVE SMOOTH",
"940 -28 OFFCURVE",
"1160 140 OFFCURVE",
"1160 438 CURVE SMOOTH",
"1160 670 OFFCURVE",
"996 808 OFFCURVE",
"730 826 CURVE",
"850 722 LINE",
"1184 1118 LINE",
"1230 1326 LINE",
"1124 1382 OFFCURVE",
"980 1428 OFFCURVE",
"812 1428 CURVE SMOOTH",
"502 1428 OFFCURVE",
"262 1276 OFFCURVE",
"200 924 CURVE SMOOTH",
"36 0 LINE"
);
}
);
width = 1254;
},
{
associatedMasterId = UUID0;
layerId = "97A5B972-51F4-41F6-B172-611EB88E57D0";
name = "Regular Sep 25 16, 02:53";
paths = (
{
closed = 1;
nodes = (
"192 0 LINE",
"366 986 LINE SMOOTH",
"396 1154 OFFCURVE",
"518 1256 OFFCURVE",
"680 1256 CURVE SMOOTH",
"782 1256 OFFCURVE",
"854 1232 OFFCURVE",
"900 1206 CURVE",
"924 1302 LINE",
"522 816 LINE",
"496 670 LINE",
"524 670 LINE SMOOTH",
"706 670 OFFCURVE",
"782 572 OFFCURVE",
"750 398 CURVE SMOOTH",
"722 238 OFFCURVE",
"622 140 OFFCURVE",
"490 140 CURVE SMOOTH",
"432 140 OFFCURVE",
"380 148 OFFCURVE",
"332 166 CURVE",
"302 0 LINE",
"354 -16 OFFCURVE",
"416 -28 OFFCURVE",
"478 -28 CURVE SMOOTH",
"686 -28 OFFCURVE",
"902 104 OFFCURVE",
"952 384 CURVE SMOOTH",
"1002 662 OFFCURVE",
"864 798 OFFCURVE",
"594 814 CURVE",
"654 730 LINE",
"1018 1176 LINE",
"1044 1322 LINE",
"970 1384 OFFCURVE",
"856 1428 OFFCURVE",
"710 1428 CURVE SMOOTH",
"444 1428 OFFCURVE",
"234 1282 OFFCURVE",
"182 982 CURVE SMOOTH",
"8 0 LINE"
);
}
);
visible = 1;
width = 1200;
}
);
unicode = 1E9E;
},
{
glyphname = Schwa;
layers = (
{
layerId = UUID0;
paths = (
{
closed = 1;
nodes = (
"890 144 OFFCURVE",
"564 144 CURVE SMOOTH",
"356 144 OFFCURVE",
"262 254 OFFCURVE",
"260 434 CURVE SMOOTH",
"260 466 OFFCURVE",
"264 498 OFFCURVE",
"270 534 CURVE",
"1160 534 LINE",
"1190 702 LINE",
"104 702 LINE",
"78 632 OFFCURVE",
"56 520 OFFCURVE",
"56 434 CURVE SMOOTH",
"56 138 OFFCURVE",
"244 -28 OFFCURVE",
"528 -28 CURVE SMOOTH",
"970 -28 OFFCURVE",
"1284 386 OFFCURVE",
"1284 864 CURVE SMOOTH",
"1284 1216 OFFCURVE",
"1092 1428 OFFCURVE",
"758 1428 CURVE SMOOTH",
"576 1428 OFFCURVE",
"404 1384 OFFCURVE",
"262 1322 CURVE",
"270 1162 LINE",
"412 1216 OFFCURVE",
"558 1256 OFFCURVE",
"706 1256 CURVE SMOOTH",
"950 1256 OFFCURVE",
"1076 1102 OFFCURVE",
"1076 842 CURVE SMOOTH",
"1076 484 OFFCURVE"
);
}
);
width = 1335;
},
{
layerId = "D879A026-05F7-4E99-AC55-D533E46CE7AB";
paths = (
{
closed = 1;
nodes = (
"914 218 OFFCURVE",
"614 218 CURVE SMOOTH",
"416 218 OFFCURVE",
"326 330 OFFCURVE",
"326 482 CURVE SMOOTH",
"326 496 OFFCURVE",
"326 510 OFFCURVE",
"328 524 CURVE",
"1194 524 LINE",
"1236 752 LINE",
"114 752 LINE",
"78 672 OFFCURVE",
"56 560 OFFCURVE",
"56 472 CURVE SMOOTH",
"56 164 OFFCURVE",
"256 -28 OFFCURVE",
"580 -28 CURVE SMOOTH",
"1028 -28 OFFCURVE",
"1356 380 OFFCURVE",
"1356 846 CURVE SMOOTH",
"1356 1182 OFFCURVE",
"1158 1428 OFFCURVE",
"774 1428 CURVE SMOOTH",
"594 1428 OFFCURVE",
"418 1380 OFFCURVE",
"278 1310 CURVE",
"252 1070 LINE",
"394 1136 OFFCURVE",
"554 1182 OFFCURVE",
"708 1182 CURVE SMOOTH",
"950 1182 OFFCURVE",
"1076 1046 OFFCURVE",
"1076 814 CURVE SMOOTH",
"1076 500 OFFCURVE"
);
}
);
width = 1398;
},
{
associatedMasterId = UUID0;
layerId = "2FE11290-3577-41B5-98FA-F409B56A7646";
name = "Regular Sep 25 16, 04:49";
paths = (
{
closed = 1;
nodes = (
"1048 350 OFFCURVE",
"844 144 OFFCURVE",
"572 144 CURVE SMOOTH",
"296 144 OFFCURVE",
"196 296 OFFCURVE",
"238 534 CURVE",
"1168 534 LINE",
"1198 702 LINE",
"72 702 LINE",
"54 652 OFFCURVE",
"44 604 OFFCURVE",
"36 564 CURVE SMOOTH",
"-30 186 OFFCURVE",
"186 -28 OFFCURVE",
"536 -28 CURVE SMOOTH",
"950 -28 OFFCURVE",
"1246 294 OFFCURVE",
"1314 680 CURVE SMOOTH",
"1396 1142 OFFCURVE",
"1184 1428 OFFCURVE",
"766 1428 CURVE SMOOTH",
"570 1428 OFFCURVE",
"384 1378 OFFCURVE",
"230 1310 CURVE",
"238 1150 LINE",
"392 1212 OFFCURVE",
"552 1256 OFFCURVE",
"714 1256 CURVE SMOOTH",
"1034 1256 OFFCURVE",
"1170 1040 OFFCURVE",
"1108 684 CURVE SMOOTH"
);
}
);
width = 1200;
},
{
associatedMasterId = "D879A026-05F7-4E99-AC55-D533E46CE7AB";
layerId = "D6E199C9-DC46-4864-B874-86E77C055392";
name = "Bold Sep 25 16, 04:53";
paths = (
{
closed = 1;
nodes = (
"1020 376 OFFCURVE",
"846 218 OFFCURVE",
"606 218 CURVE SMOOTH",
"382 218 OFFCURVE",
"290 352 OFFCURVE",
"308 524 CURVE",
"1186 524 LINE",
"1228 752 LINE",
"86 752 LINE",
"62 694 OFFCURVE",
"48 636 OFFCURVE",
"40 588 CURVE SMOOTH",
"-26 214 OFFCURVE",
"182 -28 OFFCURVE",
"554 -28 CURVE SMOOTH",
"980 -28 OFFCURVE",
"1284 280 OFFCURVE",
"1354 680 CURVE SMOOTH",
"1428 1100 OFFCURVE",
"1226 1428 OFFCURVE",
"766 1428 CURVE SMOOTH",
"578 1428 OFFCURVE",
"396 1380 OFFCURVE",
"250 1310 CURVE",
"224 1070 LINE",
"372 1136 OFFCURVE",
"538 1182 OFFCURVE",
"700 1182 CURVE SMOOTH",
"1000 1182 OFFCURVE",
"1130 994 OFFCURVE",
"1076 684 CURVE SMOOTH"
);
}
);
visible = 1;
width = 1200;
}
);
rightMetricsKey = O;
unicode = 018F;
},
{
glyphname = T;
layers = (
{
anchors = (
{
name = bottom;
position = "{418, 0}";
},
{
name = top;
position = "{664, 1400}";
}
);
background = {
paths = (
{
closed = 1;
nodes = (
"1092 1228 LINE",
"1122 1400 LINE",
"204 1400 LINE",
"174 1228 LINE",
"538 1228 LINE",
"322 0 LINE",
"512 0 LINE",
"728 1228 LINE"
);
}
);
};
layerId = UUID0;
paths = (
{
closed = 1;
nodes = (
"512 0 LINE",
"728 1228 LINE",
"1092 1228 LINE",
"1122 1400 LINE",
"204 1400 LINE",
"174 1228 LINE",
"538 1228 LINE",
"322 0 LINE"
);
}
);
width = 1046;
},
{
anchors = (
{
name = bottom;
position = "{462, 0}";
},
{
name = top;
position = "{708, 1400}";
}
);
background = {
paths = (
{
closed = 1;
nodes = (
"1170 1152 LINE",
"1214 1400 LINE",
"202 1400 LINE",
"158 1152 LINE",
"536 1152 LINE",
"334 0 LINE",
"590 0 LINE",
"792 1152 LINE"
);
}
);
};
layerId = "D879A026-05F7-4E99-AC55-D533E46CE7AB";
paths = (
{
closed = 1;
nodes = (
"590 0 LINE",
"792 1152 LINE",
"1170 1152 LINE",
"1214 1400 LINE",
"202 1400 LINE",
"158 1152 LINE",
"536 1152 LINE",
"334 0 LINE"
);
}
);
width = 1128;
}
);
unicode = 0054;
},
{
glyphname = Tbar;
layers = (
{
components = (
{
name = T;
}
);
layerId = UUID0;
paths = (
{
closed = 1;
nodes = (
"868 654 LINE",
"890 778 LINE",
"218 778 LINE",
"196 654 LINE"
);
}
);
width = 1046;
},
{
components = (
{
name = T;
}
);
layerId = "D879A026-05F7-4E99-AC55-D533E46CE7AB";
paths = (
{
closed = 1;
nodes = (
"958 612 LINE",
"988 778 LINE",
"210 778 LINE",
"180 612 LINE"
);
}
);
width = 1128;
}
);
leftMetricsKey = T;
rightMetricsKey = T;
unicode = 0166;
},
{
glyphname = U;
layers = (
{
anchors = (
{
name = bottom;
position = "{562, 0}";
},
{
name = ogonek;
position = "{680, 0}";
},
{
name = top;
position = "{822, 1400}";
},
{
name = topright;
position = "{1220, 1400}";
}
);
background = {
paths = (
{
closed = 1;
nodes = (
"914 -28 OFFCURVE",
"1124 210 OFFCURVE",
"1192 594 CURVE SMOOTH",
"1334 1400 LINE",
"1144 1400 LINE",
"1018 686 LINE SMOOTH",
"970 412 OFFCURVE",
"872 144 OFFCURVE",
"590 144 CURVE SMOOTH",
"310 144 OFFCURVE",
"306 410 OFFCURVE",
"354 686 CURVE SMOOTH",
"480 1400 LINE",
"290 1400 LINE",
"148 594 LINE SMOOTH",
"80 210 OFFCURVE",
"206 -28 OFFCURVE",
"560 -28 CURVE SMOOTH"
);
}
);
};
layerId = UUID0;
paths = (
{
closed = 1;
nodes = (
"914 -28 OFFCURVE",
"1124 210 OFFCURVE",
"1192 594 CURVE SMOOTH",
"1334 1400 LINE",
"1144 1400 LINE",
"1018 686 LINE SMOOTH",
"970 412 OFFCURVE",
"872 144 OFFCURVE",
"590 144 CURVE SMOOTH",
"390 144 OFFCURVE",
"330 280 OFFCURVE",
"330 458 CURVE SMOOTH",
"330 530 OFFCURVE",
"340 608 OFFCURVE",
"354 686 CURVE SMOOTH",
"480 1400 LINE",
"290 1400 LINE",
"148 594 LINE SMOOTH",
"136 528 OFFCURVE",
"130 466 OFFCURVE",
"130 408 CURVE SMOOTH",
"130 134 OFFCURVE",
"268 -28 OFFCURVE",
"560 -28 CURVE SMOOTH"
);
}
);
width = 1336;
},
{
anchors = (
{
name = bottom;
position = "{570, 0}";
},
{
name = ogonek;
position = "{678, 0}";
},
{
name = top;
position = "{836, 1400}";
},
{
name = topright;
position = "{1248, 1400}";
}
);
background = {
paths = (
{
closed = 1;
nodes = (
"966 -28 OFFCURVE",
"1186 220 OFFCURVE",
"1254 600 CURVE SMOOTH",
"1396 1400 LINE",
"1140 1400 LINE",
"1014 686 LINE SMOOTH",
"968 426 OFFCURVE",
"880 218 OFFCURVE",
"630 218 CURVE SMOOTH",
"380 218 OFFCURVE",
"366 426 OFFCURVE",
"412 686 CURVE SMOOTH",
"538 1400 LINE",
"284 1400 LINE",
"142 600 LINE SMOOTH",
"74 220 OFFCURVE",
"208 -28 OFFCURVE",
"588 -28 CURVE SMOOTH"
);
}
);
};
layerId = "D879A026-05F7-4E99-AC55-D533E46CE7AB";
paths = (
{
closed = 1;
nodes = (
"966 -28 OFFCURVE",
"1186 220 OFFCURVE",
"1254 600 CURVE SMOOTH",
"1396 1400 LINE",
"1140 1400 LINE",
"1014 686 LINE SMOOTH",
"968 426 OFFCURVE",
"880 218 OFFCURVE",
"630 218 CURVE SMOOTH",
"448 218 OFFCURVE",
"394 328 OFFCURVE",
"392 490 CURVE SMOOTH",
"392 546 OFFCURVE",
"398 608 OFFCURVE",
"412 686 CURVE SMOOTH",
"538 1400 LINE",
"284 1400 LINE",
"142 600 LINE SMOOTH",
"130 534 OFFCURVE",
"126 470 OFFCURVE",
"126 424 CURVE SMOOTH",
"126 142 OFFCURVE",
"274 -28 OFFCURVE",
"588 -28 CURVE"
);
}
);
width = 1390;
}
);
leftKerningGroup = U;
rightKerningGroup = U;
unicode = 0055;
},
{
glyphname = V;
layers = (
{
layerId = UUID0;
paths = (
{
closed = 1;
nodes = (
"588 0 LINE",
"1306 1400 LINE",
"1106 1400 LINE",
"522 230 LINE",
"350 1400 LINE",
"150 1400 LINE",
"376 0 LINE"
);
}
);
width = 1190;
},
{
layerId = "D879A026-05F7-4E99-AC55-D533E46CE7AB";
paths = (
{
closed = 1;
nodes = (
"688 0 LINE",
"1402 1400 LINE",
"1138 1400 LINE",
"590 298 LINE",
"406 1400 LINE",
"140 1400 LINE",
"372 0 LINE"
);
}
);
width = 1276;
}
);
unicode = 0056;
},
{
glyphname = W;
layers = (
{
anchors = (
{
name = bottom;
position = "{786, 0}";
},
{
name = top;
position = "{1034, 1400}";
}
);
layerId = UUID0;
paths = (
{
closed = 1;
nodes = (
"490 0 LINE",
"992 1148 LINE",
"1082 0 LINE",
"1274 0 LINE",
"1890 1400 LINE",
"1692 1400 LINE",
"1216 238 LINE",
"1132 1372 LINE",
"934 1372 LINE",
"440 236 LINE",
"386 1400 LINE",
"186 1400 LINE",
"292 0 LINE"
);
}
);
width = 1778;
},
{
anchors = (
{
name = bottom;
position = "{838, 0}";
},
{
name = top;
position = "{1084, 1400}";
}
);
layerId = "D879A026-05F7-4E99-AC55-D533E46CE7AB";
paths = (
{
closed = 1;
nodes = (
"542 0 LINE",
"1000 934 LINE",
"1132 0 LINE",
"1352 0 LINE",
"1992 1400 LINE",
"1726 1400 LINE",
"1304 432 LINE",
"1170 1400 LINE",
"998 1400 LINE",
"528 406 LINE",
"440 1400 LINE",
"174 1400 LINE",
"306 0 LINE"
);
}
);
width = 1868;
}
);
unicode = 0057;
},
{
glyphname = X;
layers = (
{
background = {
paths = (
{
closed = 1;
nodes = (
"1000 0 LINE",
"682 712 LINE",
"1238 1400 LINE",
"1032 1400 LINE",
"612 844 LINE",
"396 1400 LINE",
"176 1400 LINE",
"464 714 LINE",
"-78 0 LINE",
"130 0 LINE",
"550 574 LINE",
"794 0 LINE"
);
}
);
};
layerId = UUID0;
paths = (
{
closed = 1;
nodes = (
"130 0 LINE",
"550 574 LINE",
"794 0 LINE",
"1000 0 LINE",
"682 712 LINE",
"1238 1400 LINE",
"1032 1400 LINE",
"612 844 LINE",
"396 1400 LINE",
"176 1400 LINE",
"464 714 LINE",
"-78 0 LINE"
);
}
);
width = 1124;
},
{
background = {
paths = (
{
closed = 1;
nodes = (
"1126 0 LINE",
"788 710 LINE",
"1342 1400 LINE",
"1044 1400 LINE",
"678 896 LINE",
"470 1400 LINE",
"174 1400 LINE",
"498 720 LINE",
"-98 0 LINE",
"198 0 LINE",
"600 514 LINE",
"826 0 LINE"
);
}
);
};
layerId = "D879A026-05F7-4E99-AC55-D533E46CE7AB";
paths = (
{
closed = 1;
nodes = (
"198 0 LINE",
"600 514 LINE",
"826 0 LINE",
"1126 0 LINE",
"788 710 LINE",
"1342 1400 LINE",
"1044 1400 LINE",
"678 896 LINE",
"470 1400 LINE",
"174 1400 LINE",
"498 720 LINE",
"-98 0 LINE"
);
}
);
width = 1232;
}
);
unicode = 0058;
},
{
glyphname = Y;
layers = (
{
anchors = (
{
name = bottom;
position = "{436, 0}";
},
{
name = top;
position = "{682, 1400}";
}
);
background = {
paths = (
{
closed = 1;
nodes = (
"1208 1400 LINE",
"1008 1400 LINE",
"584 818 LINE",
"356 1400 LINE",
"156 1400 LINE",
"452 646 LINE",
"338 0 LINE",
"534 0 LINE",
"648 646 LINE"
);
}
);
};
layerId = UUID0;
paths = (
{
closed = 1;
nodes = (
"534 0 LINE",
"648 646 LINE",
"1208 1400 LINE",
"1008 1400 LINE",
"584 818 LINE",
"356 1400 LINE",
"156 1400 LINE",
"452 646 LINE",
"338 0 LINE"
);
}
);
width = 1092;
},
{
anchors = (
{
name = bottom;
position = "{494, 0}";
},
{
name = top;
position = "{740, 1400}";
}
);
background = {
paths = (
{
closed = 1;
nodes = (
"1334 1400 LINE",
"1062 1400 LINE",
"646 840 LINE",
"418 1400 LINE",
"146 1400 LINE",
"474 620 LINE",
"366 0 LINE",
"620 0 LINE",
"730 620 LINE"
);
}
);
};
layerId = "D879A026-05F7-4E99-AC55-D533E46CE7AB";
paths = (
{
closed = 1;
nodes = (
"620 0 LINE",
"730 620 LINE",
"1334 1400 LINE",
"1062 1400 LINE",
"646 840 LINE",
"418 1400 LINE",
"146 1400 LINE",
"474 620 LINE",
"366 0 LINE"
);
}
);
width = 1206;
}
);
leftKerningGroup = Y;
rightKerningGroup = Y;
unicode = 0059;
},
{
glyphname = Z;
layers = (
{
anchors = (
{
name = bottom;
position = "{358, 0}";
},
{
name = top;
position = "{686, 1400}";
}
);
background = {
paths = (
{
closed = 1;
nodes = (
"1124 1400 LINE",
"246 1400 LINE",
"216 1228 LINE",
"780 1228 LINE",
"-82 0 LINE",
"796 0 LINE",
"826 172 LINE",
"260 172 LINE"
);
}
);
};
layerId = UUID0;
paths = (
{
closed = 1;
nodes = (
"796 0 LINE",
"826 172 LINE",
"260 172 LINE",
"1124 1400 LINE",
"246 1400 LINE",
"216 1228 LINE",
"780 1228 LINE",
"-82 0 LINE"
);
}
);
width = 1000;
},
{
anchors = (
{
name = bottom;
position = "{390, 0}";
},
{
name = top;
position = "{724, 1400}";
}
);
background = {
paths = (
{
closed = 1;
nodes = (
"1192 1400 LINE",
"256 1400 LINE",
"212 1152 LINE",
"726 1152 LINE",
"-78 0 LINE",
"858 0 LINE",
"902 248 LINE",
"388 248 LINE"
);
}
);
};
layerId = "D879A026-05F7-4E99-AC55-D533E46CE7AB";
paths = (
{
closed = 1;
nodes = (
"858 0 LINE",
"902 248 LINE",
"388 248 LINE",
"1192 1400 LINE",
"256 1400 LINE",
"212 1152 LINE",
"726 1152 LINE",
"-78 0 LINE"
);
}
);
width = 1072;
}
);
leftKerningGroup = Z;
rightKerningGroup = Z;
unicode = 005A;
},
{
glyphname = a;
layers = (
{
anchors = (
{
name = bottom;
position = "{410, 0}";
},
{
name = ogonek;
position = "{812, 0}";
},
{
name = top;
position = "{642, 980}";
}
);
background = {
paths = (
{
closed = 1;
nodes = (
"984 980 LINE",
"824 980 LINE",
"786 876 LINE",
"734 978 OFFCURVE",
"640 1000 OFFCURVE",
"556 1000 CURVE SMOOTH",
"258 1000 OFFCURVE",
"42 698 OFFCURVE",
"42 392 CURVE SMOOTH",
"42 158 OFFCURVE",
"168 -20 OFFCURVE",
"376 -20 CURVE SMOOTH",
"472 -20 OFFCURVE",
"594 30 OFFCURVE",
"674 124 CURVE",
"702 -16 OFFCURVE",
"788 -20 OFFCURVE",
"902 -20 CURVE",
"952 124 LINE",
"884 124 OFFCURVE",
"858 144 OFFCURVE",
"858 206 CURVE SMOOTH",
"858 228 OFFCURVE",
"860 254 OFFCURVE",
"866 286 CURVE SMOOTH"
);
},
{
closed = 1;
nodes = (
"654 840 OFFCURVE",
"742 746 OFFCURVE",
"742 568 CURVE SMOOTH",
"742 272 OFFCURVE",
"580 140 OFFCURVE",
"418 140 CURVE SMOOTH",
"294 140 OFFCURVE",
"230 260 OFFCURVE",
"230 410 CURVE SMOOTH",
"230 638 OFFCURVE",
"360 840 OFFCURVE",
"542 840 CURVE SMOOTH"
);
}
);
};
layerId = UUID0;
paths = (
{
closed = 1;
nodes = (
"490 -20 OFFCURVE",
"594 30 OFFCURVE",
"674 124 CURVE",
"702 -16 OFFCURVE",
"788 -20 OFFCURVE",
"902 -20 CURVE",
"952 124 LINE",
"882 124 OFFCURVE",
"858 144 OFFCURVE",
"858 208 CURVE SMOOTH",
"858 226 OFFCURVE",
"860 254 OFFCURVE",
"866 286 CURVE SMOOTH",
"984 980 LINE",
"824 980 LINE",
"786 876 LINE",
"734 978 OFFCURVE",
"640 1000 OFFCURVE",
"558 1000 CURVE SMOOTH",
"258 1000 OFFCURVE",
"42 688 OFFCURVE",
"42 372 CURVE SMOOTH",
"42 136 OFFCURVE",
"170 -20 OFFCURVE",
"368 -20 CURVE SMOOTH"
);
},
{
closed = 1;
nodes = (
"288 140 OFFCURVE",
"230 260 OFFCURVE",
"230 410 CURVE SMOOTH",
"230 638 OFFCURVE",
"362 840 OFFCURVE",
"538 840 CURVE SMOOTH",
"654 840 OFFCURVE",
"742 754 OFFCURVE",
"742 554 CURVE SMOOTH",
"742 284 OFFCURVE",
"580 140 OFFCURVE",
"428 140 CURVE SMOOTH"
);
}
);
width = 1080;
},
{
anchors = (
{
name = bottom;
position = "{438, 0}";
},
{
name = ogonek;
position = "{888, 0}";
},
{
name = top;
position = "{666, 1000}";
}
);
background = {
paths = (
{
closed = 1;
nodes = (
"1074 1000 LINE",
"846 1000 LINE",
"818 950 LINE",
"768 992 OFFCURVE",
"716 1016 OFFCURVE",
"616 1016 CURVE SMOOTH",
"252 1016 OFFCURVE",
"36 718 OFFCURVE",
"36 400 CURVE SMOOTH",
"36 170 OFFCURVE",
"162 -20 OFFCURVE",
"432 -20 CURVE SMOOTH",
"534 -20 OFFCURVE",
"642 38 OFFCURVE",
"700 96 CURVE",
"750 0 OFFCURVE",
"788 -20 OFFCURVE",
"992 -20 CURVE",
"1048 184 LINE",
"976 184 OFFCURVE",
"950 184 OFFCURVE",
"950 238 CURVE SMOOTH",
"950 256 OFFCURVE",
"952 282 OFFCURVE",
"958 316 CURVE SMOOTH"
);
},
{
closed = 1;
nodes = (
"714 812 OFFCURVE",
"760 724 OFFCURVE",
"760 596 CURVE SMOOTH",
"760 430 OFFCURVE",
"718 184 OFFCURVE",
"484 184 CURVE SMOOTH",
"358 184 OFFCURVE",
"294 282 OFFCURVE",
"294 424 CURVE SMOOTH",
"294 640 OFFCURVE",
"412 812 OFFCURVE",
"596 812 CURVE SMOOTH"
);
}
);
};
layerId = "D879A026-05F7-4E99-AC55-D533E46CE7AB";
paths = (
{
closed = 1;
nodes = (
"544 -20 OFFCURVE",
"632 38 OFFCURVE",
"700 96 CURVE",
"750 0 OFFCURVE",
"788 -20 OFFCURVE",
"992 -20 CURVE",
"1048 184 LINE",
"974 184 OFFCURVE",
"950 184 OFFCURVE",
"950 240 CURVE SMOOTH",
"950 256 OFFCURVE",
"952 282 OFFCURVE",
"958 316 CURVE SMOOTH",
"1074 1000 LINE",
"858 1000 LINE",
"830 930 LINE",
"772 984 OFFCURVE",
"704 1016 OFFCURVE",
"598 1016 CURVE SMOOTH",
"250 1016 OFFCURVE",
"36 708 OFFCURVE",
"36 396 CURVE SMOOTH",
"36 156 OFFCURVE",
"174 -20 OFFCURVE",
"406 -20 CURVE SMOOTH"
);
},
{
closed = 1;
nodes = (
"352 184 OFFCURVE",
"294 282 OFFCURVE",
"294 428 CURVE SMOOTH",
"294 638 OFFCURVE",
"410 812 OFFCURVE",
"580 812 CURVE SMOOTH",
"708 812 OFFCURVE",
"760 724 OFFCURVE",
"760 584 CURVE SMOOTH",
"760 432 OFFCURVE",
"712 184 OFFCURVE",
"490 184 CURVE SMOOTH"
);
}
);
width = 1168;
},
{
anchors = (
{
name = bottom;
position = "{438, 0}";
},
{
name = ogonek;
position = "{1052, 20}";
},
{
name = top;
position = "{686, 1000}";
}
);
associatedMasterId = "D879A026-05F7-4E99-AC55-D533E46CE7AB";
background = {
paths = (
{
closed = 1;
nodes = (
"1074 1000 LINE",
"846 1000 LINE",
"818 950 LINE",
"768 992 OFFCURVE",
"716 1016 OFFCURVE",
"616 1016 CURVE SMOOTH",
"252 1016 OFFCURVE",
"36 718 OFFCURVE",
"36 400 CURVE SMOOTH",
"36 170 OFFCURVE",
"162 -20 OFFCURVE",
"432 -20 CURVE SMOOTH",
"534 -20 OFFCURVE",
"642 38 OFFCURVE",
"700 96 CURVE",
"750 0 OFFCURVE",
"788 -20 OFFCURVE",
"992 -20 CURVE",
"1048 184 LINE",
"976 184 OFFCURVE",
"950 184 OFFCURVE",
"950 238 CURVE SMOOTH",
"950 256 OFFCURVE",
"952 282 OFFCURVE",
"958 316 CURVE SMOOTH"
);
},
{
closed = 1;
nodes = (
"714 812 OFFCURVE",
"760 724 OFFCURVE",
"760 596 CURVE SMOOTH",
"760 430 OFFCURVE",
"718 184 OFFCURVE",
"484 184 CURVE SMOOTH",
"358 184 OFFCURVE",
"294 282 OFFCURVE",
"294 424 CURVE SMOOTH",
"294 640 OFFCURVE",
"412 812 OFFCURVE",
"596 812 CURVE SMOOTH"
);
}
);
};
layerId = "6A2584A2-4E93-4B6A-9C67-5FF836BCC991";
name = "Bold Sep 23 16, 10:41";
paths = (
{
closed = 1;
nodes = (
"554 -20 OFFCURVE",
"642 42 OFFCURVE",
"700 96 CURVE",
"750 0 OFFCURVE",
"788 -20 OFFCURVE",
"992 -20 CURVE",
"1048 184 LINE",
"974 184 OFFCURVE",
"950 184 OFFCURVE",
"950 240 CURVE SMOOTH",
"950 256 OFFCURVE",
"952 282 OFFCURVE",
"958 316 CURVE SMOOTH",
"1074 1000 LINE",
"846 1000 LINE",
"818 950 LINE",
"768 992 OFFCURVE",
"716 1016 OFFCURVE",
"614 1016 CURVE SMOOTH",
"252 1016 OFFCURVE",
"36 714 OFFCURVE",
"36 408 CURVE SMOOTH",
"36 162 OFFCURVE",
"176 -20 OFFCURVE",
"414 -20 CURVE SMOOTH"
);
},
{
closed = 1;
nodes = (
"352 184 OFFCURVE",
"294 282 OFFCURVE",
"294 428 CURVE SMOOTH",
"294 638 OFFCURVE",
"414 812 OFFCURVE",
"592 812 CURVE SMOOTH",
"720 812 OFFCURVE",
"760 724 OFFCURVE",
"760 584 CURVE SMOOTH",
"760 432 OFFCURVE",
"712 184 OFFCURVE",
"490 184 CURVE SMOOTH"
);
}
);
width = 1168;
},
{
anchors = (
{
name = bottom;
position = "{410, 0}";
},
{
name = ogonek;
position = "{972, 20}";
},
{
name = top;
position = "{622, 980}";
}
);
associatedMasterId = UUID0;
background = {
paths = (
{
closed = 1;
nodes = (
"984 980 LINE",
"824 980 LINE",
"786 876 LINE",
"734 978 OFFCURVE",
"640 1000 OFFCURVE",
"556 1000 CURVE SMOOTH",
"258 1000 OFFCURVE",
"42 698 OFFCURVE",
"42 392 CURVE SMOOTH",
"42 158 OFFCURVE",
"168 -20 OFFCURVE",
"376 -20 CURVE SMOOTH",
"472 -20 OFFCURVE",
"594 30 OFFCURVE",
"674 124 CURVE",
"702 -16 OFFCURVE",
"788 -20 OFFCURVE",
"902 -20 CURVE",
"952 124 LINE",
"884 124 OFFCURVE",
"858 144 OFFCURVE",
"858 206 CURVE SMOOTH",
"858 228 OFFCURVE",
"860 254 OFFCURVE",
"866 286 CURVE SMOOTH"
);
},
{
closed = 1;
nodes = (
"654 840 OFFCURVE",
"742 746 OFFCURVE",
"742 568 CURVE SMOOTH",
"742 272 OFFCURVE",
"580 140 OFFCURVE",
"418 140 CURVE SMOOTH",
"294 140 OFFCURVE",
"230 260 OFFCURVE",
"230 410 CURVE SMOOTH",
"230 638 OFFCURVE",
"360 840 OFFCURVE",
"542 840 CURVE SMOOTH"
);
}
);
};
layerId = "0B7C1B25-9122-4D34-8A21-86D0198451B9";
name = "Regular Sep 23 16, 10:41";
paths = (
{
closed = 1;
nodes = (
"474 -20 OFFCURVE",
"594 30 OFFCURVE",
"674 124 CURVE",
"702 -16 OFFCURVE",
"788 -20 OFFCURVE",
"902 -20 CURVE",
"952 124 LINE",
"882 124 OFFCURVE",
"858 144 OFFCURVE",
"858 208 CURVE SMOOTH",
"858 226 OFFCURVE",
"860 254 OFFCURVE",
"866 286 CURVE SMOOTH",
"984 980 LINE",
"824 980 LINE",
"786 876 LINE",
"734 978 OFFCURVE",
"640 1000 OFFCURVE",
"558 1000 CURVE SMOOTH",
"258 1000 OFFCURVE",
"42 698 OFFCURVE",
"42 392 CURVE SMOOTH",
"42 158 OFFCURVE",
"170 -20 OFFCURVE",
"368 -20 CURVE SMOOTH"
);
},
{
closed = 1;
nodes = (
"288 140 OFFCURVE",
"230 260 OFFCURVE",
"230 410 CURVE SMOOTH",
"230 638 OFFCURVE",
"362 840 OFFCURVE",
"538 840 CURVE SMOOTH",
"654 840 OFFCURVE",
"742 754 OFFCURVE",
"742 554 CURVE SMOOTH",
"742 284 OFFCURVE",
"580 140 OFFCURVE",
"428 140 CURVE SMOOTH"
);
}
);
width = 1080;
}
);
leftKerningGroup = a;
rightKerningGroup = a;
unicode = 0061;
},
{
glyphname = ae;
layers = (
{
anchors = (
{
name = top;
position = "{808, 980}";
}
);
background = {
paths = (
{
closed = 1;
nodes = (
"1368 490 LINE",
"1388 550 OFFCURVE",
"1406 608 OFFCURVE",
"1406 686 CURVE SMOOTH",
"1406 888 OFFCURVE",
"1296 1000 OFFCURVE",
"1120 1000 CURVE SMOOTH",
"976 1000 OFFCURVE",
"824 938 OFFCURVE",
"748 760 CURVE",
"748 962 OFFCURVE",
"610 1000 OFFCURVE",
"510 1000 CURVE SMOOTH",
"418 1000 OFFCURVE",
"312 974 OFFCURVE",
"200 922 CURVE",
"192 782 LINE",
"282 820 OFFCURVE",
"352 840 OFFCURVE",
"430 840 CURVE SMOOTH",
"560 840 OFFCURVE",
"600 774 OFFCURVE",
"588 614 CURVE",
"362 600 OFFCURVE",
"-16 532 OFFCURVE",
"-16 186 CURVE SMOOTH",
"-16 56 OFFCURVE",
"62 -28 OFFCURVE",
"222 -28 CURVE SMOOTH",
"388 -28 OFFCURVE",
"534 50 OFFCURVE",
"628 206 CURVE",
"664 44 OFFCURVE",
"776 -20 OFFCURVE",
"950 -20 CURVE SMOOTH",
"1072 -20 OFFCURVE",
"1170 16 OFFCURVE",
"1260 60 CURVE",
"1260 198 LINE",
"1162 152 OFFCURVE",
"1080 124 OFFCURVE",
"994 124 CURVE SMOOTH",
"838 124 OFFCURVE",
"738 244 OFFCURVE",
"774 490 CURVE"
);
},
{
closed = 1;
nodes = (
"1208 840 OFFCURVE",
"1258 772 OFFCURVE",
"1230 614 CURVE",
"808 614 LINE",
"868 774 OFFCURVE",
"966 840 OFFCURVE",
"1084 840 CURVE SMOOTH"
);
},
{
closed = 1;
nodes = (
"576 454 OFFCURVE",
"570 422 OFFCURVE",
"566 396 CURVE SMOOTH",
"530 194 OFFCURVE",
"392 124 OFFCURVE",
"288 124 CURVE SMOOTH",
"224 124 OFFCURVE",
"176 152 OFFCURVE",
"176 224 CURVE SMOOTH",
"176 422 OFFCURVE",
"416 490 OFFCURVE",
"580 490 CURVE"
);
}
);
};
layerId = UUID0;
paths = (
{
closed = 1;
nodes = (
"388 -28 OFFCURVE",
"534 50 OFFCURVE",
"628 206 CURVE",
"664 44 OFFCURVE",
"776 -20 OFFCURVE",
"950 -20 CURVE SMOOTH",
"1072 -20 OFFCURVE",
"1170 16 OFFCURVE",
"1260 60 CURVE",
"1260 198 LINE",
"1162 152 OFFCURVE",
"1080 124 OFFCURVE",
"994 124 CURVE SMOOTH",
"860 124 OFFCURVE",
"766 214 OFFCURVE",
"766 396 CURVE SMOOTH",
"766 426 OFFCURVE",
"770 456 OFFCURVE",
"774 490 CURVE",
"1368 490 LINE",
"1388 550 OFFCURVE",
"1406 608 OFFCURVE",
"1406 686 CURVE SMOOTH",
"1406 888 OFFCURVE",
"1296 1000 OFFCURVE",
"1120 1000 CURVE SMOOTH",
"976 1000 OFFCURVE",
"824 938 OFFCURVE",
"748 760 CURVE",
"748 962 OFFCURVE",
"610 1000 OFFCURVE",
"510 1000 CURVE SMOOTH",
"418 1000 OFFCURVE",
"312 974 OFFCURVE",
"200 922 CURVE",
"192 782 LINE",
"282 820 OFFCURVE",
"352 840 OFFCURVE",
"430 840 CURVE SMOOTH",
"560 840 OFFCURVE",
"588 774 OFFCURVE",
"588 614 CURVE",
"362 600 OFFCURVE",
"-16 532 OFFCURVE",
"-16 186 CURVE SMOOTH",
"-16 56 OFFCURVE",
"62 -28 OFFCURVE",
"222 -28 CURVE SMOOTH"
);
},
{
closed = 1;
nodes = (
"224 124 OFFCURVE",
"176 152 OFFCURVE",
"176 224 CURVE SMOOTH",
"176 422 OFFCURVE",
"416 490 OFFCURVE",
"580 490 CURVE",
"576 454 OFFCURVE",
"570 422 OFFCURVE",
"566 396 CURVE SMOOTH",
"530 194 OFFCURVE",
"392 124 OFFCURVE",
"288 124 CURVE SMOOTH"
);
},
{
closed = 1;
nodes = (
"868 774 OFFCURVE",
"966 840 OFFCURVE",
"1084 840 CURVE SMOOTH",
"1184 840 OFFCURVE",
"1236 796 OFFCURVE",
"1238 696 CURVE SMOOTH",
"1238 672 OFFCURVE",
"1236 644 OFFCURVE",
"1230 614 CURVE",
"808 614 LINE"
);
}
);
width = 1456;
},
{
anchors = (
{
name = top;
position = "{866, 1000}";
}
);
background = {
paths = (
{
closed = 1;
nodes = (
"1438 446 LINE",
"1476 544 OFFCURVE",
"1488 598 OFFCURVE",
"1488 670 CURVE SMOOTH",
"1488 880 OFFCURVE",
"1364 1016 OFFCURVE",
"1172 1016 CURVE SMOOTH",
"1004 1016 OFFCURVE",
"854 924 OFFCURVE",
"812 838 CURVE",
"790 976 OFFCURVE",
"712 1016 OFFCURVE",
"556 1016 CURVE SMOOTH",
"438 1016 OFFCURVE",
"312 986 OFFCURVE",
"186 928 CURVE",
"172 726 LINE",
"286 778 OFFCURVE",
"366 802 OFFCURVE",
"454 802 CURVE SMOOTH",
"578 802 OFFCURVE",
"608 750 OFFCURVE",
"590 628 CURVE",
"388 618 OFFCURVE",
"-18 554 OFFCURVE",
"-18 204 CURVE SMOOTH",
"-18 60 OFFCURVE",
"78 -30 OFFCURVE",
"256 -30 CURVE SMOOTH",
"436 -30 OFFCURVE",
"552 56 OFFCURVE",
"660 168 CURVE",
"698 56 OFFCURVE",
"814 -20 OFFCURVE",
"1010 -20 CURVE SMOOTH",
"1146 -20 OFFCURVE",
"1266 16 OFFCURVE",
"1344 56 CURVE",
"1372 266 LINE",
"1290 222 OFFCURVE",
"1146 184 OFFCURVE",
"1056 184 CURVE SMOOTH",
"938 184 OFFCURVE",
"832 260 OFFCURVE",
"834 446 CURVE"
);
},
{
closed = 1;
nodes = (
"1260 812 OFFCURVE",
"1278 704 OFFCURVE",
"1262 614 CURVE",
"868 614 LINE",
"908 730 OFFCURVE",
"1014 812 OFFCURVE",
"1128 812 CURVE SMOOTH"
);
},
{
closed = 1;
nodes = (
"572 438 OFFCURVE",
"570 426 OFFCURVE",
"566 404 CURVE SMOOTH",
"538 244 OFFCURVE",
"422 162 OFFCURVE",
"342 162 CURVE SMOOTH",
"290 162 OFFCURVE",
"250 198 OFFCURVE",
"250 256 CURVE SMOOTH",
"250 402 OFFCURVE",
"446 458 OFFCURVE",
"574 460 CURVE"
);
}
);
};
layerId = "D879A026-05F7-4E99-AC55-D533E46CE7AB";
paths = (
{
closed = 1;
nodes = (
"436 -30 OFFCURVE",
"552 56 OFFCURVE",
"660 168 CURVE",
"698 56 OFFCURVE",
"814 -20 OFFCURVE",
"1010 -20 CURVE SMOOTH",
"1146 -20 OFFCURVE",
"1266 16 OFFCURVE",
"1344 56 CURVE",
"1372 266 LINE",
"1290 222 OFFCURVE",
"1146 184 OFFCURVE",
"1056 184 CURVE SMOOTH",
"954 184 OFFCURVE",
"862 242 OFFCURVE",
"840 376 CURVE SMOOTH",
"836 398 OFFCURVE",
"834 420 OFFCURVE",
"834 446 CURVE",
"1438 446 LINE",
"1476 544 OFFCURVE",
"1488 598 OFFCURVE",
"1488 670 CURVE SMOOTH",
"1488 880 OFFCURVE",
"1364 1016 OFFCURVE",
"1172 1016 CURVE SMOOTH",
"1004 1016 OFFCURVE",
"854 924 OFFCURVE",
"812 838 CURVE",
"790 976 OFFCURVE",
"712 1016 OFFCURVE",
"556 1016 CURVE SMOOTH",
"438 1016 OFFCURVE",
"312 986 OFFCURVE",
"186 928 CURVE",
"172 726 LINE",
"286 778 OFFCURVE",
"366 802 OFFCURVE",
"454 802 CURVE SMOOTH",
"578 802 OFFCURVE",
"590 750 OFFCURVE",
"590 628 CURVE",
"388 618 OFFCURVE",
"-18 554 OFFCURVE",
"-18 204 CURVE SMOOTH",
"-18 60 OFFCURVE",
"78 -30 OFFCURVE",
"256 -30 CURVE SMOOTH"
);
},
{
closed = 1;
nodes = (
"290 162 OFFCURVE",
"250 198 OFFCURVE",
"250 256 CURVE SMOOTH",
"250 402 OFFCURVE",
"446 458 OFFCURVE",
"574 460 CURVE",
"572 438 OFFCURVE",
"570 426 OFFCURVE",
"566 404 CURVE SMOOTH",
"538 244 OFFCURVE",
"422 162 OFFCURVE",
"342 162 CURVE SMOOTH"
);
},
{
closed = 1;
nodes = (
"908 730 OFFCURVE",
"1014 812 OFFCURVE",
"1128 812 CURVE SMOOTH",
"1234 812 OFFCURVE",
"1266 740 OFFCURVE",
"1266 666 CURVE SMOOTH",
"1266 648 OFFCURVE",
"1266 632 OFFCURVE",
"1262 614 CURVE",
"868 614 LINE"
);
}
);
width = 1536;
}
);
leftKerningGroup = a;
rightKerningGroup = e;
unicode = 00E6;
},
{
glyphname = b;
layers = (
{
background = {
paths = (
{
closed = 1;
nodes = (
"732 -20 OFFCURVE",
"964 260 OFFCURVE",
"964 588 CURVE SMOOTH",
"964 810 OFFCURVE",
"852 1000 OFFCURVE",
"632 1000 CURVE SMOOTH",
"548 1000 OFFCURVE",
"444 976 OFFCURVE",
"356 874 CURVE",
"466 1500 LINE",
"284 1500 LINE",
"20 0 LINE",
"184 0 LINE",
"220 124 LINE",
"268 28 OFFCURVE",
"364 -20 OFFCURVE",
"450 -20 CURVE SMOOTH"
);
},
{
closed = 1;
nodes = (
"710 840 OFFCURVE",
"776 726 OFFCURVE",
"776 572 CURVE SMOOTH",
"776 346 OFFCURVE",
"642 140 OFFCURVE",
"462 140 CURVE SMOOTH",
"350 140 OFFCURVE",
"268 220 OFFCURVE",
"268 398 CURVE SMOOTH",
"268 686 OFFCURVE",
"422 840 OFFCURVE",
"586 840 CURVE SMOOTH"
);
}
);
};
layerId = UUID0;
paths = (
{
closed = 1;
nodes = (
"738 -20 OFFCURVE",
"964 196 OFFCURVE",
"964 588 CURVE SMOOTH",
"964 810 OFFCURVE",
"854 1000 OFFCURVE",
"630 1000 CURVE SMOOTH",
"550 1000 OFFCURVE",
"444 976 OFFCURVE",
"356 874 CURVE",
"466 1500 LINE",
"284 1500 LINE",
"20 0 LINE",
"184 0 LINE",
"220 124 LINE",
"274 32 OFFCURVE",
"366 -20 OFFCURVE",
"492 -20 CURVE SMOOTH"
);
},
{
closed = 1;
nodes = (
"360 140 OFFCURVE",
"268 214 OFFCURVE",
"268 408 CURVE SMOOTH",
"268 676 OFFCURVE",
"422 840 OFFCURVE",
"580 840 CURVE SMOOTH",
"714 840 OFFCURVE",
"776 724 OFFCURVE",
"776 570 CURVE SMOOTH",
"776 326 OFFCURVE",
"652 140 OFFCURVE",
"482 140 CURVE SMOOTH"
);
}
);
width = 1040;
},
{
background = {
paths = (
{
closed = 1;
nodes = (
"842 -20 OFFCURVE",
"1052 280 OFFCURVE",
"1052 594 CURVE SMOOTH",
"1052 826 OFFCURVE",
"926 1016 OFFCURVE",
"656 1016 CURVE SMOOTH",
"554 1016 OFFCURVE",
"496 992 OFFCURVE",
"430 950 CURVE",
"528 1500 LINE",
"278 1500 LINE",
"14 0 LINE",
"248 0 LINE",
"260 56 LINE",
"318 8 OFFCURVE",
"364 -20 OFFCURVE",
"474 -20 CURVE SMOOTH"
);
},
{
closed = 1;
nodes = (
"732 812 OFFCURVE",
"796 714 OFFCURVE",
"796 572 CURVE SMOOTH",
"796 356 OFFCURVE",
"678 184 OFFCURVE",
"494 184 CURVE SMOOTH",
"374 184 OFFCURVE",
"328 272 OFFCURVE",
"328 402 CURVE SMOOTH",
"328 580 OFFCURVE",
"382 812 OFFCURVE",
"606 812 CURVE SMOOTH"
);
}
);
};
layerId = "D879A026-05F7-4E99-AC55-D533E46CE7AB";
paths = (
{
closed = 1;
nodes = (
"870 -20 OFFCURVE",
"1052 282 OFFCURVE",
"1052 590 CURVE SMOOTH",
"1052 830 OFFCURVE",
"926 1016 OFFCURVE",
"688 1016 CURVE SMOOTH",
"592 1016 OFFCURVE",
"496 982 OFFCURVE",
"424 916 CURVE",
"528 1500 LINE",
"278 1500 LINE",
"14 0 LINE",
"236 0 LINE",
"266 120 LINE",
"328 32 OFFCURVE",
"422 -20 OFFCURVE",
"550 -20 CURVE SMOOTH"
);
},
{
closed = 1;
nodes = (
"378 184 OFFCURVE",
"328 274 OFFCURVE",
"328 418 CURVE SMOOTH",
"328 618 OFFCURVE",
"424 812 OFFCURVE",
"616 812 CURVE SMOOTH",
"742 812 OFFCURVE",
"796 712 OFFCURVE",
"796 566 CURVE SMOOTH",
"796 360 OFFCURVE",
"686 184 OFFCURVE",
"516 184 CURVE SMOOTH"
);
}
);
width = 1120;
},
{
associatedMasterId = "D879A026-05F7-4E99-AC55-D533E46CE7AB";
background = {
paths = (
{
closed = 1;
nodes = (
"842 -20 OFFCURVE",
"1052 280 OFFCURVE",
"1052 594 CURVE SMOOTH",
"1052 826 OFFCURVE",
"926 1016 OFFCURVE",
"656 1016 CURVE SMOOTH",
"554 1016 OFFCURVE",
"496 992 OFFCURVE",
"430 950 CURVE",
"528 1500 LINE",
"278 1500 LINE",
"14 0 LINE",
"248 0 LINE",
"260 56 LINE",
"318 8 OFFCURVE",
"364 -20 OFFCURVE",
"474 -20 CURVE SMOOTH"
);
},
{
closed = 1;
nodes = (
"732 812 OFFCURVE",
"796 714 OFFCURVE",
"796 572 CURVE SMOOTH",
"796 356 OFFCURVE",
"678 184 OFFCURVE",
"494 184 CURVE SMOOTH",
"374 184 OFFCURVE",
"328 272 OFFCURVE",
"328 402 CURVE SMOOTH",
"328 580 OFFCURVE",
"382 812 OFFCURVE",
"606 812 CURVE SMOOTH"
);
}
);
};
layerId = "29B0122E-C808-4F2B-AEF6-D1EA44962BD4";
name = "Bold Sep 23 16, 10:41";
paths = (
{
closed = 1;
nodes = (
"842 -20 OFFCURVE",
"1052 282 OFFCURVE",
"1052 590 CURVE SMOOTH",
"1052 830 OFFCURVE",
"926 1016 OFFCURVE",
"654 1016 CURVE SMOOTH",
"556 1016 OFFCURVE",
"496 992 OFFCURVE",
"430 950 CURVE",
"528 1500 LINE",
"278 1500 LINE",
"14 0 LINE",
"248 0 LINE",
"260 56 LINE",
"318 8 OFFCURVE",
"364 -20 OFFCURVE",
"474 -20 CURVE SMOOTH"
);
},
{
closed = 1;
nodes = (
"370 184 OFFCURVE",
"328 272 OFFCURVE",
"328 412 CURVE SMOOTH",
"328 580 OFFCURVE",
"388 812 OFFCURVE",
"600 812 CURVE SMOOTH",
"738 812 OFFCURVE",
"796 712 OFFCURVE",
"796 566 CURVE SMOOTH",
"796 360 OFFCURVE",
"678 184 OFFCURVE",
"498 184 CURVE SMOOTH"
);
}
);
width = 1120;
},
{
associatedMasterId = UUID0;
background = {
paths = (
{
closed = 1;
nodes = (
"732 -20 OFFCURVE",
"964 260 OFFCURVE",
"964 588 CURVE SMOOTH",
"964 810 OFFCURVE",
"852 1000 OFFCURVE",
"632 1000 CURVE SMOOTH",
"548 1000 OFFCURVE",
"444 976 OFFCURVE",
"356 874 CURVE",
"466 1500 LINE",
"284 1500 LINE",
"20 0 LINE",
"184 0 LINE",
"220 124 LINE",
"268 28 OFFCURVE",
"364 -20 OFFCURVE",
"450 -20 CURVE SMOOTH"
);
},
{
closed = 1;
nodes = (
"710 840 OFFCURVE",
"776 726 OFFCURVE",
"776 572 CURVE SMOOTH",
"776 346 OFFCURVE",
"642 140 OFFCURVE",
"462 140 CURVE SMOOTH",
"350 140 OFFCURVE",
"268 220 OFFCURVE",
"268 398 CURVE SMOOTH",
"268 686 OFFCURVE",
"422 840 OFFCURVE",
"586 840 CURVE SMOOTH"
);
}
);
};
layerId = "FFF89286-EB6F-44A0-98C4-990F6A2346AA";
name = "Regular Sep 23 16, 10:41";
paths = (
{
closed = 1;
nodes = (
"724 -20 OFFCURVE",
"964 260 OFFCURVE",
"964 588 CURVE SMOOTH",
"964 810 OFFCURVE",
"854 1000 OFFCURVE",
"630 1000 CURVE SMOOTH",
"550 1000 OFFCURVE",
"444 976 OFFCURVE",
"356 874 CURVE",
"466 1500 LINE",
"284 1500 LINE",
"20 0 LINE",
"184 0 LINE",
"220 124 LINE",
"268 32 OFFCURVE",
"350 -20 OFFCURVE",
"462 -20 CURVE SMOOTH"
);
},
{
closed = 1;
nodes = (
"350 140 OFFCURVE",
"268 214 OFFCURVE",
"268 408 CURVE SMOOTH",
"268 676 OFFCURVE",
"422 840 OFFCURVE",
"580 840 CURVE SMOOTH",
"714 840 OFFCURVE",
"776 724 OFFCURVE",
"776 570 CURVE SMOOTH",
"776 344 OFFCURVE",
"642 140 OFFCURVE",
"460 140 CURVE SMOOTH"
);
}
);
width = 1040;
}
);
leftKerningGroup = h;
rightKerningGroup = b;
unicode = 0062;
},
{
glyphname = c;
layers = (
{
anchors = (
{
name = bottom;
position = "{422, 0}";
},
{
name = top;
position = "{616, 980}";
}
);
background = {
paths = (
{
closed = 1;
nodes = (
"548 -20 OFFCURVE",
"626 16 OFFCURVE",
"688 54 CURVE",
"694 198 LINE",
"616 160 OFFCURVE",
"534 138 OFFCURVE",
"450 138 CURVE SMOOTH",
"304 138 OFFCURVE",
"232 242 OFFCURVE",
"232 402 CURVE SMOOTH",
"232 654 OFFCURVE",
"348 840 OFFCURVE",
"574 840 CURVE SMOOTH",
"658 840 OFFCURVE",
"728 818 OFFCURVE",
"794 780 CURVE",
"846 942 LINE",
"796 974 OFFCURVE",
"720 1000 OFFCURVE",
"584 1000 CURVE SMOOTH",
"238 1000 OFFCURVE",
"46 710 OFFCURVE",
"46 390 CURVE SMOOTH",
"46 166 OFFCURVE",
"160 -20 OFFCURVE",
"406 -20 CURVE SMOOTH"
);
}
);
};
layerId = UUID0;
paths = (
{
closed = 1;
nodes = (
"538 -20 OFFCURVE",
"628 12 OFFCURVE",
"688 44 CURVE",
"694 198 LINE",
"622 160 OFFCURVE",
"546 138 OFFCURVE",
"478 138 CURVE SMOOTH",
"310 138 OFFCURVE",
"232 244 OFFCURVE",
"232 424 CURVE SMOOTH",
"232 654 OFFCURVE",
"354 840 OFFCURVE",
"598 840 CURVE SMOOTH",
"668 840 OFFCURVE",
"734 818 OFFCURVE",
"794 780 CURVE",
"846 942 LINE",
"792 978 OFFCURVE",
"698 1000 OFFCURVE",
"598 1000 CURVE SMOOTH",
"234 1000 OFFCURVE",
"46 710 OFFCURVE",
"46 398 CURVE SMOOTH",
"46 166 OFFCURVE",
"150 -20 OFFCURVE",
"420 -20 CURVE SMOOTH"
);
}
);
width = 836;
},
{
anchors = (
{
name = bottom;
position = "{438, 0}";
},
{
name = top;
position = "{634, 1000}";
}
);
background = {
paths = (
{
closed = 1;
nodes = (
"576 -20 OFFCURVE",
"654 14 OFFCURVE",
"724 54 CURVE",
"740 266 LINE",
"650 212 OFFCURVE",
"570 184 OFFCURVE",
"478 184 CURVE SMOOTH",
"358 184 OFFCURVE",
"294 282 OFFCURVE",
"294 424 CURVE SMOOTH",
"294 640 OFFCURVE",
"414 812 OFFCURVE",
"588 812 CURVE SMOOTH",
"680 812 OFFCURVE",
"752 784 OFFCURVE",
"822 730 CURVE",
"880 942 LINE",
"824 982 OFFCURVE",
"760 1016 OFFCURVE",
"604 1016 CURVE SMOOTH",
"250 1016 OFFCURVE",
"36 716 OFFCURVE",
"36 400 CURVE SMOOTH",
"36 168 OFFCURVE",
"160 -20 OFFCURVE",
"422 -20 CURVE SMOOTH"
);
}
);
};
layerId = "D879A026-05F7-4E99-AC55-D533E46CE7AB";
paths = (
{
closed = 1;
nodes = (
"552 -20 OFFCURVE",
"652 8 OFFCURVE",
"724 54 CURVE",
"740 266 LINE",
"658 212 OFFCURVE",
"576 184 OFFCURVE",
"508 184 CURVE SMOOTH",
"356 184 OFFCURVE",
"294 282 OFFCURVE",
"294 428 CURVE SMOOTH",
"294 638 OFFCURVE",
"418 812 OFFCURVE",
"618 812 CURVE SMOOTH",
"694 812 OFFCURVE",
"762 778 OFFCURVE",
"822 730 CURVE",
"880 942 LINE",
"824 984 OFFCURVE",
"744 1016 OFFCURVE",
"620 1016 CURVE SMOOTH",
"242 1016 OFFCURVE",
"36 716 OFFCURVE",
"36 402 CURVE SMOOTH",
"36 168 OFFCURVE",
"148 -20 OFFCURVE",
"432 -20 CURVE SMOOTH"
);
}
);
width = 874;
},
{
associatedMasterId = "D879A026-05F7-4E99-AC55-D533E46CE7AB";
background = {
paths = (
{
closed = 1;
nodes = (
"576 -20 OFFCURVE",
"654 14 OFFCURVE",
"724 54 CURVE",
"740 266 LINE",
"650 212 OFFCURVE",
"570 184 OFFCURVE",
"478 184 CURVE SMOOTH",
"358 184 OFFCURVE",
"294 282 OFFCURVE",
"294 424 CURVE SMOOTH",
"294 640 OFFCURVE",
"414 812 OFFCURVE",
"588 812 CURVE SMOOTH",
"680 812 OFFCURVE",
"752 784 OFFCURVE",
"822 730 CURVE",
"880 942 LINE",
"824 982 OFFCURVE",
"760 1016 OFFCURVE",
"604 1016 CURVE SMOOTH",
"250 1016 OFFCURVE",
"36 716 OFFCURVE",
"36 400 CURVE SMOOTH",
"36 168 OFFCURVE",
"160 -20 OFFCURVE",
"422 -20 CURVE SMOOTH"
);
}
);
};
layerId = "2F094A28-35B3-45FC-B73C-EFA563DD14F3";
name = "Bold Sep 23 16, 10:41";
paths = (
{
closed = 1;
nodes = (
"566 -20 OFFCURVE",
"660 16 OFFCURVE",
"724 54 CURVE",
"740 266 LINE",
"652 212 OFFCURVE",
"562 184 OFFCURVE",
"488 184 CURVE SMOOTH",
"350 184 OFFCURVE",
"294 282 OFFCURVE",
"294 428 CURVE SMOOTH",
"294 638 OFFCURVE",
"410 812 OFFCURVE",
"598 812 CURVE SMOOTH",
"676 812 OFFCURVE",
"756 782 OFFCURVE",
"822 730 CURVE",
"880 942 LINE",
"824 984 OFFCURVE",
"744 1016 OFFCURVE",
"620 1016 CURVE SMOOTH",
"242 1016 OFFCURVE",
"36 716 OFFCURVE",
"36 402 CURVE SMOOTH",
"36 168 OFFCURVE",
"150 -20 OFFCURVE",
"440 -20 CURVE"
);
}
);
width = 874;
},
{
associatedMasterId = UUID0;
background = {
paths = (
{
closed = 1;
nodes = (
"548 -20 OFFCURVE",
"626 16 OFFCURVE",
"688 54 CURVE",
"694 198 LINE",
"616 160 OFFCURVE",
"534 138 OFFCURVE",
"450 138 CURVE SMOOTH",
"304 138 OFFCURVE",
"232 242 OFFCURVE",
"232 402 CURVE SMOOTH",
"232 654 OFFCURVE",
"348 840 OFFCURVE",
"574 840 CURVE SMOOTH",
"658 840 OFFCURVE",
"728 818 OFFCURVE",
"794 780 CURVE",
"846 942 LINE",
"796 974 OFFCURVE",
"720 1000 OFFCURVE",
"584 1000 CURVE SMOOTH",
"238 1000 OFFCURVE",
"46 710 OFFCURVE",
"46 390 CURVE SMOOTH",
"46 166 OFFCURVE",
"160 -20 OFFCURVE",
"406 -20 CURVE SMOOTH"
);
}
);
};
layerId = "FFCF2BD7-F722-401B-81DA-0888CA5EC924";
name = "Regular Sep 23 16, 10:41";
paths = (
{
closed = 1;
nodes = (
"538 -20 OFFCURVE",
"628 16 OFFCURVE",
"688 54 CURVE",
"694 198 LINE",
"616 160 OFFCURVE",
"532 138 OFFCURVE",
"458 138 CURVE SMOOTH",
"304 138 OFFCURVE",
"232 232 OFFCURVE",
"232 416 CURVE SMOOTH",
"232 650 OFFCURVE",
"348 840 OFFCURVE",
"578 840 CURVE SMOOTH",
"656 840 OFFCURVE",
"728 818 OFFCURVE",
"794 780 CURVE",
"846 942 LINE",
"792 978 OFFCURVE",
"698 1000 OFFCURVE",
"598 1000 CURVE SMOOTH",
"234 1000 OFFCURVE",
"46 710 OFFCURVE",
"46 398 CURVE SMOOTH",
"46 166 OFFCURVE",
"150 -20 OFFCURVE",
"420 -20 CURVE"
);
}
);
width = 836;
}
);
leftKerningGroup = o;
rightKerningGroup = c;
unicode = 0063;
},
{
glyphname = d;
layers = (
{
anchors = (
{
name = bottom;
position = "{520, 0}";
},
{
name = center;
position = "{866, 1232}";
},
{
name = top;
position = "{520, 980}";
},
{
name = topright;
position = "{1158, 1500}";
}
);
background = {
paths = (
{
closed = 1;
nodes = (
"814 0 LINE",
"1078 1500 LINE",
"896 1500 LINE",
"786 876 LINE",
"734 978 OFFCURVE",
"640 1000 OFFCURVE",
"556 1000 CURVE SMOOTH",
"258 1000 OFFCURVE",
"42 698 OFFCURVE",
"42 392 CURVE SMOOTH",
"42 158 OFFCURVE",
"168 -20 OFFCURVE",
"376 -20 CURVE SMOOTH",
"462 -20 OFFCURVE",
"574 28 OFFCURVE",
"656 124 CURVE",
"648 0 LINE"
);
},
{
closed = 1;
nodes = (
"654 840 OFFCURVE",
"742 746 OFFCURVE",
"742 568 CURVE SMOOTH",
"742 272 OFFCURVE",
"580 140 OFFCURVE",
"418 140 CURVE SMOOTH",
"294 140 OFFCURVE",
"230 260 OFFCURVE",
"230 410 CURVE SMOOTH",
"230 638 OFFCURVE",
"360 840 OFFCURVE",
"542 840 CURVE SMOOTH"
);
}
);
};
layerId = UUID0;
paths = (
{
closed = 1;
nodes = (
"472 -20 OFFCURVE",
"574 30 OFFCURVE",
"656 124 CURVE",
"648 0 LINE",
"814 0 LINE",
"1078 1500 LINE",
"896 1500 LINE",
"772 792 LINE",
"814 806 LINE",
"754 938 OFFCURVE",
"676 1000 OFFCURVE",
"538 1000 CURVE SMOOTH",
"250 1000 OFFCURVE",
"42 698 OFFCURVE",
"42 394 CURVE SMOOTH",
"42 158 OFFCURVE",
"172 -20 OFFCURVE",
"368 -20 CURVE SMOOTH"
);
},
{
closed = 1;
nodes = (
"288 140 OFFCURVE",
"230 260 OFFCURVE",
"230 410 CURVE SMOOTH",
"230 638 OFFCURVE",
"362 840 OFFCURVE",
"538 840 CURVE SMOOTH",
"654 840 OFFCURVE",
"742 754 OFFCURVE",
"742 554 CURVE SMOOTH",
"742 284 OFFCURVE",
"580 140 OFFCURVE",
"428 140 CURVE SMOOTH"
);
}
);
width = 1040;
},
{
anchors = (
{
name = bottom;
position = "{562, 0}";
},
{
name = center;
position = "{942, 1272}";
},
{
name = top;
position = "{562, 1000}";
},
{
name = topright;
position = "{1234, 1500}";
}
);
background = {
paths = (
{
closed = 1;
nodes = (
"900 0 LINE",
"1164 1500 LINE",
"916 1500 LINE",
"818 950 LINE",
"768 992 OFFCURVE",
"716 1016 OFFCURVE",
"616 1016 CURVE SMOOTH",
"252 1016 OFFCURVE",
"36 718 OFFCURVE",
"36 400 CURVE SMOOTH",
"36 170 OFFCURVE",
"162 -20 OFFCURVE",
"432 -20 CURVE SMOOTH",
"540 -20 OFFCURVE",
"596 8 OFFCURVE",
"672 56 CURVE",
"664 0 LINE"
);
},
{
closed = 1;
nodes = (
"714 812 OFFCURVE",
"760 724 OFFCURVE",
"760 596 CURVE SMOOTH",
"760 430 OFFCURVE",
"718 184 OFFCURVE",
"484 184 CURVE SMOOTH",
"358 184 OFFCURVE",
"294 282 OFFCURVE",
"294 424 CURVE SMOOTH",
"294 640 OFFCURVE",
"412 812 OFFCURVE",
"596 812 CURVE SMOOTH"
);
}
);
};
layerId = "D879A026-05F7-4E99-AC55-D533E46CE7AB";
paths = (
{
closed = 1;
nodes = (
"504 -20 OFFCURVE",
"598 26 OFFCURVE",
"684 106 CURVE",
"664 0 LINE",
"900 0 LINE",
"1164 1500 LINE",
"916 1500 LINE",
"790 792 LINE",
"872 756 LINE",
"836 894 OFFCURVE",
"742 1016 OFFCURVE",
"554 1016 CURVE SMOOTH",
"230 1016 OFFCURVE",
"36 704 OFFCURVE",
"36 384 CURVE SMOOTH",
"36 158 OFFCURVE",
"158 -20 OFFCURVE",
"394 -20 CURVE SMOOTH"
);
},
{
closed = 1;
nodes = (
"350 184 OFFCURVE",
"294 278 OFFCURVE",
"294 418 CURVE SMOOTH",
"294 634 OFFCURVE",
"410 812 OFFCURVE",
"582 812 CURVE SMOOTH",
"716 812 OFFCURVE",
"760 712 OFFCURVE",
"760 584 CURVE SMOOTH",
"760 404 OFFCURVE",
"678 184 OFFCURVE",
"480 184 CURVE SMOOTH"
);
}
);
width = 1122;
},
{
anchors = (
{
name = bottom;
position = "{562, 0}";
},
{
name = center;
position = "{942, 1272}";
},
{
name = top;
position = "{562, 1000}";
},
{
name = topright;
position = "{1082, 1000}";
}
);
associatedMasterId = "D879A026-05F7-4E99-AC55-D533E46CE7AB";
background = {
paths = (
{
closed = 1;
nodes = (
"900 0 LINE",
"1164 1500 LINE",
"916 1500 LINE",
"818 950 LINE",
"768 992 OFFCURVE",
"716 1016 OFFCURVE",
"616 1016 CURVE SMOOTH",
"252 1016 OFFCURVE",
"36 718 OFFCURVE",
"36 400 CURVE SMOOTH",
"36 170 OFFCURVE",
"162 -20 OFFCURVE",
"432 -20 CURVE SMOOTH",
"540 -20 OFFCURVE",
"596 8 OFFCURVE",
"672 56 CURVE",
"664 0 LINE"
);
},
{
closed = 1;
nodes = (
"714 812 OFFCURVE",
"760 724 OFFCURVE",
"760 596 CURVE SMOOTH",
"760 430 OFFCURVE",
"718 184 OFFCURVE",
"484 184 CURVE SMOOTH",
"358 184 OFFCURVE",
"294 282 OFFCURVE",
"294 424 CURVE SMOOTH",
"294 640 OFFCURVE",
"412 812 OFFCURVE",
"596 812 CURVE SMOOTH"
);
}
);
};
layerId = "2DA8DE85-BB80-42A6-8C76-7A8B5D520D7C";
name = "Bold Sep 23 16, 10:41";
paths = (
{
closed = 1;
nodes = (
"540 -20 OFFCURVE",
"596 8 OFFCURVE",
"672 56 CURVE",
"664 0 LINE",
"900 0 LINE",
"1164 1500 LINE",
"916 1500 LINE",
"818 950 LINE",
"768 992 OFFCURVE",
"716 1016 OFFCURVE",
"614 1016 CURVE SMOOTH",
"252 1016 OFFCURVE",
"36 714 OFFCURVE",
"36 404 CURVE SMOOTH",
"36 166 OFFCURVE",
"162 -20 OFFCURVE",
"434 -20 CURVE SMOOTH"
);
},
{
closed = 1;
nodes = (
"352 184 OFFCURVE",
"294 282 OFFCURVE",
"294 428 CURVE SMOOTH",
"294 638 OFFCURVE",
"414 812 OFFCURVE",
"592 812 CURVE",
"720 812 OFFCURVE",
"760 724 OFFCURVE",
"760 584 CURVE SMOOTH",
"760 432 OFFCURVE",
"712 184 OFFCURVE",
"490 184 CURVE SMOOTH"
);
}
);
width = 1122;
},
{
anchors = (
{
name = bottom;
position = "{520, 0}";
},
{
name = center;
position = "{866, 1232}";
},
{
name = top;
position = "{520, 980}";
},
{
name = topright;
position = "{1000, 980}";
}
);
associatedMasterId = UUID0;
background = {
paths = (
{
closed = 1;
nodes = (
"814 0 LINE",
"1078 1500 LINE",
"896 1500 LINE",
"786 876 LINE",
"734 978 OFFCURVE",
"640 1000 OFFCURVE",
"556 1000 CURVE SMOOTH",
"258 1000 OFFCURVE",
"42 698 OFFCURVE",
"42 392 CURVE SMOOTH",
"42 158 OFFCURVE",
"168 -20 OFFCURVE",
"376 -20 CURVE SMOOTH",
"462 -20 OFFCURVE",
"574 28 OFFCURVE",
"656 124 CURVE",
"648 0 LINE"
);
},
{
closed = 1;
nodes = (
"654 840 OFFCURVE",
"742 746 OFFCURVE",
"742 568 CURVE SMOOTH",
"742 272 OFFCURVE",
"580 140 OFFCURVE",
"418 140 CURVE SMOOTH",
"294 140 OFFCURVE",
"230 260 OFFCURVE",
"230 410 CURVE SMOOTH",
"230 638 OFFCURVE",
"360 840 OFFCURVE",
"542 840 CURVE SMOOTH"
);
}
);
};
layerId = "A766AAC6-5BF7-465E-AFEB-A34FA56BD3C5";
name = "Regular Sep 23 16, 10:41";
paths = (
{
closed = 1;
nodes = (
"472 -20 OFFCURVE",
"574 30 OFFCURVE",
"656 124 CURVE",
"648 0 LINE",
"814 0 LINE",
"1078 1500 LINE",
"896 1500 LINE",
"786 876 LINE",
"734 978 OFFCURVE",
"640 1000 OFFCURVE",
"558 1000 CURVE SMOOTH",
"258 1000 OFFCURVE",
"42 698 OFFCURVE",
"42 394 CURVE SMOOTH",
"42 158 OFFCURVE",
"172 -20 OFFCURVE",
"368 -20 CURVE SMOOTH"
);
},
{
closed = 1;
nodes = (
"288 140 OFFCURVE",
"230 260 OFFCURVE",
"230 410 CURVE SMOOTH",
"230 638 OFFCURVE",
"362 840 OFFCURVE",
"538 840 CURVE",
"654 840 OFFCURVE",
"742 754 OFFCURVE",
"742 554 CURVE SMOOTH",
"742 284 OFFCURVE",
"580 140 OFFCURVE",
"428 140 CURVE SMOOTH"
);
}
);
width = 1040;
}
);
leftKerningGroup = o;
unicode = 0064;
},
{
glyphname = eth;
layers = (
{
background = {
paths = (
{
closed = 1;
nodes = (
"566 -24 OFFCURVE",
"886 116 OFFCURVE",
"886 684 CURVE SMOOTH",
"886 890 OFFCURVE",
"836 1110 OFFCURVE",
"744 1228 CURVE",
"810 1296 OFFCURVE",
"852 1340 OFFCURVE",
"898 1396 CURVE",
"808 1420 LINE",
"774 1378 OFFCURVE",
"738 1344 OFFCURVE",
"682 1292 CURVE",
"600 1370 OFFCURVE",
"510 1402 OFFCURVE",
"434 1402 CURVE",
"356 1318 LINE",
"430 1318 OFFCURVE",
"498 1280 OFFCURVE",
"554 1210 CURVE",
"452 1140 OFFCURVE",
"374 1116 OFFCURVE",
"310 1106 CURVE",
"350 996 LINE",
"436 1008 OFFCURVE",
"524 1048 OFFCURVE",
"622 1120 CURVE",
"684 1048 OFFCURVE",
"710 858 OFFCURVE",
"700 742 CURVE",
"666 790 OFFCURVE",
"604 852 OFFCURVE",
"488 852 CURVE SMOOTH",
"190 852 OFFCURVE",
"20 548 OFFCURVE",
"20 332 CURVE SMOOTH",
"20 124 OFFCURVE",
"154 -24 OFFCURVE",
"354 -24 CURVE SMOOTH"
);
},
{
closed = 1;
nodes = (
"594 686 OFFCURVE",
"652 600 OFFCURVE",
"652 476 CURVE SMOOTH",
"652 288 OFFCURVE",
"526 142 OFFCURVE",
"388 142 CURVE SMOOTH",
"272 142 OFFCURVE",
"214 240 OFFCURVE",
"214 362 CURVE SMOOTH",
"214 526 OFFCURVE",
"324 686 OFFCURVE",
"484 686 CURVE SMOOTH"
);
}
);
};
layerId = UUID0;
paths = (
{
closed = 1;
nodes = (
"664 -24 OFFCURVE",
"886 246 OFFCURVE",
"886 684 CURVE SMOOTH",
"886 1036 OFFCURVE",
"720 1306 OFFCURVE",
"434 1402 CURVE",
"370 1318 LINE",
"578 1216 OFFCURVE",
"700 1016 OFFCURVE",
"700 742 CURVE",
"664 790 OFFCURVE",
"596 852 OFFCURVE",
"470 852 CURVE SMOOTH",
"210 852 OFFCURVE",
"20 616 OFFCURVE",
"20 340 CURVE SMOOTH",
"20 134 OFFCURVE",
"146 -24 OFFCURVE",
"378 -24 CURVE SMOOTH"
);
},
{
closed = 1;
nodes = (
"274 142 OFFCURVE",
"214 242 OFFCURVE",
"214 368 CURVE SMOOTH",
"214 540 OFFCURVE",
"324 686 OFFCURVE",
"484 686 CURVE SMOOTH",
"594 686 OFFCURVE",
"652 600 OFFCURVE",
"652 476 CURVE SMOOTH",
"652 288 OFFCURVE",
"538 142 OFFCURVE",
"394 142 CURVE SMOOTH"
);
},
{
closed = 1;
nodes = (
"912 1246 LINE",
"862 1358 LINE",
"306 1122 LINE",
"358 1010 LINE"
);
}
);
width = 974;
},
{
layerId = "D879A026-05F7-4E99-AC55-D533E46CE7AB";
paths = (
{
closed = 1;
nodes = (
"730 -26 OFFCURVE",
"924 258 OFFCURVE",
"924 644 CURVE SMOOTH",
"924 1028 OFFCURVE",
"698 1278 OFFCURVE",
"432 1402 CURVE",
"356 1288 LINE",
"576 1184 OFFCURVE",
"718 962 OFFCURVE",
"718 726 CURVE",
"674 794 OFFCURVE",
"594 852 OFFCURVE",
"468 852 CURVE SMOOTH",
"182 852 OFFCURVE",
"4 610 OFFCURVE",
"4 350 CURVE SMOOTH",
"4 130 OFFCURVE",
"162 -26 OFFCURVE",
"396 -26 CURVE SMOOTH"
);
},
{
closed = 1;
nodes = (
"306 176 OFFCURVE",
"242 258 OFFCURVE",
"242 374 CURVE SMOOTH",
"242 514 OFFCURVE",
"334 658 OFFCURVE",
"488 658 CURVE SMOOTH",
"604 658 OFFCURVE",
"662 578 OFFCURVE",
"662 448 CURVE SMOOTH",
"662 256 OFFCURVE",
"530 176 OFFCURVE",
"426 176 CURVE SMOOTH"
);
},
{
closed = 1;
nodes = (
"924 1204 LINE",
"862 1338 LINE",
"306 1100 LINE",
"370 966 LINE"
);
}
);
width = 1000;
},
{
associatedMasterId = UUID0;
background = {
paths = (
{
closed = 1;
nodes = (
"566 -24 OFFCURVE",
"886 116 OFFCURVE",
"886 684 CURVE SMOOTH",
"886 890 OFFCURVE",
"836 1110 OFFCURVE",
"744 1228 CURVE",
"810 1296 OFFCURVE",
"852 1340 OFFCURVE",
"898 1396 CURVE",
"808 1420 LINE",
"774 1378 OFFCURVE",
"738 1344 OFFCURVE",
"682 1292 CURVE",
"600 1370 OFFCURVE",
"510 1402 OFFCURVE",
"434 1402 CURVE",
"356 1318 LINE",
"430 1318 OFFCURVE",
"498 1280 OFFCURVE",
"554 1210 CURVE",
"452 1140 OFFCURVE",
"374 1116 OFFCURVE",
"310 1106 CURVE",
"350 996 LINE",
"436 1008 OFFCURVE",
"524 1048 OFFCURVE",
"622 1120 CURVE",
"684 1048 OFFCURVE",
"710 858 OFFCURVE",
"700 742 CURVE",
"666 790 OFFCURVE",
"604 852 OFFCURVE",
"488 852 CURVE SMOOTH",
"190 852 OFFCURVE",
"20 548 OFFCURVE",
"20 332 CURVE SMOOTH",
"20 124 OFFCURVE",
"154 -24 OFFCURVE",
"354 -24 CURVE SMOOTH"
);
},
{
closed = 1;
nodes = (
"594 686 OFFCURVE",
"652 600 OFFCURVE",
"652 476 CURVE SMOOTH",
"652 288 OFFCURVE",
"526 142 OFFCURVE",
"388 142 CURVE SMOOTH",
"272 142 OFFCURVE",
"214 240 OFFCURVE",
"214 362 CURVE SMOOTH",
"214 526 OFFCURVE",
"324 686 OFFCURVE",
"484 686 CURVE SMOOTH"
);
}
);
};
layerId = "38DFCE8A-DB93-4CA0-BF15-A6737D6D8D61";
name = "Regular Sep 23 16, 11:17";
paths = (
{
closed = 1;
nodes = (
"588 1234 LINE",
"468 1146 OFFCURVE",
"380 1118 OFFCURVE",
"310 1106 CURVE",
"350 996 LINE",
"444 1010 OFFCURVE",
"540 1056 OFFCURVE",
"650 1142 CURVE"
);
},
{
closed = 1;
nodes = (
"272 142 OFFCURVE",
"214 240 OFFCURVE",
"214 362 CURVE SMOOTH",
"214 526 OFFCURVE",
"324 686 OFFCURVE",
"484 686 CURVE SMOOTH",
"594 686 OFFCURVE",
"652 600 OFFCURVE",
"652 476 CURVE SMOOTH",
"652 288 OFFCURVE",
"526 142 OFFCURVE",
"388 142 CURVE SMOOTH"
);
},
{
closed = 1;
nodes = (
"702 1272 LINE",
"614 1364 OFFCURVE",
"516 1402 OFFCURVE",
"434 1402 CURVE",
"356 1318 LINE",
"438 1318 OFFCURVE",
"514 1270 OFFCURVE",
"574 1184 CURVE",
"608 1134 LINE",
"682 1076 OFFCURVE",
"700 866 OFFCURVE",
"700 742 CURVE",
"664 790 OFFCURVE",
"596 852 OFFCURVE",
"470 852 CURVE SMOOTH",
"184 852 OFFCURVE",
"20 548 OFFCURVE",
"20 332 CURVE SMOOTH",
"20 124 OFFCURVE",
"154 -24 OFFCURVE",
"354 -24 CURVE SMOOTH",
"566 -24 OFFCURVE",
"886 116 OFFCURVE",
"886 684 CURVE SMOOTH",
"886 898 OFFCURVE",
"832 1128 OFFCURVE",
"734 1242 CURVE"
);
},
{
closed = 1;
nodes = (
"724 1208 LINE",
"802 1288 OFFCURVE",
"848 1334 OFFCURVE",
"898 1396 CURVE",
"808 1420 LINE",
"770 1372 OFFCURVE",
"730 1336 OFFCURVE",
"660 1272 CURVE"
);
}
);
width = 974;
},
{
associatedMasterId = "D879A026-05F7-4E99-AC55-D533E46CE7AB";
background = {
paths = (
{
closed = 1;
nodes = (
"606 -26 OFFCURVE",
"924 124 OFFCURVE",
"924 676 CURVE SMOOTH",
"924 880 OFFCURVE",
"868 1080 OFFCURVE",
"784 1202 CURVE",
"840 1258 OFFCURVE",
"894 1322 OFFCURVE",
"950 1390 CURVE",
"820 1422 LINE",
"786 1380 OFFCURVE",
"738 1338 OFFCURVE",
"692 1298 CURVE",
"618 1364 OFFCURVE",
"530 1400 OFFCURVE",
"432 1402 CURVE",
"332 1296 LINE",
"410 1294 OFFCURVE",
"482 1256 OFFCURVE",
"540 1196 CURVE",
"454 1142 OFFCURVE",
"362 1108 OFFCURVE",
"296 1108 CURVE",
"348 962 LINE",
"448 972 OFFCURVE",
"544 1014 OFFCURVE",
"630 1076 CURVE",
"684 1032 OFFCURVE",
"708 848 OFFCURVE",
"702 774 CURVE",
"656 816 OFFCURVE",
"600 852 OFFCURVE",
"496 852 CURVE SMOOTH",
"192 852 OFFCURVE",
"4 578 OFFCURVE",
"4 340 CURVE SMOOTH",
"4 126 OFFCURVE",
"152 -26 OFFCURVE",
"370 -26 CURVE SMOOTH"
);
},
{
closed = 1;
nodes = (
"604 658 OFFCURVE",
"662 588 OFFCURVE",
"662 472 CURVE SMOOTH",
"662 262 OFFCURVE",
"522 176 OFFCURVE",
"410 176 CURVE SMOOTH",
"290 176 OFFCURVE",
"242 272 OFFCURVE",
"242 382 CURVE SMOOTH",
"242 514 OFFCURVE",
"330 658 OFFCURVE",
"488 658 CURVE SMOOTH"
);
}
);
};
layerId = "92AD2F06-2565-44F4-A8E3-3D78650E5585";
name = "Bold Sep 23 16, 11:20";
paths = (
{
closed = 1;
nodes = (
"606 -26 OFFCURVE",
"924 124 OFFCURVE",
"924 676 CURVE SMOOTH",
"924 880 OFFCURVE",
"868 1080 OFFCURVE",
"784 1202 CURVE",
"840 1258 OFFCURVE",
"894 1322 OFFCURVE",
"950 1390 CURVE",
"820 1422 LINE",
"786 1380 OFFCURVE",
"738 1338 OFFCURVE",
"692 1298 CURVE",
"618 1364 OFFCURVE",
"530 1400 OFFCURVE",
"432 1402 CURVE",
"332 1296 LINE",
"410 1294 OFFCURVE",
"482 1256 OFFCURVE",
"540 1196 CURVE",
"454 1142 OFFCURVE",
"362 1108 OFFCURVE",
"296 1108 CURVE",
"348 962 LINE",
"448 972 OFFCURVE",
"544 1014 OFFCURVE",
"630 1076 CURVE",
"684 1032 OFFCURVE",
"708 848 OFFCURVE",
"702 774 CURVE",
"656 816 OFFCURVE",
"600 852 OFFCURVE",
"496 852 CURVE SMOOTH",
"192 852 OFFCURVE",
"4 578 OFFCURVE",
"4 340 CURVE SMOOTH",
"4 126 OFFCURVE",
"152 -26 OFFCURVE",
"370 -26 CURVE"
);
},
{
closed = 1;
nodes = (
"290 176 OFFCURVE",
"242 272 OFFCURVE",
"242 382 CURVE SMOOTH",
"242 514 OFFCURVE",
"330 658 OFFCURVE",
"488 658 CURVE SMOOTH",
"604 658 OFFCURVE",
"662 588 OFFCURVE",
"662 472 CURVE SMOOTH",
"662 262 OFFCURVE",
"522 176 OFFCURVE",
"410 176 CURVE SMOOTH"
);
}
);
width = 1000;
}
);
unicode = 00F0;
},
{
glyphname = e;
layers = (
{
anchors = (
{
name = bottom;
position = "{466, 0}";
},
{
name = ogonek;
position = "{696, 56}";
},
{
name = top;
position = "{594, 980}";
}
);
background = {
paths = (
{
closed = 1;
nodes = (
"868 898 OFFCURVE",
"766 1000 OFFCURVE",
"576 1000 CURVE SMOOTH",
"256 1000 OFFCURVE",
"42 714 OFFCURVE",
"42 404 CURVE SMOOTH",
"42 166 OFFCURVE",
"170 -20 OFFCURVE",
"442 -20 CURVE SMOOTH",
"570 -20 OFFCURVE",
"678 22 OFFCURVE",
"752 56 CURVE",
"760 198 LINE",
"674 158 OFFCURVE",
"568 140 OFFCURVE",
"490 140 CURVE SMOOTH",
"348 140 OFFCURVE",
"236 200 OFFCURVE",
"236 436 CURVE",
"264 430 OFFCURVE",
"330 420 OFFCURVE",
"412 420 CURVE SMOOTH",
"764 420 OFFCURVE",
"868 602 OFFCURVE",
"868 750 CURVE SMOOTH"
);
},
{
closed = 1;
nodes = (
"636 840 OFFCURVE",
"702 808 OFFCURVE",
"702 728 CURVE SMOOTH",
"702 648 OFFCURVE",
"636 542 OFFCURVE",
"396 542 CURVE SMOOTH",
"308 542 OFFCURVE",
"298 556 OFFCURVE",
"256 562 CURVE",
"324 756 OFFCURVE",
"434 840 OFFCURVE",
"558 840 CURVE SMOOTH"
);
}
);
};
layerId = UUID0;
paths = (
{
closed = 1;
nodes = (
"570 -20 OFFCURVE",
"676 12 OFFCURVE",
"752 56 CURVE",
"760 198 LINE",
"674 158 OFFCURVE",
"568 140 OFFCURVE",
"490 140 CURVE SMOOTH",
"348 140 OFFCURVE",
"236 200 OFFCURVE",
"236 436 CURVE",
"264 430 OFFCURVE",
"340 420 OFFCURVE",
"412 420 CURVE SMOOTH",
"764 420 OFFCURVE",
"868 602 OFFCURVE",
"868 750 CURVE SMOOTH",
"868 898 OFFCURVE",
"766 1000 OFFCURVE",
"576 1000 CURVE SMOOTH",
"256 1000 OFFCURVE",
"42 714 OFFCURVE",
"42 404 CURVE SMOOTH",
"42 166 OFFCURVE",
"170 -20 OFFCURVE",
"442 -20 CURVE SMOOTH"
);
},
{
closed = 1;
nodes = (
"330 542 OFFCURVE",
"286 552 OFFCURVE",
"256 562 CURVE",
"324 756 OFFCURVE",
"434 840 OFFCURVE",
"558 840 CURVE SMOOTH",
"636 840 OFFCURVE",
"702 808 OFFCURVE",
"702 728 CURVE SMOOTH",
"702 648 OFFCURVE",
"636 542 OFFCURVE",
"396 542 CURVE SMOOTH"
);
}
);
width = 916;
},
{
anchors = (
{
name = bottom;
position = "{502, 0}";
},
{
name = ogonek;
position = "{748, 56}";
},
{
name = top;
position = "{616, 1000}";
}
);
background = {
paths = (
{
closed = 1;
nodes = (
"926 900 OFFCURVE",
"812 1016 OFFCURVE",
"600 1016 CURVE SMOOTH",
"258 1016 OFFCURVE",
"36 716 OFFCURVE",
"36 410 CURVE SMOOTH",
"36 170 OFFCURVE",
"174 -20 OFFCURVE",
"478 -20 CURVE SMOOTH",
"610 -20 OFFCURVE",
"732 16 OFFCURVE",
"812 56 CURVE",
"840 266 LINE",
"754 222 OFFCURVE",
"616 184 OFFCURVE",
"526 184 CURVE SMOOTH",
"416 184 OFFCURVE",
"306 244 OFFCURVE",
"296 410 CURVE",
"322 404 OFFCURVE",
"382 398 OFFCURVE",
"448 398 CURVE SMOOTH",
"698 398 OFFCURVE",
"926 482 OFFCURVE",
"926 726 CURVE SMOOTH"
);
},
{
closed = 1;
nodes = (
"626 812 OFFCURVE",
"718 804 OFFCURVE",
"718 714 CURVE SMOOTH",
"718 638 OFFCURVE",
"652 560 OFFCURVE",
"408 560 CURVE SMOOTH",
"370 560 OFFCURVE",
"340 562 OFFCURVE",
"316 568 CURVE",
"342 660 OFFCURVE",
"434 812 OFFCURVE",
"590 812 CURVE SMOOTH"
);
}
);
};
layerId = "D879A026-05F7-4E99-AC55-D533E46CE7AB";
paths = (
{
closed = 1;
nodes = (
"614 -20 OFFCURVE",
"730 12 OFFCURVE",
"812 56 CURVE",
"840 266 LINE",
"754 220 OFFCURVE",
"646 184 OFFCURVE",
"526 184 CURVE SMOOTH",
"416 184 OFFCURVE",
"306 244 OFFCURVE",
"296 410 CURVE",
"322 404 OFFCURVE",
"382 398 OFFCURVE",
"448 398 CURVE SMOOTH",
"698 398 OFFCURVE",
"926 482 OFFCURVE",
"926 726 CURVE SMOOTH",
"926 900 OFFCURVE",
"812 1016 OFFCURVE",
"600 1016 CURVE SMOOTH",
"258 1016 OFFCURVE",
"36 716 OFFCURVE",
"36 410 CURVE SMOOTH",
"36 170 OFFCURVE",
"174 -20 OFFCURVE",
"478 -20 CURVE SMOOTH"
);
},
{
closed = 1;
nodes = (
"370 560 OFFCURVE",
"340 562 OFFCURVE",
"316 568 CURVE",
"342 660 OFFCURVE",
"434 812 OFFCURVE",
"590 812 CURVE SMOOTH",
"626 812 OFFCURVE",
"718 804 OFFCURVE",
"718 714 CURVE SMOOTH",
"718 638 OFFCURVE",
"652 560 OFFCURVE",
"408 560 CURVE SMOOTH"
);
}
);
width = 976;
},
{
anchors = (
{
name = bottom;
position = "{488, 0}";
},
{
name = ogonek;
position = "{878, 20}";
},
{
name = top;
position = "{616, 1000}";
}
);
associatedMasterId = "D879A026-05F7-4E99-AC55-D533E46CE7AB";
background = {
paths = (
{
closed = 1;
nodes = (
"926 900 OFFCURVE",
"812 1016 OFFCURVE",
"600 1016 CURVE SMOOTH",
"258 1016 OFFCURVE",
"36 716 OFFCURVE",
"36 410 CURVE SMOOTH",
"36 170 OFFCURVE",
"174 -20 OFFCURVE",
"478 -20 CURVE SMOOTH",
"610 -20 OFFCURVE",
"732 16 OFFCURVE",
"812 56 CURVE",
"840 266 LINE",
"754 222 OFFCURVE",
"616 184 OFFCURVE",
"526 184 CURVE SMOOTH",
"416 184 OFFCURVE",
"306 244 OFFCURVE",
"296 410 CURVE",
"322 404 OFFCURVE",
"382 398 OFFCURVE",
"448 398 CURVE SMOOTH",
"698 398 OFFCURVE",
"926 482 OFFCURVE",
"926 726 CURVE SMOOTH"
);
},
{
closed = 1;
nodes = (
"626 812 OFFCURVE",
"718 804 OFFCURVE",
"718 714 CURVE SMOOTH",
"718 638 OFFCURVE",
"652 560 OFFCURVE",
"408 560 CURVE SMOOTH",
"370 560 OFFCURVE",
"340 562 OFFCURVE",
"316 568 CURVE",
"342 660 OFFCURVE",
"434 812 OFFCURVE",
"590 812 CURVE SMOOTH"
);
}
);
};
layerId = "55F38771-8C29-428D-BFD0-BAB395BC479A";
name = "Bold Sep 23 16, 10:41";
paths = (
{
closed = 1;
nodes = (
"610 -20 OFFCURVE",
"732 16 OFFCURVE",
"812 56 CURVE",
"840 266 LINE",
"754 222 OFFCURVE",
"616 184 OFFCURVE",
"526 184 CURVE SMOOTH",
"416 184 OFFCURVE",
"306 244 OFFCURVE",
"296 410 CURVE",
"322 404 OFFCURVE",
"382 398 OFFCURVE",
"448 398 CURVE SMOOTH",
"698 398 OFFCURVE",
"926 482 OFFCURVE",
"926 726 CURVE SMOOTH",
"926 900 OFFCURVE",
"812 1016 OFFCURVE",
"600 1016 CURVE SMOOTH",
"258 1016 OFFCURVE",
"36 716 OFFCURVE",
"36 410 CURVE SMOOTH",
"36 170 OFFCURVE",
"174 -20 OFFCURVE",
"478 -20 CURVE SMOOTH"
);
},
{
closed = 1;
nodes = (
"370 560 OFFCURVE",
"340 562 OFFCURVE",
"316 568 CURVE",
"342 660 OFFCURVE",
"434 812 OFFCURVE",
"590 812 CURVE SMOOTH",
"626 812 OFFCURVE",
"718 804 OFFCURVE",
"718 714 CURVE SMOOTH",
"718 638 OFFCURVE",
"652 560 OFFCURVE",
"408 560 CURVE SMOOTH"
);
}
);
width = 976;
},
{
anchors = (
{
name = bottom;
position = "{402, 0}";
},
{
name = ogonek;
position = "{824, 20}";
},
{
name = top;
position = "{592, 980}";
}
);
associatedMasterId = UUID0;
background = {
paths = (
{
closed = 1;
nodes = (
"868 898 OFFCURVE",
"766 1000 OFFCURVE",
"576 1000 CURVE SMOOTH",
"256 1000 OFFCURVE",
"42 714 OFFCURVE",
"42 404 CURVE SMOOTH",
"42 166 OFFCURVE",
"170 -20 OFFCURVE",
"442 -20 CURVE SMOOTH",
"570 -20 OFFCURVE",
"678 22 OFFCURVE",
"752 56 CURVE",
"760 198 LINE",
"674 158 OFFCURVE",
"568 140 OFFCURVE",
"490 140 CURVE SMOOTH",
"348 140 OFFCURVE",
"236 200 OFFCURVE",
"236 436 CURVE",
"264 430 OFFCURVE",
"330 420 OFFCURVE",
"412 420 CURVE SMOOTH",
"764 420 OFFCURVE",
"868 602 OFFCURVE",
"868 750 CURVE SMOOTH"
);
},
{
closed = 1;
nodes = (
"636 840 OFFCURVE",
"702 808 OFFCURVE",
"702 728 CURVE SMOOTH",
"702 648 OFFCURVE",
"636 542 OFFCURVE",
"396 542 CURVE SMOOTH",
"308 542 OFFCURVE",
"298 556 OFFCURVE",
"256 562 CURVE",
"324 756 OFFCURVE",
"434 840 OFFCURVE",
"558 840 CURVE SMOOTH"
);
}
);
};
layerId = "90F82857-0CCF-47FD-AB2D-F67759F9456C";
name = "Regular Sep 23 16, 10:41";
paths = (
{
closed = 1;
nodes = (
"570 -20 OFFCURVE",
"678 22 OFFCURVE",
"752 56 CURVE",
"760 198 LINE",
"674 158 OFFCURVE",
"568 140 OFFCURVE",
"490 140 CURVE SMOOTH",
"348 140 OFFCURVE",
"236 200 OFFCURVE",
"236 436 CURVE",
"264 430 OFFCURVE",
"330 420 OFFCURVE",
"412 420 CURVE SMOOTH",
"764 420 OFFCURVE",
"868 602 OFFCURVE",
"868 750 CURVE SMOOTH",
"868 898 OFFCURVE",
"766 1000 OFFCURVE",
"576 1000 CURVE SMOOTH",
"256 1000 OFFCURVE",
"42 714 OFFCURVE",
"42 404 CURVE SMOOTH",
"42 166 OFFCURVE",
"170 -20 OFFCURVE",
"442 -20 CURVE SMOOTH"
);
},
{
closed = 1;
nodes = (
"308 542 OFFCURVE",
"298 556 OFFCURVE",
"256 562 CURVE",
"324 756 OFFCURVE",
"434 840 OFFCURVE",
"558 840 CURVE SMOOTH",
"636 840 OFFCURVE",
"702 808 OFFCURVE",
"702 728 CURVE SMOOTH",
"702 648 OFFCURVE",
"636 542 OFFCURVE",
"396 542 CURVE SMOOTH"
);
}
);
width = 916;
}
);
leftKerningGroup = o;
rightKerningGroup = e;
unicode = 0065;
},
{
glyphname = f;
layers = (
{
background = {
paths = (
{
closed = 1;
nodes = (
"622 840 LINE",
"648 980 LINE",
"422 980 LINE",
"444 1100 LINE SMOOTH",
"480 1300 OFFCURVE",
"496 1340 OFFCURVE",
"576 1340 CURVE SMOOTH",
"604 1340 OFFCURVE",
"640 1336 OFFCURVE",
"676 1322 CURVE",
"726 1474 LINE",
"680 1490 OFFCURVE",
"648 1500 OFFCURVE",
"542 1500 CURVE SMOOTH",
"402 1500 OFFCURVE",
"312 1386 OFFCURVE",
"284 1228 CURVE SMOOTH",
"240 980 LINE",
"116 980 LINE",
"72 840 LINE",
"216 840 LINE",
"68 0 LINE",
"250 0 LINE",
"398 840 LINE"
);
}
);
};
layerId = UUID0;
paths = (
{
closed = 1;
nodes = (
"250 0 LINE",
"398 840 LINE",
"622 840 LINE",
"648 980 LINE",
"422 980 LINE",
"444 1100 LINE SMOOTH",
"480 1300 OFFCURVE",
"496 1340 OFFCURVE",
"578 1340 CURVE SMOOTH",
"604 1340 OFFCURVE",
"640 1336 OFFCURVE",
"676 1322 CURVE",
"726 1474 LINE",
"710 1480 OFFCURVE",
"652 1500 OFFCURVE",
"574 1500 CURVE SMOOTH",
"386 1500 OFFCURVE",
"312 1386 OFFCURVE",
"284 1228 CURVE SMOOTH",
"240 980 LINE",
"116 980 LINE",
"72 840 LINE",
"216 840 LINE",
"68 0 LINE"
);
}
);
width = 606;
},
{
background = {
paths = (
{
closed = 1;
nodes = (
"664 796 LINE",
"700 1000 LINE",
"494 1000 LINE",
"518 1136 LINE SMOOTH",
"540 1258 OFFCURVE",
"562 1292 OFFCURVE",
"630 1292 CURVE SMOOTH",
"642 1292 OFFCURVE",
"688 1292 OFFCURVE",
"728 1282 CURVE",
"786 1488 LINE",
"720 1494 OFFCURVE",
"696 1500 OFFCURVE",
"566 1500 CURVE SMOOTH",
"410 1500 OFFCURVE",
"310 1368 OFFCURVE",
"288 1238 CURVE SMOOTH",
"246 1000 LINE",
"136 1000 LINE",
"78 796 LINE",
"210 796 LINE",
"70 0 LINE",
"318 0 LINE",
"458 796 LINE"
);
}
);
};
layerId = "D879A026-05F7-4E99-AC55-D533E46CE7AB";
paths = (
{
closed = 1;
nodes = (
"318 0 LINE",
"458 796 LINE",
"664 796 LINE",
"700 1000 LINE",
"494 1000 LINE",
"518 1136 LINE SMOOTH",
"540 1258 OFFCURVE",
"554 1292 OFFCURVE",
"648 1292 CURVE SMOOTH",
"670 1292 OFFCURVE",
"684 1290 OFFCURVE",
"728 1282 CURVE",
"786 1488 LINE",
"728 1494 OFFCURVE",
"660 1500 OFFCURVE",
"612 1500 CURVE SMOOTH",
"384 1500 OFFCURVE",
"310 1368 OFFCURVE",
"288 1238 CURVE SMOOTH",
"246 1000 LINE",
"136 1000 LINE",
"78 796 LINE",
"210 796 LINE",
"70 0 LINE"
);
}
);
width = 670;
},
{
associatedMasterId = "D879A026-05F7-4E99-AC55-D533E46CE7AB";
background = {
paths = (
{
closed = 1;
nodes = (
"664 796 LINE",
"700 1000 LINE",
"494 1000 LINE",
"518 1136 LINE SMOOTH",
"540 1258 OFFCURVE",
"562 1292 OFFCURVE",
"630 1292 CURVE SMOOTH",
"642 1292 OFFCURVE",
"688 1292 OFFCURVE",
"728 1282 CURVE",
"786 1488 LINE",
"720 1494 OFFCURVE",
"696 1500 OFFCURVE",
"566 1500 CURVE SMOOTH",
"410 1500 OFFCURVE",
"310 1368 OFFCURVE",
"288 1238 CURVE SMOOTH",
"246 1000 LINE",
"136 1000 LINE",
"78 796 LINE",
"210 796 LINE",
"70 0 LINE",
"318 0 LINE",
"458 796 LINE"
);
}
);
};
layerId = "C58426F6-E4D9-4F80-9E17-B37B741D72C4";
name = "Bold Sep 23 16, 10:41";
paths = (
{
closed = 1;
nodes = (
"318 0 LINE",
"458 796 LINE",
"664 796 LINE",
"700 1000 LINE",
"494 1000 LINE",
"518 1136 LINE SMOOTH",
"540 1258 OFFCURVE",
"554 1292 OFFCURVE",
"648 1292 CURVE SMOOTH",
"670 1292 OFFCURVE",
"684 1290 OFFCURVE",
"728 1282 CURVE",
"786 1488 LINE",
"728 1494 OFFCURVE",
"660 1500 OFFCURVE",
"612 1500 CURVE SMOOTH",
"384 1500 OFFCURVE",
"310 1368 OFFCURVE",
"288 1238 CURVE SMOOTH",
"246 1000 LINE",
"136 1000 LINE",
"78 796 LINE",
"210 796 LINE",
"70 0 LINE"
);
}
);
width = 670;
},
{
associatedMasterId = UUID0;
background = {
paths = (
{
closed = 1;
nodes = (
"622 840 LINE",
"648 980 LINE",
"422 980 LINE",
"444 1100 LINE SMOOTH",
"480 1300 OFFCURVE",
"496 1340 OFFCURVE",
"576 1340 CURVE SMOOTH",
"604 1340 OFFCURVE",
"640 1336 OFFCURVE",
"676 1322 CURVE",
"726 1474 LINE",
"680 1490 OFFCURVE",
"648 1500 OFFCURVE",
"542 1500 CURVE SMOOTH",
"402 1500 OFFCURVE",
"312 1386 OFFCURVE",
"284 1228 CURVE SMOOTH",
"240 980 LINE",
"116 980 LINE",
"72 840 LINE",
"216 840 LINE",
"68 0 LINE",
"250 0 LINE",
"398 840 LINE"
);
}
);
};
layerId = "D29048D6-0E9A-4D55-B11B-FC0FE9938D94";
name = "Regular Sep 23 16, 10:41";
paths = (
{
closed = 1;
nodes = (
"250 0 LINE",
"398 840 LINE",
"622 840 LINE",
"648 980 LINE",
"422 980 LINE",
"444 1100 LINE SMOOTH",
"480 1300 OFFCURVE",
"496 1340 OFFCURVE",
"578 1340 CURVE SMOOTH",
"604 1340 OFFCURVE",
"640 1336 OFFCURVE",
"676 1322 CURVE",
"726 1474 LINE",
"710 1480 OFFCURVE",
"652 1500 OFFCURVE",
"574 1500 CURVE SMOOTH",
"386 1500 OFFCURVE",
"312 1386 OFFCURVE",
"284 1228 CURVE SMOOTH",
"240 980 LINE",
"116 980 LINE",
"72 840 LINE",
"216 840 LINE",
"68 0 LINE"
);
}
);
width = 606;
}
);
leftKerningGroup = f;
unicode = 0066;
},
{
glyphname = g;
layers = (
{
anchors = (
{
name = bottom;
position = "{296, -484}";
},
{
name = top;
position = "{498, 980}";
}
);
background = {
paths = (
{
closed = 1;
nodes = (
"596 -500 OFFCURVE",
"780 -328 OFFCURVE",
"780 -160 CURVE SMOOTH",
"780 6 OFFCURVE",
"584 54 OFFCURVE",
"464 80 CURVE SMOOTH",
"292 116 OFFCURVE",
"224 132 OFFCURVE",
"224 178 CURVE SMOOTH",
"224 204 OFFCURVE",
"244 226 OFFCURVE",
"270 244 CURVE",
"304 232 OFFCURVE",
"344 226 OFFCURVE",
"384 226 CURVE SMOOTH",
"648 226 OFFCURVE",
"818 460 OFFCURVE",
"818 674 CURVE SMOOTH",
"818 726 OFFCURVE",
"808 792 OFFCURVE",
"780 850 CURVE",
"814 860 OFFCURVE",
"858 864 OFFCURVE",
"870 864 CURVE SMOOTH",
"924 864 LINE",
"962 984 LINE",
"934 984 LINE SMOOTH",
"848 984 OFFCURVE",
"772 960 OFFCURVE",
"718 928 CURVE",
"660 978 OFFCURVE",
"594 1000 OFFCURVE",
"512 1000 CURVE SMOOTH",
"240 1000 OFFCURVE",
"74 778 OFFCURVE",
"74 546 CURVE SMOOTH",
"74 464 OFFCURVE",
"98 364 OFFCURVE",
"172 286 CURVE",
"80 238 OFFCURVE",
"46 162 OFFCURVE",
"46 128 CURVE SMOOTH",
"46 98 OFFCURVE",
"60 50 OFFCURVE",
"112 16 CURVE",
"-40 -46 OFFCURVE",
"-84 -174 OFFCURVE",
"-84 -238 CURVE SMOOTH",
"-84 -358 OFFCURVE",
"10 -500 OFFCURVE",
"284 -500 CURVE SMOOTH"
);
},
{
closed = 1;
nodes = (
"588 856 OFFCURVE",
"648 790 OFFCURVE",
"648 672 CURVE SMOOTH",
"648 512 OFFCURVE",
"554 364 OFFCURVE",
"404 364 CURVE SMOOTH",
"304 364 OFFCURVE",
"244 436 OFFCURVE",
"244 556 CURVE SMOOTH",
"244 720 OFFCURVE",
"336 856 OFFCURVE",
"488 856 CURVE SMOOTH"
);
},
{
closed = 1;
nodes = (
"602 -272 OFFCURVE",
"488 -360 OFFCURVE",
"310 -360 CURVE SMOOTH",
"162 -360 OFFCURVE",
"82 -298 OFFCURVE",
"82 -218 CURVE SMOOTH",
"82 -142 OFFCURVE",
"162 -58 OFFCURVE",
"250 -28 CURVE",
"372 -68 OFFCURVE",
"602 -68 OFFCURVE",
"602 -192 CURVE SMOOTH"
);
}
);
};
layerId = UUID0;
paths = (
{
closed = 1;
nodes = (
"592 -500 OFFCURVE",
"780 -328 OFFCURVE",
"780 -162 CURVE SMOOTH",
"780 6 OFFCURVE",
"586 54 OFFCURVE",
"464 80 CURVE SMOOTH",
"292 116 OFFCURVE",
"224 132 OFFCURVE",
"224 178 CURVE SMOOTH",
"224 204 OFFCURVE",
"244 226 OFFCURVE",
"270 244 CURVE",
"304 232 OFFCURVE",
"344 226 OFFCURVE",
"386 226 CURVE SMOOTH",
"648 226 OFFCURVE",
"818 460 OFFCURVE",
"818 674 CURVE SMOOTH",
"818 726 OFFCURVE",
"808 792 OFFCURVE",
"780 850 CURVE",
"814 860 OFFCURVE",
"858 864 OFFCURVE",
"870 864 CURVE SMOOTH",
"924 864 LINE",
"962 984 LINE",
"934 984 LINE SMOOTH",
"848 984 OFFCURVE",
"772 960 OFFCURVE",
"718 928 CURVE",
"660 978 OFFCURVE",
"594 1000 OFFCURVE",
"510 1000 CURVE SMOOTH",
"240 1000 OFFCURVE",
"74 776 OFFCURVE",
"74 548 CURVE SMOOTH",
"74 462 OFFCURVE",
"98 364 OFFCURVE",
"172 286 CURVE",
"80 238 OFFCURVE",
"46 164 OFFCURVE",
"46 124 CURVE SMOOTH",
"46 98 OFFCURVE",
"62 48 OFFCURVE",
"112 16 CURVE",
"-46 -50 OFFCURVE",
"-84 -176 OFFCURVE",
"-84 -246 CURVE SMOOTH",
"-84 -356 OFFCURVE",
"10 -500 OFFCURVE",
"288 -500 CURVE SMOOTH"
);
},
{
closed = 1;
nodes = (
"162 -360 OFFCURVE",
"82 -298 OFFCURVE",
"82 -220 CURVE SMOOTH",
"82 -142 OFFCURVE",
"162 -58 OFFCURVE",
"250 -28 CURVE",
"366 -66 OFFCURVE",
"602 -70 OFFCURVE",
"602 -190 CURVE SMOOTH",
"602 -272 OFFCURVE",
"490 -360 OFFCURVE",
"312 -360 CURVE SMOOTH"
);
},
{
closed = 1;
nodes = (
"304 364 OFFCURVE",
"244 434 OFFCURVE",
"244 560 CURVE SMOOTH",
"244 716 OFFCURVE",
"336 856 OFFCURVE",
"486 856 CURVE SMOOTH",
"588 856 OFFCURVE",
"648 792 OFFCURVE",
"648 668 CURVE SMOOTH",
"648 514 OFFCURVE",
"554 364 OFFCURVE",
"406 364 CURVE SMOOTH"
);
}
);
width = 918;
},
{
anchors = (
{
name = bottom;
position = "{314, -484}";
},
{
name = top;
position = "{518, 1000}";
}
);
background = {
paths = (
{
closed = 1;
nodes = (
"640 -500 OFFCURVE",
"834 -350 OFFCURVE",
"834 -134 CURVE SMOOTH",
"834 68 OFFCURVE",
"616 108 OFFCURVE",
"496 124 CURVE SMOOTH",
"360 142 OFFCURVE",
"278 156 OFFCURVE",
"278 200 CURVE SMOOTH",
"278 216 OFFCURVE",
"286 230 OFFCURVE",
"300 238 CURVE",
"332 232 OFFCURVE",
"360 228 OFFCURVE",
"396 228 CURVE SMOOTH",
"684 228 OFFCURVE",
"862 450 OFFCURVE",
"862 692 CURVE SMOOTH",
"862 744 OFFCURVE",
"854 802 OFFCURVE",
"840 842 CURVE",
"858 844 OFFCURVE",
"874 844 OFFCURVE",
"884 844 CURVE SMOOTH",
"978 844 LINE",
"1020 1000 LINE",
"952 1000 LINE SMOOTH",
"862 1000 OFFCURVE",
"780 978 OFFCURVE",
"742 956 CURVE",
"694 994 OFFCURVE",
"622 1016 OFFCURVE",
"536 1016 CURVE SMOOTH",
"250 1016 OFFCURVE",
"70 796 OFFCURVE",
"70 556 CURVE SMOOTH",
"70 454 OFFCURVE",
"104 358 OFFCURVE",
"166 300 CURVE",
"90 262 OFFCURVE",
"46 214 OFFCURVE",
"46 142 CURVE SMOOTH",
"46 88 OFFCURVE",
"72 48 OFFCURVE",
"108 20 CURVE",
"-12 -44 OFFCURVE",
"-92 -124 OFFCURVE",
"-92 -238 CURVE SMOOTH",
"-92 -372 OFFCURVE",
"26 -500 OFFCURVE",
"314 -500 CURVE SMOOTH"
);
},
{
closed = 1;
nodes = (
"596 834 OFFCURVE",
"640 770 OFFCURVE",
"640 674 CURVE SMOOTH",
"640 526 OFFCURVE",
"564 410 OFFCURVE",
"428 410 CURVE SMOOTH",
"334 410 OFFCURVE",
"292 474 OFFCURVE",
"292 570 CURVE SMOOTH",
"292 718 OFFCURVE",
"366 834 OFFCURVE",
"504 834 CURVE SMOOTH"
);
},
{
closed = 1;
nodes = (
"610 -268 OFFCURVE",
"482 -324 OFFCURVE",
"332 -324 CURVE SMOOTH",
"192 -324 OFFCURVE",
"116 -274 OFFCURVE",
"116 -198 CURVE SMOOTH",
"116 -110 OFFCURVE",
"194 -68 OFFCURVE",
"272 -42 CURVE",
"366 -60 OFFCURVE",
"610 -64 OFFCURVE",
"610 -176 CURVE SMOOTH"
);
}
);
};
layerId = "D879A026-05F7-4E99-AC55-D533E46CE7AB";
paths = (
{
closed = 1;
nodes = (
"642 -500 OFFCURVE",
"834 -344 OFFCURVE",
"834 -142 CURVE SMOOTH",
"834 70 OFFCURVE",
"624 106 OFFCURVE",
"496 124 CURVE SMOOTH",
"364 142 OFFCURVE",
"278 154 OFFCURVE",
"278 200 CURVE SMOOTH",
"278 216 OFFCURVE",
"286 230 OFFCURVE",
"300 238 CURVE",
"332 232 OFFCURVE",
"360 228 OFFCURVE",
"398 228 CURVE SMOOTH",
"684 228 OFFCURVE",
"862 450 OFFCURVE",
"862 692 CURVE SMOOTH",
"862 744 OFFCURVE",
"854 802 OFFCURVE",
"840 842 CURVE",
"858 844 OFFCURVE",
"874 844 OFFCURVE",
"884 844 CURVE SMOOTH",
"978 844 LINE",
"1020 1000 LINE",
"952 1000 LINE SMOOTH",
"862 1000 OFFCURVE",
"780 978 OFFCURVE",
"742 956 CURVE",
"694 994 OFFCURVE",
"622 1016 OFFCURVE",
"534 1016 CURVE SMOOTH",
"252 1016 OFFCURVE",
"70 796 OFFCURVE",
"70 556 CURVE SMOOTH",
"70 454 OFFCURVE",
"104 358 OFFCURVE",
"166 300 CURVE",
"90 262 OFFCURVE",
"46 214 OFFCURVE",
"46 142 CURVE SMOOTH",
"46 88 OFFCURVE",
"72 48 OFFCURVE",
"108 20 CURVE",
"-12 -44 OFFCURVE",
"-92 -124 OFFCURVE",
"-92 -238 CURVE SMOOTH",
"-92 -372 OFFCURVE",
"24 -500 OFFCURVE",
"318 -500 CURVE SMOOTH"
);
},
{
closed = 1;
nodes = (
"194 -324 OFFCURVE",
"116 -276 OFFCURVE",
"116 -194 CURVE SMOOTH",
"116 -112 OFFCURVE",
"194 -68 OFFCURVE",
"272 -42 CURVE",
"376 -62 OFFCURVE",
"610 -62 OFFCURVE",
"610 -180 CURVE SMOOTH",
"610 -266 OFFCURVE",
"482 -324 OFFCURVE",
"332 -324 CURVE SMOOTH"
);
},
{
closed = 1;
nodes = (
"334 410 OFFCURVE",
"292 470 OFFCURVE",
"292 574 CURVE SMOOTH",
"292 714 OFFCURVE",
"366 834 OFFCURVE",
"500 834 CURVE SMOOTH",
"596 834 OFFCURVE",
"640 774 OFFCURVE",
"640 668 CURVE SMOOTH",
"640 530 OFFCURVE",
"564 410 OFFCURVE",
"430 410 CURVE SMOOTH"
);
}
);
width = 974;
},
{
associatedMasterId = "D879A026-05F7-4E99-AC55-D533E46CE7AB";
background = {
paths = (
{
closed = 1;
nodes = (
"640 -500 OFFCURVE",
"834 -350 OFFCURVE",
"834 -134 CURVE SMOOTH",
"834 68 OFFCURVE",
"616 108 OFFCURVE",
"496 124 CURVE SMOOTH",
"360 142 OFFCURVE",
"278 156 OFFCURVE",
"278 200 CURVE SMOOTH",
"278 216 OFFCURVE",
"286 230 OFFCURVE",
"300 238 CURVE",
"332 232 OFFCURVE",
"360 228 OFFCURVE",
"396 228 CURVE SMOOTH",
"684 228 OFFCURVE",
"862 450 OFFCURVE",
"862 692 CURVE SMOOTH",
"862 744 OFFCURVE",
"854 802 OFFCURVE",
"840 842 CURVE",
"858 844 OFFCURVE",
"874 844 OFFCURVE",
"884 844 CURVE SMOOTH",
"978 844 LINE",
"1020 1000 LINE",
"952 1000 LINE SMOOTH",
"862 1000 OFFCURVE",
"780 978 OFFCURVE",
"742 956 CURVE",
"694 994 OFFCURVE",
"622 1016 OFFCURVE",
"536 1016 CURVE SMOOTH",
"250 1016 OFFCURVE",
"70 796 OFFCURVE",
"70 556 CURVE SMOOTH",
"70 454 OFFCURVE",
"104 358 OFFCURVE",
"166 300 CURVE",
"90 262 OFFCURVE",
"46 214 OFFCURVE",
"46 142 CURVE SMOOTH",
"46 88 OFFCURVE",
"72 48 OFFCURVE",
"108 20 CURVE",
"-12 -44 OFFCURVE",
"-92 -124 OFFCURVE",
"-92 -238 CURVE SMOOTH",
"-92 -372 OFFCURVE",
"26 -500 OFFCURVE",
"314 -500 CURVE SMOOTH"
);
},
{
closed = 1;
nodes = (
"596 834 OFFCURVE",
"640 770 OFFCURVE",
"640 674 CURVE SMOOTH",
"640 526 OFFCURVE",
"564 410 OFFCURVE",
"428 410 CURVE SMOOTH",
"334 410 OFFCURVE",
"292 474 OFFCURVE",
"292 570 CURVE SMOOTH",
"292 718 OFFCURVE",
"366 834 OFFCURVE",
"504 834 CURVE SMOOTH"
);
},
{
closed = 1;
nodes = (
"610 -268 OFFCURVE",
"482 -324 OFFCURVE",
"332 -324 CURVE SMOOTH",
"192 -324 OFFCURVE",
"116 -274 OFFCURVE",
"116 -198 CURVE SMOOTH",
"116 -110 OFFCURVE",
"194 -68 OFFCURVE",
"272 -42 CURVE",
"366 -60 OFFCURVE",
"610 -64 OFFCURVE",
"610 -176 CURVE SMOOTH"
);
}
);
};
layerId = "5997B899-E49A-4794-BD94-D8F61CB394C9";
name = "Bold Sep 23 16, 10:41";
paths = (
{
closed = 1;
nodes = (
"642 -500 OFFCURVE",
"834 -344 OFFCURVE",
"834 -142 CURVE SMOOTH",
"834 70 OFFCURVE",
"624 106 OFFCURVE",
"496 124 CURVE SMOOTH",
"364 142 OFFCURVE",
"278 154 OFFCURVE",
"278 200 CURVE SMOOTH",
"278 216 OFFCURVE",
"286 230 OFFCURVE",
"300 238 CURVE",
"332 232 OFFCURVE",
"360 228 OFFCURVE",
"398 228 CURVE SMOOTH",
"684 228 OFFCURVE",
"862 450 OFFCURVE",
"862 692 CURVE SMOOTH",
"862 744 OFFCURVE",
"854 802 OFFCURVE",
"840 842 CURVE",
"858 844 OFFCURVE",
"874 844 OFFCURVE",
"884 844 CURVE SMOOTH",
"978 844 LINE",
"1020 1000 LINE",
"952 1000 LINE SMOOTH",
"862 1000 OFFCURVE",
"780 978 OFFCURVE",
"742 956 CURVE",
"694 994 OFFCURVE",
"622 1016 OFFCURVE",
"534 1016 CURVE SMOOTH",
"252 1016 OFFCURVE",
"70 796 OFFCURVE",
"70 556 CURVE SMOOTH",
"70 454 OFFCURVE",
"104 358 OFFCURVE",
"166 300 CURVE",
"90 262 OFFCURVE",
"46 214 OFFCURVE",
"46 142 CURVE SMOOTH",
"46 88 OFFCURVE",
"72 48 OFFCURVE",
"108 20 CURVE",
"-12 -44 OFFCURVE",
"-92 -124 OFFCURVE",
"-92 -238 CURVE SMOOTH",
"-92 -372 OFFCURVE",
"24 -500 OFFCURVE",
"318 -500 CURVE"
);
},
{
closed = 1;
nodes = (
"194 -324 OFFCURVE",
"116 -276 OFFCURVE",
"116 -194 CURVE SMOOTH",
"116 -112 OFFCURVE",
"194 -68 OFFCURVE",
"272 -42 CURVE",
"376 -62 OFFCURVE",
"610 -62 OFFCURVE",
"610 -180 CURVE SMOOTH",
"610 -180 LINE SMOOTH",
"610 -266 OFFCURVE",
"482 -324 OFFCURVE",
"332 -324 CURVE SMOOTH"
);
},
{
closed = 1;
nodes = (
"334 410 OFFCURVE",
"292 470 OFFCURVE",
"292 574 CURVE SMOOTH",
"292 714 OFFCURVE",
"366 834 OFFCURVE",
"500 834 CURVE",
"596 834 OFFCURVE",
"640 774 OFFCURVE",
"640 668 CURVE SMOOTH",
"640 530 OFFCURVE",
"564 410 OFFCURVE",
"430 410 CURVE SMOOTH"
);
}
);
width = 974;
},
{
associatedMasterId = UUID0;
background = {
paths = (
{
closed = 1;
nodes = (
"596 -500 OFFCURVE",
"780 -328 OFFCURVE",
"780 -160 CURVE SMOOTH",
"780 6 OFFCURVE",
"584 54 OFFCURVE",
"464 80 CURVE SMOOTH",
"292 116 OFFCURVE",
"224 132 OFFCURVE",
"224 178 CURVE SMOOTH",
"224 204 OFFCURVE",
"244 226 OFFCURVE",
"270 244 CURVE",
"304 232 OFFCURVE",
"344 226 OFFCURVE",
"384 226 CURVE SMOOTH",
"648 226 OFFCURVE",
"818 460 OFFCURVE",
"818 674 CURVE SMOOTH",
"818 726 OFFCURVE",
"808 792 OFFCURVE",
"780 850 CURVE",
"814 860 OFFCURVE",
"858 864 OFFCURVE",
"870 864 CURVE SMOOTH",
"924 864 LINE",
"962 984 LINE",
"934 984 LINE SMOOTH",
"848 984 OFFCURVE",
"772 960 OFFCURVE",
"718 928 CURVE",
"660 978 OFFCURVE",
"594 1000 OFFCURVE",
"512 1000 CURVE SMOOTH",
"240 1000 OFFCURVE",
"74 778 OFFCURVE",
"74 546 CURVE SMOOTH",
"74 464 OFFCURVE",
"98 364 OFFCURVE",
"172 286 CURVE",
"80 238 OFFCURVE",
"46 162 OFFCURVE",
"46 128 CURVE SMOOTH",
"46 98 OFFCURVE",
"60 50 OFFCURVE",
"112 16 CURVE",
"-40 -46 OFFCURVE",
"-84 -174 OFFCURVE",
"-84 -238 CURVE SMOOTH",
"-84 -358 OFFCURVE",
"10 -500 OFFCURVE",
"284 -500 CURVE SMOOTH"
);
},
{
closed = 1;
nodes = (
"588 856 OFFCURVE",
"648 790 OFFCURVE",
"648 672 CURVE SMOOTH",
"648 512 OFFCURVE",
"554 364 OFFCURVE",
"404 364 CURVE SMOOTH",
"304 364 OFFCURVE",
"244 436 OFFCURVE",
"244 556 CURVE SMOOTH",
"244 720 OFFCURVE",
"336 856 OFFCURVE",
"488 856 CURVE SMOOTH"
);
},
{
closed = 1;
nodes = (
"602 -272 OFFCURVE",
"488 -360 OFFCURVE",
"310 -360 CURVE SMOOTH",
"162 -360 OFFCURVE",
"82 -298 OFFCURVE",
"82 -218 CURVE SMOOTH",
"82 -142 OFFCURVE",
"162 -58 OFFCURVE",
"250 -28 CURVE",
"372 -68 OFFCURVE",
"602 -68 OFFCURVE",
"602 -192 CURVE SMOOTH"
);
}
);
};
layerId = "518B6E4C-A826-41C9-BE58-B31A1563D17E";
name = "Regular Sep 23 16, 10:41";
paths = (
{
closed = 1;
nodes = (
"592 -500 OFFCURVE",
"780 -328 OFFCURVE",
"780 -162 CURVE SMOOTH",
"780 6 OFFCURVE",
"586 54 OFFCURVE",
"464 80 CURVE SMOOTH",
"292 116 OFFCURVE",
"224 132 OFFCURVE",
"224 178 CURVE SMOOTH",
"224 204 OFFCURVE",
"244 226 OFFCURVE",
"270 244 CURVE",
"304 232 OFFCURVE",
"344 226 OFFCURVE",
"386 226 CURVE SMOOTH",
"648 226 OFFCURVE",
"818 460 OFFCURVE",
"818 674 CURVE SMOOTH",
"818 726 OFFCURVE",
"808 792 OFFCURVE",
"780 850 CURVE",
"814 860 OFFCURVE",
"858 864 OFFCURVE",
"870 864 CURVE SMOOTH",
"924 864 LINE",
"962 984 LINE",
"934 984 LINE SMOOTH",
"848 984 OFFCURVE",
"772 960 OFFCURVE",
"718 928 CURVE",
"660 978 OFFCURVE",
"594 1000 OFFCURVE",
"510 1000 CURVE SMOOTH",
"240 1000 OFFCURVE",
"74 776 OFFCURVE",
"74 548 CURVE SMOOTH",
"74 462 OFFCURVE",
"98 364 OFFCURVE",
"172 286 CURVE",
"80 238 OFFCURVE",
"46 164 OFFCURVE",
"46 124 CURVE SMOOTH",
"46 98 OFFCURVE",
"62 48 OFFCURVE",
"112 16 CURVE",
"-46 -50 OFFCURVE",
"-84 -176 OFFCURVE",
"-84 -246 CURVE SMOOTH",
"-84 -356 OFFCURVE",
"10 -500 OFFCURVE",
"288 -500 CURVE"
);
},
{
closed = 1;
nodes = (
"162 -360 OFFCURVE",
"82 -298 OFFCURVE",
"82 -220 CURVE SMOOTH",
"82 -142 OFFCURVE",
"162 -58 OFFCURVE",
"250 -28 CURVE",
"366 -66 OFFCURVE",
"602 -70 OFFCURVE",
"602 -190 CURVE SMOOTH",
"602 -190 LINE SMOOTH",
"602 -272 OFFCURVE",
"490 -360 OFFCURVE",
"312 -360 CURVE SMOOTH"
);
},
{
closed = 1;
nodes = (
"304 364 OFFCURVE",
"244 434 OFFCURVE",
"244 560 CURVE SMOOTH",
"244 716 OFFCURVE",
"336 856 OFFCURVE",
"486 856 CURVE",
"588 856 OFFCURVE",
"648 792 OFFCURVE",
"648 668 CURVE SMOOTH",
"648 514 OFFCURVE",
"554 364 OFFCURVE",
"406 364 CURVE SMOOTH"
);
}
);
width = 918;
}
);
unicode = 0067;
},
{
glyphname = h;
layers = (
{
anchors = (
{
name = bottom;
position = "{408, 0}";
},
{
name = top;
position = "{376, 1500}";
}
);
background = {
paths = (
{
closed = 1;
nodes = (
"796 0 LINE",
"898 576 OFFCURVE",
"904 624 OFFCURVE",
"904 670 CURVE SMOOTH",
"904 870 OFFCURVE",
"828 1000 OFFCURVE",
"612 1000 CURVE SMOOTH",
"514 1000 OFFCURVE",
"430 960 OFFCURVE",
"356 874 CURVE",
"468 1500 LINE",
"284 1500 LINE",
"20 0 LINE",
"202 0 LINE",
"328 712 LINE",
"392 800 OFFCURVE",
"464 840 OFFCURVE",
"562 840 CURVE SMOOTH",
"676 840 OFFCURVE",
"720 788 OFFCURVE",
"720 654 CURVE SMOOTH",
"720 616 OFFCURVE",
"714 574 OFFCURVE",
"614 0 CURVE"
);
}
);
};
layerId = UUID0;
paths = (
{
closed = 1;
nodes = (
"202 0 LINE",
"328 712 LINE",
"392 788 OFFCURVE",
"464 840 OFFCURVE",
"562 840 CURVE SMOOTH",
"662 840 OFFCURVE",
"720 776 OFFCURVE",
"720 672 CURVE SMOOTH",
"720 626 OFFCURVE",
"712 572 OFFCURVE",
"698 490 CURVE SMOOTH",
"614 0 LINE",
"796 0 LINE",
"882 494 LINE SMOOTH",
"898 586 OFFCURVE",
"904 654 OFFCURVE",
"904 696 CURVE SMOOTH",
"904 862 OFFCURVE",
"820 1000 OFFCURVE",
"636 1000 CURVE SMOOTH",
"526 1000 OFFCURVE",
"440 966 OFFCURVE",
"356 874 CURVE",
"468 1500 LINE",
"284 1500 LINE",
"20 0 LINE"
);
}
);
width = 1012;
},
{
anchors = (
{
name = bottom;
position = "{440, 0}";
},
{
name = top;
position = "{402, 1500}";
}
);
background = {
paths = (
{
closed = 1;
nodes = (
"866 0 LINE",
"970 590 OFFCURVE",
"974 638 OFFCURVE",
"974 684 CURVE SMOOTH",
"974 884 OFFCURVE",
"878 1016 OFFCURVE",
"630 1016 CURVE SMOOTH",
"566 1016 OFFCURVE",
"490 986 OFFCURVE",
"430 948 CURVE",
"526 1500 LINE",
"278 1500 LINE",
"14 0 LINE",
"262 0 LINE",
"390 726 LINE",
"442 780 OFFCURVE",
"500 812 OFFCURVE",
"576 812 CURVE SMOOTH",
"676 812 OFFCURVE",
"722 758 OFFCURVE",
"722 646 CURVE SMOOTH",
"722 614 OFFCURVE",
"718 578 OFFCURVE",
"618 0 CURVE"
);
}
);
};
layerId = "D879A026-05F7-4E99-AC55-D533E46CE7AB";
paths = (
{
closed = 1;
nodes = (
"262 0 LINE",
"390 726 LINE",
"454 780 OFFCURVE",
"514 812 OFFCURVE",
"592 812 CURVE SMOOTH",
"676 812 OFFCURVE",
"722 758 OFFCURVE",
"722 670 CURVE SMOOTH",
"722 614 OFFCURVE",
"712 550 OFFCURVE",
"702 492 CURVE SMOOTH",
"618 0 LINE",
"866 0 LINE",
"956 530 LINE SMOOTH",
"970 614 OFFCURVE",
"974 680 OFFCURVE",
"974 718 CURVE SMOOTH",
"974 892 OFFCURVE",
"878 1016 OFFCURVE",
"696 1016 CURVE SMOOTH",
"598 1016 OFFCURVE",
"514 986 OFFCURVE",
"424 912 CURVE",
"526 1500 LINE",
"278 1500 LINE",
"14 0 LINE"
);
}
);
width = 1076;
},
{
anchors = (
{
name = bottom;
position = "{486, 0}";
},
{
name = center;
position = "{392, 1258}";
},
{
name = top;
position = "{411, 1500}";
}
);
associatedMasterId = "D879A026-05F7-4E99-AC55-D533E46CE7AB";
background = {
paths = (
{
closed = 1;
nodes = (
"866 0 LINE",
"970 590 OFFCURVE",
"974 638 OFFCURVE",
"974 684 CURVE SMOOTH",
"974 884 OFFCURVE",
"878 1016 OFFCURVE",
"630 1016 CURVE SMOOTH",
"566 1016 OFFCURVE",
"490 986 OFFCURVE",
"430 948 CURVE",
"526 1500 LINE",
"278 1500 LINE",
"14 0 LINE",
"262 0 LINE",
"390 726 LINE",
"442 780 OFFCURVE",
"500 812 OFFCURVE",
"576 812 CURVE SMOOTH",
"676 812 OFFCURVE",
"722 758 OFFCURVE",
"722 646 CURVE SMOOTH",
"722 614 OFFCURVE",
"718 578 OFFCURVE",
"618 0 CURVE"
);
}
);
};
layerId = "91C08F50-8255-43DF-9381-4A01F0229F12";
name = "Bold Sep 23 16, 10:41";
paths = (
{
closed = 1;
nodes = (
"262 0 LINE",
"390 726 LINE",
"442 780 OFFCURVE",
"500 812 OFFCURVE",
"576 812 CURVE SMOOTH",
"676 812 OFFCURVE",
"722 758 OFFCURVE",
"722 646 CURVE SMOOTH",
"722 614 OFFCURVE",
"718 578 OFFCURVE",
"618 0 CURVE",
"866 0 LINE",
"970 590 OFFCURVE",
"974 638 OFFCURVE",
"974 678 CURVE SMOOTH",
"974 884 OFFCURVE",
"868 1016 OFFCURVE",
"650 1016 CURVE SMOOTH",
"564 1016 OFFCURVE",
"510 996 OFFCURVE",
"430 948 CURVE",
"526 1500 LINE",
"278 1500 LINE",
"14 0 LINE"
);
}
);
width = 1076;
},
{
anchors = (
{
name = bottom;
position = "{457, 0}";
},
{
name = center;
position = "{369, 1258}";
},
{
name = top;
position = "{386, 1500}";
}
);
associatedMasterId = UUID0;
background = {
paths = (
{
closed = 1;
nodes = (
"796 0 LINE",
"898 576 OFFCURVE",
"904 624 OFFCURVE",
"904 670 CURVE SMOOTH",
"904 870 OFFCURVE",
"828 1000 OFFCURVE",
"612 1000 CURVE SMOOTH",
"514 1000 OFFCURVE",
"430 960 OFFCURVE",
"356 874 CURVE",
"468 1500 LINE",
"284 1500 LINE",
"20 0 LINE",
"202 0 LINE",
"328 712 LINE",
"392 800 OFFCURVE",
"464 840 OFFCURVE",
"562 840 CURVE SMOOTH",
"676 840 OFFCURVE",
"720 788 OFFCURVE",
"720 654 CURVE SMOOTH",
"720 616 OFFCURVE",
"714 574 OFFCURVE",
"614 0 CURVE"
);
}
);
};
layerId = "3449F58B-2080-4368-9EA7-6347661F18EB";
name = "Regular Sep 23 16, 10:41";
paths = (
{
closed = 1;
nodes = (
"202 0 LINE",
"328 712 LINE",
"392 800 OFFCURVE",
"464 840 OFFCURVE",
"562 840 CURVE SMOOTH",
"674 840 OFFCURVE",
"720 788 OFFCURVE",
"720 660 CURVE SMOOTH",
"720 614 OFFCURVE",
"714 574 OFFCURVE",
"614 0 CURVE",
"796 0 LINE",
"898 576 OFFCURVE",
"904 624 OFFCURVE",
"904 676 CURVE SMOOTH",
"904 868 OFFCURVE",
"824 1000 OFFCURVE",
"620 1000 CURVE SMOOTH",
"516 1000 OFFCURVE",
"436 966 OFFCURVE",
"356 874 CURVE",
"468 1500 LINE",
"284 1500 LINE",
"20 0 LINE"
);
}
);
width = 1012;
}
);
leftKerningGroup = h;
rightKerningGroup = n;
unicode = 0068;
},
{
glyphname = i;
layers = (
{
anchors = (
{
name = bottom;
position = "{110, 0}";
}
);
background = {
paths = (
{
closed = 1;
nodes = (
"414 1200 LINE",
"448 1400 LINE",
"266 1400 LINE",
"232 1200 LINE"
);
},
{
closed = 1;
nodes = (
"202 0 LINE",
"374 980 LINE",
"192 980 LINE",
"20 0 LINE"
);
}
);
};
layerId = UUID0;
paths = (
{
closed = 1;
nodes = (
"202 0 LINE",
"374 980 LINE",
"192 980 LINE",
"20 0 LINE"
);
},
{
closed = 1;
nodes = (
"414 1200 LINE",
"448 1400 LINE",
"266 1400 LINE",
"232 1200 LINE"
);
}
);
width = 428;
},
{
anchors = (
{
name = bottom;
position = "{138, 0}";
}
);
background = {
paths = (
{
closed = 1;
nodes = (
"466 1152 LINE",
"510 1400 LINE",
"260 1400 LINE",
"218 1152 LINE"
);
},
{
closed = 1;
nodes = (
"262 0 LINE",
"438 1000 LINE",
"190 1000 LINE",
"14 0 LINE"
);
}
);
};
layerId = "D879A026-05F7-4E99-AC55-D533E46CE7AB";
paths = (
{
closed = 1;
nodes = (
"262 0 LINE",
"438 1000 LINE",
"190 1000 LINE",
"14 0 LINE"
);
},
{
closed = 1;
nodes = (
"466 1152 LINE",
"510 1400 LINE",
"260 1400 LINE",
"218 1152 LINE"
);
}
);
width = 484;
},
{
anchors = (
{
name = bottom;
position = "{138, 0}";
}
);
associatedMasterId = "D879A026-05F7-4E99-AC55-D533E46CE7AB";
background = {
paths = (
{
closed = 1;
nodes = (
"466 1152 LINE",
"510 1400 LINE",
"260 1400 LINE",
"218 1152 LINE"
);
},
{
closed = 1;
nodes = (
"262 0 LINE",
"438 1000 LINE",
"190 1000 LINE",
"14 0 LINE"
);
}
);
};
layerId = "3238CAF5-6E03-41D9-8255-42212DE3A30E";
name = "Bold Sep 23 16, 10:41";
paths = (
{
closed = 1;
nodes = (
"262 0 LINE",
"438 1000 LINE",
"190 1000 LINE",
"14 0 LINE"
);
},
{
closed = 1;
nodes = (
"466 1152 LINE",
"510 1400 LINE",
"260 1400 LINE",
"218 1152 LINE"
);
}
);
width = 484;
},
{
anchors = (
{
name = bottom;
position = "{110, 0}";
}
);
associatedMasterId = UUID0;
background = {
paths = (
{
closed = 1;
nodes = (
"414 1200 LINE",
"448 1400 LINE",
"266 1400 LINE",
"232 1200 LINE"
);
},
{
closed = 1;
nodes = (
"202 0 LINE",
"374 980 LINE",
"192 980 LINE",
"20 0 LINE"
);
}
);
};
layerId = "BDCAA98A-973B-463E-B9F1-529B12340F62";
name = "Regular Sep 23 16, 10:41";
paths = (
{
closed = 1;
nodes = (
"202 0 LINE",
"374 980 LINE",
"192 980 LINE",
"20 0 LINE"
);
},
{
closed = 1;
nodes = (
"414 1200 LINE",
"448 1400 LINE",
"266 1400 LINE",
"232 1200 LINE"
);
}
);
width = 428;
}
);
leftKerningGroup = i;
rightKerningGroup = i;
unicode = 0069;
},
{
glyphname = idotless;
layers = (
{
anchors = (
{
name = bottom;
position = "{88, 0}";
},
{
name = ogonek;
position = "{146, 0}";
},
{
name = top;
position = "{284, 980}";
}
);
background = {
paths = (
{
closed = 1;
nodes = (
"202 0 LINE",
"374 980 LINE",
"192 980 LINE",
"20 0 LINE"
);
}
);
};
layerId = UUID0;
paths = (
{
closed = 1;
nodes = (
"202 0 LINE",
"374 980 LINE",
"192 980 LINE",
"20 0 LINE"
);
}
);
width = 428;
},
{
anchors = (
{
name = bottom;
position = "{144, 0}";
},
{
name = ogonek;
position = "{198, 0}";
},
{
name = top;
position = "{314, 1000}";
}
);
background = {
paths = (
{
closed = 1;
nodes = (
"262 0 LINE",
"438 1000 LINE",
"190 1000 LINE",
"14 0 LINE"
);
}
);
};
layerId = "D879A026-05F7-4E99-AC55-D533E46CE7AB";
paths = (
{
closed = 1;
nodes = (
"262 0 LINE",
"438 1000 LINE",
"190 1000 LINE",
"14 0 LINE"
);
}
);
width = 484;
}
);
leftKerningGroup = i;
rightKerningGroup = i;
unicode = 0131;
},
{
glyphname = j;
layers = (
{
background = {
paths = (
{
closed = 1;
nodes = (
"-106 -474 LINE SMOOTH",
"10 -456 OFFCURVE",
"130 -402 OFFCURVE",
"164 -214 CURVE SMOOTH",
"374 980 LINE",
"192 980 LINE",
"-6 -146 LINE SMOOTH",
"-34 -304 OFFCURVE",
"-60 -334 OFFCURVE",
"-164 -346 CURVE",
"-170 -484 LINE"
);
},
{
closed = 1;
nodes = (
"414 1200 LINE",
"450 1400 LINE",
"268 1400 LINE",
"232 1200 LINE"
);
}
);
};
layerId = UUID0;
paths = (
{
closed = 1;
nodes = (
"-106 -474 LINE SMOOTH",
"10 -456 OFFCURVE",
"130 -402 OFFCURVE",
"164 -214 CURVE SMOOTH",
"374 980 LINE",
"192 980 LINE",
"-6 -146 LINE SMOOTH",
"-34 -304 OFFCURVE",
"-60 -334 OFFCURVE",
"-164 -346 CURVE",
"-170 -484 LINE"
);
},
{
closed = 1;
nodes = (
"414 1200 LINE",
"450 1400 LINE",
"268 1400 LINE",
"232 1200 LINE"
);
}
);
width = 428;
},
{
background = {
paths = (
{
closed = 1;
nodes = (
"-68 -484 LINE SMOOTH",
"114 -484 OFFCURVE",
"198 -366 OFFCURVE",
"224 -222 CURVE SMOOTH",
"440 1000 LINE",
"192 1000 LINE",
"-6 -120 LINE SMOOTH",
"-34 -278 OFFCURVE",
"-46 -280 OFFCURVE",
"-146 -280 CURVE",
"-160 -484 LINE"
);
},
{
closed = 1;
nodes = (
"466 1152 LINE",
"510 1400 LINE",
"262 1400 LINE",
"218 1152 LINE"
);
}
);
};
layerId = "D879A026-05F7-4E99-AC55-D533E46CE7AB";
paths = (
{
closed = 1;
nodes = (
"-68 -484 LINE SMOOTH",
"114 -484 OFFCURVE",
"198 -366 OFFCURVE",
"224 -222 CURVE SMOOTH",
"440 1000 LINE",
"192 1000 LINE",
"-6 -120 LINE SMOOTH",
"-32 -272 OFFCURVE",
"-46 -280 OFFCURVE",
"-146 -280 CURVE",
"-160 -484 LINE"
);
},
{
closed = 1;
nodes = (
"466 1152 LINE",
"510 1400 LINE",
"262 1400 LINE",
"218 1152 LINE"
);
}
);
width = 486;
},
{
associatedMasterId = "D879A026-05F7-4E99-AC55-D533E46CE7AB";
background = {
paths = (
{
closed = 1;
nodes = (
"-68 -484 LINE SMOOTH",
"114 -484 OFFCURVE",
"198 -366 OFFCURVE",
"224 -222 CURVE SMOOTH",
"440 1000 LINE",
"192 1000 LINE",
"-6 -120 LINE SMOOTH",
"-34 -278 OFFCURVE",
"-46 -280 OFFCURVE",
"-146 -280 CURVE",
"-160 -484 LINE"
);
},
{
closed = 1;
nodes = (
"466 1152 LINE",
"510 1400 LINE",
"262 1400 LINE",
"218 1152 LINE"
);
}
);
};
layerId = "3F4A2E54-4CBD-49B5-8A75-BE827D30A384";
name = "Bold Sep 23 16, 10:41";
paths = (
{
closed = 1;
nodes = (
"-68 -484 LINE SMOOTH",
"114 -484 OFFCURVE",
"198 -366 OFFCURVE",
"224 -222 CURVE SMOOTH",
"440 1000 LINE",
"192 1000 LINE",
"-6 -120 LINE SMOOTH",
"-32 -272 OFFCURVE",
"-46 -280 OFFCURVE",
"-146 -280 CURVE",
"-160 -484 LINE"
);
},
{
closed = 1;
nodes = (
"466 1152 LINE",
"510 1400 LINE",
"262 1400 LINE",
"218 1152 LINE"
);
}
);
width = 486;
},
{
associatedMasterId = UUID0;
background = {
paths = (
{
closed = 1;
nodes = (
"-106 -474 LINE SMOOTH",
"10 -456 OFFCURVE",
"130 -402 OFFCURVE",
"164 -214 CURVE SMOOTH",
"374 980 LINE",
"192 980 LINE",
"-6 -146 LINE SMOOTH",
"-34 -304 OFFCURVE",
"-60 -334 OFFCURVE",
"-164 -346 CURVE",
"-170 -484 LINE"
);
},
{
closed = 1;
nodes = (
"414 1200 LINE",
"450 1400 LINE",
"268 1400 LINE",
"232 1200 LINE"
);
}
);
};
layerId = "066BEF25-5F6C-4028-AB94-4A68E4224E73";
name = "Regular Sep 23 16, 10:41";
paths = (
{
closed = 1;
nodes = (
"-106 -474 LINE SMOOTH",
"10 -456 OFFCURVE",
"130 -402 OFFCURVE",
"164 -214 CURVE SMOOTH",
"374 980 LINE",
"192 980 LINE",
"-6 -146 LINE SMOOTH",
"-34 -304 OFFCURVE",
"-60 -334 OFFCURVE",
"-164 -346 CURVE",
"-170 -484 LINE"
);
},
{
closed = 1;
nodes = (
"414 1200 LINE",
"450 1400 LINE",
"268 1400 LINE",
"232 1200 LINE"
);
}
);
width = 428;
}
);
leftKerningGroup = i;
rightKerningGroup = i;
unicode = 006A;
},
{
glyphname = jdotless;
layers = (
{
anchors = (
{
name = top;
position = "{284, 980}";
}
);
background = {
paths = (
{
closed = 1;
nodes = (
"-106 -474 LINE SMOOTH",
"10 -456 OFFCURVE",
"130 -402 OFFCURVE",
"164 -214 CURVE SMOOTH",
"374 980 LINE",
"192 980 LINE",
"-6 -146 LINE SMOOTH",
"-34 -304 OFFCURVE",
"-60 -334 OFFCURVE",
"-164 -346 CURVE",
"-170 -484 LINE"
);
}
);
};
layerId = UUID0;
paths = (
{
closed = 1;
nodes = (
"-106 -474 LINE SMOOTH",
"10 -456 OFFCURVE",
"130 -402 OFFCURVE",
"164 -214 CURVE SMOOTH",
"374 980 LINE",
"192 980 LINE",
"-6 -146 LINE SMOOTH",
"-34 -304 OFFCURVE",
"-60 -334 OFFCURVE",
"-164 -346 CURVE",
"-170 -484 LINE"
);
}
);
width = 428;
},
{
anchors = (
{
name = top;
position = "{316, 1000}";
}
);
background = {
paths = (
{
closed = 1;
nodes = (
"-68 -484 LINE SMOOTH",
"114 -484 OFFCURVE",
"198 -366 OFFCURVE",
"224 -222 CURVE SMOOTH",
"440 1000 LINE",
"192 1000 LINE",
"-6 -120 LINE SMOOTH",
"-34 -278 OFFCURVE",
"-46 -280 OFFCURVE",
"-146 -280 CURVE",
"-160 -484 LINE"
);
}
);
};
layerId = "D879A026-05F7-4E99-AC55-D533E46CE7AB";
paths = (
{
closed = 1;
nodes = (
"-68 -484 LINE SMOOTH",
"114 -484 OFFCURVE",
"198 -366 OFFCURVE",
"224 -222 CURVE SMOOTH",
"440 1000 LINE",
"192 1000 LINE",
"-6 -120 LINE SMOOTH",
"-34 -278 OFFCURVE",
"-46 -280 OFFCURVE",
"-146 -280 CURVE",
"-160 -484 LINE"
);
}
);
width = 486;
}
);
unicode = 0237;
},
{
glyphname = k;
layers = (
{
anchors = (
{
name = bottom;
position = "{362, 0}";
},
{
name = top;
position = "{376, 1500}";
}
);
background = {
paths = (
{
closed = 1;
nodes = (
"202 0 LINE",
"290 498 LINE",
"520 0 LINE",
"734 0 LINE",
"470 528 LINE",
"902 980 LINE",
"686 980 LINE",
"296 538 LINE",
"466 1500 LINE",
"284 1500 LINE",
"20 0 LINE"
);
}
);
};
layerId = UUID0;
paths = (
{
closed = 1;
nodes = (
"202 0 LINE",
"290 498 LINE",
"520 0 LINE",
"734 0 LINE",
"470 528 LINE",
"902 980 LINE",
"686 980 LINE",
"296 538 LINE",
"466 1500 LINE",
"284 1500 LINE",
"20 0 LINE"
);
}
);
width = 856;
},
{
anchors = (
{
name = bottom;
position = "{412, 0}";
},
{
name = top;
position = "{404, 1500}";
}
);
background = {
paths = (
{
closed = 1;
nodes = (
"262 0 LINE",
"340 444 LINE",
"560 0 LINE",
"838 0 LINE",
"586 520 LINE",
"1016 1000 LINE",
"738 1000 LINE",
"366 590 LINE",
"528 1500 LINE",
"278 1500 LINE",
"14 0 LINE"
);
}
);
};
layerId = "D879A026-05F7-4E99-AC55-D533E46CE7AB";
paths = (
{
closed = 1;
nodes = (
"262 0 LINE",
"340 444 LINE",
"560 0 LINE",
"838 0 LINE",
"586 520 LINE",
"1016 1000 LINE",
"738 1000 LINE",
"366 590 LINE",
"528 1500 LINE",
"278 1500 LINE",
"14 0 LINE"
);
}
);
width = 960;
},
{
associatedMasterId = "D879A026-05F7-4E99-AC55-D533E46CE7AB";
background = {
paths = (
{
closed = 1;
nodes = (
"262 0 LINE",
"340 444 LINE",
"560 0 LINE",
"838 0 LINE",
"586 520 LINE",
"1016 1000 LINE",
"738 1000 LINE",
"366 590 LINE",
"528 1500 LINE",
"278 1500 LINE",
"14 0 LINE"
);
}
);
};
layerId = "274C6EA8-521C-4526-B8B8-3B61412F247D";
name = "Bold Sep 23 16, 10:41";
paths = (
{
closed = 1;
nodes = (
"262 0 LINE",
"340 444 LINE",
"560 0 LINE",
"838 0 LINE",
"586 520 LINE",
"1016 1000 LINE",
"738 1000 LINE",
"366 590 LINE",
"528 1500 LINE",
"278 1500 LINE",
"14 0 LINE"
);
}
);
width = 960;
},
{
associatedMasterId = UUID0;
background = {
paths = (
{
closed = 1;
nodes = (
"202 0 LINE",
"290 498 LINE",
"520 0 LINE",
"734 0 LINE",
"470 528 LINE",
"902 980 LINE",
"686 980 LINE",
"296 538 LINE",
"466 1500 LINE",
"284 1500 LINE",
"20 0 LINE"
);
}
);
};
layerId = "1D117D62-BD98-4C14-9DEE-53E136A1FBA0";
name = "Regular Sep 23 16, 10:41";
paths = (
{
closed = 1;
nodes = (
"202 0 LINE",
"290 498 LINE",
"520 0 LINE",
"734 0 LINE",
"470 528 LINE",
"902 980 LINE",
"686 980 LINE",
"296 538 LINE",
"466 1500 LINE",
"284 1500 LINE",
"20 0 LINE"
);
}
);
width = 856;
}
);
leftKerningGroup = h;
unicode = 006B;
},
{
glyphname = kgreenlandic;
layers = (
{
layerId = UUID0;
paths = (
{
closed = 1;
nodes = (
"202 0 LINE",
"290 498 LINE",
"580 0 LINE",
"788 0 LINE",
"474 512 LINE",
"968 980 LINE",
"746 980 LINE",
"296 538 LINE",
"374 980 LINE",
"192 980 LINE",
"20 0 LINE"
);
}
);
width = 908;
},
{
layerId = "D879A026-05F7-4E99-AC55-D533E46CE7AB";
paths = (
{
closed = 1;
nodes = (
"262 0 LINE",
"344 466 LINE",
"620 0 LINE",
"900 0 LINE",
"564 524 LINE",
"1074 1000 LINE",
"768 1000 LINE",
"370 612 LINE",
"438 1000 LINE",
"188 1000 LINE",
"14 0 LINE"
);
}
);
width = 1014;
}
);
unicode = 0138;
},
{
glyphname = l;
layers = (
{
anchors = (
{
name = bottom;
position = "{234, 0}";
},
{
name = top;
position = "{370, 1500}";
},
{
name = topright;
position = "{540, 1500}";
}
);
background = {
paths = (
{
closed = 1;
nodes = (
"350 124 LINE",
"268 124 OFFCURVE",
"238 138 OFFCURVE",
"238 206 CURVE SMOOTH",
"238 234 OFFCURVE",
"244 272 OFFCURVE",
"460 1500 CURVE",
"278 1500 LINE",
"48 198 OFFCURVE",
"48 180 OFFCURVE",
"48 162 CURVE SMOOTH",
"48 64 OFFCURVE",
"98 -20 OFFCURVE",
"240 -20 CURVE SMOOTH",
"302 -20 LINE"
);
}
);
};
layerId = UUID0;
paths = (
{
closed = 1;
nodes = (
"302 -20 LINE",
"350 124 LINE",
"268 124 OFFCURVE",
"238 138 OFFCURVE",
"238 204 CURVE SMOOTH",
"238 216 OFFCURVE",
"240 232 OFFCURVE",
"248 282 CURVE SMOOTH",
"460 1500 LINE",
"278 1500 LINE",
"68 300 LINE SMOOTH",
"56 226 OFFCURVE",
"48 182 OFFCURVE",
"48 152 CURVE SMOOTH",
"48 58 OFFCURVE",
"98 -20 OFFCURVE",
"240 -20 CURVE SMOOTH"
);
}
);
width = 468;
},
{
anchors = (
{
name = bottom;
position = "{224, 0}";
},
{
name = top;
position = "{400, 1500}";
},
{
name = topright;
position = "{596, 1500}";
}
);
background = {
paths = (
{
closed = 1;
nodes = (
"402 184 LINE",
"340 184 OFFCURVE",
"310 184 OFFCURVE",
"308 242 CURVE SMOOTH",
"308 266 OFFCURVE",
"312 298 OFFCURVE",
"524 1500 CURVE",
"276 1500 LINE",
"50 220 OFFCURVE",
"48 198 OFFCURVE",
"48 178 CURVE SMOOTH",
"48 64 OFFCURVE",
"110 -20 OFFCURVE",
"254 -20 CURVE SMOOTH",
"344 -20 LINE"
);
}
);
};
layerId = "D879A026-05F7-4E99-AC55-D533E46CE7AB";
paths = (
{
closed = 1;
nodes = (
"344 -20 LINE",
"402 184 LINE",
"344 184 OFFCURVE",
"308 184 OFFCURVE",
"308 246 CURVE SMOOTH",
"308 266 OFFCURVE",
"312 294 OFFCURVE",
"322 350 CURVE SMOOTH",
"524 1500 LINE",
"276 1500 LINE",
"76 370 LINE SMOOTH",
"56 258 OFFCURVE",
"48 210 OFFCURVE",
"48 178 CURVE SMOOTH",
"48 64 OFFCURVE",
"110 -20 OFFCURVE",
"254 -20 CURVE SMOOTH"
);
}
);
width = 528;
},
{
anchors = (
{
name = bottom;
position = "{264, 0}";
},
{
name = center;
position = "{264, 490}";
},
{
name = top;
position = "{264, 980}";
},
{
name = topright;
position = "{609, 1500}";
}
);
associatedMasterId = "D879A026-05F7-4E99-AC55-D533E46CE7AB";
background = {
paths = (
{
closed = 1;
nodes = (
"402 184 LINE",
"340 184 OFFCURVE",
"310 184 OFFCURVE",
"308 242 CURVE SMOOTH",
"308 266 OFFCURVE",
"312 298 OFFCURVE",
"524 1500 CURVE",
"276 1500 LINE",
"50 220 OFFCURVE",
"48 198 OFFCURVE",
"48 178 CURVE SMOOTH",
"48 64 OFFCURVE",
"110 -20 OFFCURVE",
"254 -20 CURVE SMOOTH",
"344 -20 LINE"
);
}
);
};
layerId = "CFF7338A-341D-468D-A80F-5AF8AF8F6CFF";
name = "Bold Sep 23 16, 10:41";
paths = (
{
closed = 1;
nodes = (
"344 -20 LINE",
"402 184 LINE",
"344 184 OFFCURVE",
"308 184 OFFCURVE",
"308 246 CURVE SMOOTH",
"308 266 OFFCURVE",
"312 298 OFFCURVE",
"524 1500 CURVE",
"276 1500 LINE",
"50 220 OFFCURVE",
"48 198 OFFCURVE",
"48 178 CURVE SMOOTH",
"48 64 OFFCURVE",
"110 -20 OFFCURVE",
"254 -20 CURVE SMOOTH"
);
}
);
width = 528;
},
{
anchors = (
{
name = bottom;
position = "{234, 0}";
},
{
name = center;
position = "{234, 490}";
},
{
name = top;
position = "{234, 980}";
},
{
name = topright;
position = "{540, 1500}";
}
);
associatedMasterId = UUID0;
background = {
paths = (
{
closed = 1;
nodes = (
"350 124 LINE",
"268 124 OFFCURVE",
"238 138 OFFCURVE",
"238 206 CURVE SMOOTH",
"238 234 OFFCURVE",
"244 272 OFFCURVE",
"460 1500 CURVE",
"278 1500 LINE",
"48 198 OFFCURVE",
"48 180 OFFCURVE",
"48 162 CURVE SMOOTH",
"48 64 OFFCURVE",
"98 -20 OFFCURVE",
"240 -20 CURVE SMOOTH",
"302 -20 LINE"
);
}
);
};
layerId = "E2EB1159-6DE5-4596-AA56-072602998E97";
name = "Regular Sep 23 16, 10:41";
paths = (
{
closed = 1;
nodes = (
"302 -20 LINE",
"350 124 LINE",
"268 124 OFFCURVE",
"238 138 OFFCURVE",
"238 204 CURVE SMOOTH",
"238 234 OFFCURVE",
"244 272 OFFCURVE",
"460 1500 CURVE",
"278 1500 LINE",
"50 208 OFFCURVE",
"48 184 OFFCURVE",
"48 164 CURVE SMOOTH",
"48 64 OFFCURVE",
"98 -20 OFFCURVE",
"240 -20 CURVE SMOOTH"
);
}
);
width = 468;
}
);
unicode = 006C;
},
{
glyphname = lslash;
layers = (
{
components = (
{
name = l;
}
);
layerId = UUID0;
paths = (
{
closed = 1;
nodes = (
"516 898 LINE",
"540 1036 LINE",
"22 842 LINE",
"-2 704 LINE"
);
}
);
width = 468;
},
{
components = (
{
name = l;
}
);
layerId = "D879A026-05F7-4E99-AC55-D533E46CE7AB";
paths = (
{
closed = 1;
nodes = (
"576 884 LINE",
"608 1058 LINE",
"32 842 LINE",
"0 668 LINE"
);
}
);
width = 528;
}
);
unicode = 0142;
},
{
glyphname = m;
layers = (
{
anchors = (
{
name = bottom;
position = "{704, 0}";
},
{
name = top;
position = "{902, 980}";
}
);
background = {
paths = (
{
closed = 1;
nodes = (
"1386 0 LINE",
"1496 628 OFFCURVE",
"1502 674 OFFCURVE",
"1502 720 CURVE SMOOTH",
"1502 908 OFFCURVE",
"1404 1000 OFFCURVE",
"1218 1000 CURVE SMOOTH",
"1052 1000 OFFCURVE",
"938 926 OFFCURVE",
"868 804 CURVE",
"822 968 OFFCURVE",
"714 1000 OFFCURVE",
"608 1000 CURVE SMOOTH",
"516 1000 OFFCURVE",
"438 976 OFFCURVE",
"336 876 CURVE",
"336 980 LINE",
"192 980 LINE",
"20 0 LINE",
"202 0 LINE",
"328 712 LINE",
"386 800 OFFCURVE",
"468 840 OFFCURVE",
"566 840 CURVE SMOOTH",
"660 840 OFFCURVE",
"720 802 OFFCURVE",
"720 668 CURVE SMOOTH",
"720 632 OFFCURVE",
"716 590 OFFCURVE",
"612 0 CURVE",
"794 0 LINE",
"894 568 LINE SMOOTH",
"914 682 OFFCURVE",
"972 840 OFFCURVE",
"1160 840 CURVE SMOOTH",
"1268 840 OFFCURVE",
"1316 788 OFFCURVE",
"1316 680 CURVE SMOOTH",
"1316 648 OFFCURVE",
"1312 614 OFFCURVE",
"1204 0 CURVE"
);
}
);
};
layerId = UUID0;
paths = (
{
closed = 1;
nodes = (
"202 0 LINE",
"328 712 LINE",
"386 800 OFFCURVE",
"468 840 OFFCURVE",
"566 840 CURVE SMOOTH",
"660 840 OFFCURVE",
"720 802 OFFCURVE",
"720 668 CURVE SMOOTH",
"720 632 OFFCURVE",
"716 590 OFFCURVE",
"612 0 CURVE",
"794 0 LINE",
"894 568 LINE SMOOTH",
"914 682 OFFCURVE",
"972 840 OFFCURVE",
"1160 840 CURVE SMOOTH",
"1268 840 OFFCURVE",
"1316 788 OFFCURVE",
"1316 680 CURVE SMOOTH",
"1316 648 OFFCURVE",
"1312 614 OFFCURVE",
"1204 0 CURVE",
"1386 0 LINE",
"1496 628 OFFCURVE",
"1502 674 OFFCURVE",
"1502 720 CURVE SMOOTH",
"1502 908 OFFCURVE",
"1404 1000 OFFCURVE",
"1218 1000 CURVE SMOOTH",
"1052 1000 OFFCURVE",
"938 926 OFFCURVE",
"868 804 CURVE",
"822 968 OFFCURVE",
"714 1000 OFFCURVE",
"608 1000 CURVE SMOOTH",
"516 1000 OFFCURVE",
"438 976 OFFCURVE",
"336 876 CURVE",
"336 980 LINE",
"192 980 LINE",
"20 0 LINE"
);
}
);
width = 1602;
},
{
anchors = (
{
name = bottom;
position = "{735, 0}";
},
{
name = top;
position = "{941, 980}";
}
);
background = {
paths = (
{
closed = 1;
nodes = (
"1462 0 LINE",
"1564 588 OFFCURVE",
"1570 634 OFFCURVE",
"1570 682 CURVE SMOOTH",
"1570 880 OFFCURVE",
"1472 1016 OFFCURVE",
"1256 1016 CURVE SMOOTH",
"1084 1016 OFFCURVE",
"954 928 OFFCURVE",
"914 864 CURVE",
"866 972 OFFCURVE",
"756 1016 OFFCURVE",
"654 1016 CURVE SMOOTH",
"550 1016 OFFCURVE",
"450 970 OFFCURVE",
"394 922 CURVE",
"396 1000 LINE",
"190 1000 LINE",
"14 0 LINE",
"262 0 LINE",
"392 730 LINE",
"442 782 OFFCURVE",
"496 812 OFFCURVE",
"572 812 CURVE SMOOTH",
"656 812 OFFCURVE",
"726 784 OFFCURVE",
"726 654 CURVE SMOOTH",
"726 620 OFFCURVE",
"690 422 OFFCURVE",
"616 0 CURVE",
"862 0 LINE",
"970 618 LINE SMOOTH",
"986 710 OFFCURVE",
"1042 812 OFFCURVE",
"1178 812 CURVE SMOOTH",
"1276 812 OFFCURVE",
"1320 780 OFFCURVE",
"1320 642 CURVE SMOOTH",
"1320 612 OFFCURVE",
"1314 576 OFFCURVE",
"1214 0 CURVE"
);
}
);
};
layerId = "D879A026-05F7-4E99-AC55-D533E46CE7AB";
paths = (
{
closed = 1;
nodes = (
"262 0 LINE",
"392 730 LINE",
"442 782 OFFCURVE",
"496 812 OFFCURVE",
"572 812 CURVE SMOOTH",
"648 812 OFFCURVE",
"726 784 OFFCURVE",
"726 668 CURVE SMOOTH",
"726 618 OFFCURVE",
"712 548 OFFCURVE",
"616 0 CURVE",
"862 0 LINE",
"970 618 LINE SMOOTH",
"986 710 OFFCURVE",
"1038 812 OFFCURVE",
"1186 812 CURVE SMOOTH",
"1268 812 OFFCURVE",
"1320 780 OFFCURVE",
"1320 648 CURVE SMOOTH",
"1320 612 OFFCURVE",
"1316 586 OFFCURVE",
"1214 0 CURVE",
"1462 0 LINE",
"1564 588 OFFCURVE",
"1570 634 OFFCURVE",
"1570 682 CURVE SMOOTH",
"1570 880 OFFCURVE",
"1472 1016 OFFCURVE",
"1256 1016 CURVE SMOOTH",
"1084 1016 OFFCURVE",
"954 928 OFFCURVE",
"914 864 CURVE",
"866 972 OFFCURVE",
"756 1016 OFFCURVE",
"654 1016 CURVE SMOOTH",
"550 1016 OFFCURVE",
"450 970 OFFCURVE",
"394 922 CURVE",
"394 1000 LINE",
"190 1000 LINE",
"14 0 LINE"
);
}
);
width = 1672;
},
{
anchors = (
{
name = bottom;
position = "{735, 0}";
},
{
name = top;
position = "{941, 980}";
}
);
associatedMasterId = "D879A026-05F7-4E99-AC55-D533E46CE7AB";
background = {
paths = (
{
closed = 1;
nodes = (
"1462 0 LINE",
"1564 588 OFFCURVE",
"1570 634 OFFCURVE",
"1570 682 CURVE SMOOTH",
"1570 880 OFFCURVE",
"1472 1016 OFFCURVE",
"1256 1016 CURVE SMOOTH",
"1084 1016 OFFCURVE",
"954 928 OFFCURVE",
"914 864 CURVE",
"866 972 OFFCURVE",
"756 1016 OFFCURVE",
"654 1016 CURVE SMOOTH",
"550 1016 OFFCURVE",
"450 970 OFFCURVE",
"394 922 CURVE",
"396 1000 LINE",
"190 1000 LINE",
"14 0 LINE",
"262 0 LINE",
"392 730 LINE",
"442 782 OFFCURVE",
"496 812 OFFCURVE",
"572 812 CURVE SMOOTH",
"656 812 OFFCURVE",
"726 784 OFFCURVE",
"726 654 CURVE SMOOTH",
"726 620 OFFCURVE",
"690 422 OFFCURVE",
"616 0 CURVE",
"862 0 LINE",
"970 618 LINE SMOOTH",
"986 710 OFFCURVE",
"1042 812 OFFCURVE",
"1178 812 CURVE SMOOTH",
"1276 812 OFFCURVE",
"1320 780 OFFCURVE",
"1320 642 CURVE SMOOTH",
"1320 612 OFFCURVE",
"1314 576 OFFCURVE",
"1214 0 CURVE"
);
}
);
};
layerId = "6B5B619E-834C-4B58-B6D8-502F1D521879";
name = "Bold Sep 23 16, 10:41";
paths = (
{
closed = 1;
nodes = (
"262 0 LINE",
"392 730 LINE",
"442 782 OFFCURVE",
"496 812 OFFCURVE",
"572 812 CURVE SMOOTH",
"648 812 OFFCURVE",
"726 784 OFFCURVE",
"726 668 CURVE SMOOTH",
"726 618 OFFCURVE",
"712 548 OFFCURVE",
"616 0 CURVE",
"862 0 LINE",
"970 618 LINE SMOOTH",
"986 710 OFFCURVE",
"1038 812 OFFCURVE",
"1186 812 CURVE SMOOTH",
"1268 812 OFFCURVE",
"1320 780 OFFCURVE",
"1320 648 CURVE SMOOTH",
"1320 612 OFFCURVE",
"1316 586 OFFCURVE",
"1214 0 CURVE",
"1462 0 LINE",
"1564 588 OFFCURVE",
"1570 634 OFFCURVE",
"1570 682 CURVE SMOOTH",
"1570 880 OFFCURVE",
"1472 1016 OFFCURVE",
"1256 1016 CURVE SMOOTH",
"1084 1016 OFFCURVE",
"954 928 OFFCURVE",
"914 864 CURVE",
"866 972 OFFCURVE",
"756 1016 OFFCURVE",
"654 1016 CURVE SMOOTH",
"550 1016 OFFCURVE",
"450 970 OFFCURVE",
"394 922 CURVE",
"394 1000 LINE",
"190 1000 LINE",
"14 0 LINE"
);
}
);
width = 1672;
},
{
anchors = (
{
name = bottom;
position = "{704, 0}";
},
{
name = top;
position = "{902, 980}";
}
);
associatedMasterId = UUID0;
background = {
paths = (
{
closed = 1;
nodes = (
"1386 0 LINE",
"1496 628 OFFCURVE",
"1502 674 OFFCURVE",
"1502 720 CURVE SMOOTH",
"1502 908 OFFCURVE",
"1404 1000 OFFCURVE",
"1218 1000 CURVE SMOOTH",
"1052 1000 OFFCURVE",
"938 926 OFFCURVE",
"868 804 CURVE",
"822 968 OFFCURVE",
"714 1000 OFFCURVE",
"608 1000 CURVE SMOOTH",
"516 1000 OFFCURVE",
"438 976 OFFCURVE",
"336 876 CURVE",
"336 980 LINE",
"192 980 LINE",
"20 0 LINE",
"202 0 LINE",
"328 712 LINE",
"386 800 OFFCURVE",
"468 840 OFFCURVE",
"566 840 CURVE SMOOTH",
"660 840 OFFCURVE",
"720 802 OFFCURVE",
"720 668 CURVE SMOOTH",
"720 632 OFFCURVE",
"716 590 OFFCURVE",
"612 0 CURVE",
"794 0 LINE",
"894 568 LINE SMOOTH",
"914 682 OFFCURVE",
"972 840 OFFCURVE",
"1160 840 CURVE SMOOTH",
"1268 840 OFFCURVE",
"1316 788 OFFCURVE",
"1316 680 CURVE SMOOTH",
"1316 648 OFFCURVE",
"1312 614 OFFCURVE",
"1204 0 CURVE"
);
}
);
};
layerId = "4235B88D-782D-4F17-A0A0-B09CEDA296B9";
name = "Regular Sep 23 16, 10:41";
paths = (
{
closed = 1;
nodes = (
"202 0 LINE",
"328 712 LINE",
"386 800 OFFCURVE",
"468 840 OFFCURVE",
"566 840 CURVE SMOOTH",
"660 840 OFFCURVE",
"720 802 OFFCURVE",
"720 668 CURVE SMOOTH",
"720 632 OFFCURVE",
"716 590 OFFCURVE",
"612 0 CURVE",
"794 0 LINE",
"894 568 LINE SMOOTH",
"914 682 OFFCURVE",
"972 840 OFFCURVE",
"1160 840 CURVE SMOOTH",
"1268 840 OFFCURVE",
"1316 788 OFFCURVE",
"1316 680 CURVE SMOOTH",
"1316 648 OFFCURVE",
"1312 614 OFFCURVE",
"1204 0 CURVE",
"1386 0 LINE",
"1496 628 OFFCURVE",
"1502 674 OFFCURVE",
"1502 720 CURVE SMOOTH",
"1502 908 OFFCURVE",
"1404 1000 OFFCURVE",
"1218 1000 CURVE SMOOTH",
"1052 1000 OFFCURVE",
"938 926 OFFCURVE",
"868 804 CURVE",
"822 968 OFFCURVE",
"714 1000 OFFCURVE",
"608 1000 CURVE SMOOTH",
"516 1000 OFFCURVE",
"438 976 OFFCURVE",
"336 876 CURVE",
"336 980 LINE",
"192 980 LINE",
"20 0 LINE"
);
}
);
width = 1602;
}
);
leftKerningGroup = n;
rightKerningGroup = n;
unicode = 006D;
},
{
glyphname = n;
layers = (
{
anchors = (
{
name = bottom;
position = "{418, 0}";
},
{
name = top;
position = "{602, 980}";
}
);
background = {
paths = (
{
closed = 1;
nodes = (
"814 0 LINE",
"920 592 OFFCURVE",
"924 642 OFFCURVE",
"924 686 CURVE SMOOTH",
"924 886 OFFCURVE",
"840 1000 OFFCURVE",
"624 1000 CURVE SMOOTH",
"538 1000 OFFCURVE",
"444 976 OFFCURVE",
"340 876 CURVE",
"346 980 LINE",
"192 980 LINE",
"20 0 LINE",
"202 0 LINE",
"328 712 LINE",
"386 800 OFFCURVE",
"476 840 OFFCURVE",
"568 840 CURVE SMOOTH",
"688 840 OFFCURVE",
"740 786 OFFCURVE",
"740 664 CURVE SMOOTH",
"740 628 OFFCURVE",
"736 588 OFFCURVE",
"632 0 CURVE"
);
}
);
};
layerId = UUID0;
paths = (
{
closed = 1;
nodes = (
"202 0 LINE",
"328 712 LINE",
"386 800 OFFCURVE",
"474 840 OFFCURVE",
"572 840 CURVE SMOOTH",
"688 840 OFFCURVE",
"740 784 OFFCURVE",
"740 662 CURVE SMOOTH",
"740 628 OFFCURVE",
"736 588 OFFCURVE",
"632 0 CURVE",
"814 0 LINE",
"920 592 OFFCURVE",
"924 642 OFFCURVE",
"924 686 CURVE SMOOTH",
"924 884 OFFCURVE",
"840 1000 OFFCURVE",
"632 1000 CURVE SMOOTH",
"536 1000 OFFCURVE",
"444 976 OFFCURVE",
"340 876 CURVE",
"346 980 LINE",
"192 980 LINE",
"20 0 LINE"
);
}
);
width = 1030;
},
{
anchors = (
{
name = bottom;
position = "{438, 0}";
},
{
name = top;
position = "{622, 980}";
}
);
background = {
paths = (
{
closed = 1;
nodes = (
"862 0 LINE",
"966 590 OFFCURVE",
"970 638 OFFCURVE",
"970 684 CURVE SMOOTH",
"970 884 OFFCURVE",
"874 1016 OFFCURVE",
"626 1016 CURVE SMOOTH",
"556 1016 OFFCURVE",
"472 982 OFFCURVE",
"418 940 CURVE",
"428 1000 LINE",
"190 1000 LINE",
"14 0 LINE",
"262 0 LINE",
"390 726 LINE",
"444 780 OFFCURVE",
"498 812 OFFCURVE",
"574 812 CURVE SMOOTH",
"674 812 OFFCURVE",
"716 760 OFFCURVE",
"716 650 CURVE SMOOTH",
"716 618 OFFCURVE",
"714 580 OFFCURVE",
"612 0 CURVE"
);
}
);
};
layerId = "D879A026-05F7-4E99-AC55-D533E46CE7AB";
paths = (
{
closed = 1;
nodes = (
"262 0 LINE",
"390 726 LINE",
"444 780 OFFCURVE",
"498 812 OFFCURVE",
"574 812 CURVE SMOOTH",
"674 812 OFFCURVE",
"716 760 OFFCURVE",
"716 644 CURVE SMOOTH",
"716 618 OFFCURVE",
"714 580 OFFCURVE",
"612 0 CURVE",
"862 0 LINE",
"966 590 OFFCURVE",
"970 638 OFFCURVE",
"970 678 CURVE SMOOTH",
"970 876 OFFCURVE",
"874 1016 OFFCURVE",
"668 1016 CURVE SMOOTH",
"562 1016 OFFCURVE",
"486 982 OFFCURVE",
"418 940 CURVE",
"408 1000 LINE",
"190 1000 LINE",
"14 0 LINE"
);
}
);
width = 1072;
},
{
anchors = (
{
name = bottom;
position = "{435, 0}";
},
{
name = top;
position = "{627, 980}";
}
);
associatedMasterId = "D879A026-05F7-4E99-AC55-D533E46CE7AB";
background = {
paths = (
{
closed = 1;
nodes = (
"862 0 LINE",
"966 590 OFFCURVE",
"970 638 OFFCURVE",
"970 684 CURVE SMOOTH",
"970 884 OFFCURVE",
"874 1016 OFFCURVE",
"626 1016 CURVE SMOOTH",
"556 1016 OFFCURVE",
"472 982 OFFCURVE",
"418 940 CURVE",
"428 1000 LINE",
"190 1000 LINE",
"14 0 LINE",
"262 0 LINE",
"390 726 LINE",
"444 780 OFFCURVE",
"498 812 OFFCURVE",
"574 812 CURVE SMOOTH",
"674 812 OFFCURVE",
"716 760 OFFCURVE",
"716 650 CURVE SMOOTH",
"716 618 OFFCURVE",
"714 580 OFFCURVE",
"612 0 CURVE"
);
}
);
};
layerId = "D9998237-3D0B-4B49-AE78-8BFFE8AAA019";
name = "Bold Sep 23 16, 10:41";
paths = (
{
closed = 1;
nodes = (
"262 0 LINE",
"390 726 LINE",
"444 780 OFFCURVE",
"498 812 OFFCURVE",
"574 812 CURVE SMOOTH",
"674 812 OFFCURVE",
"716 760 OFFCURVE",
"716 644 CURVE SMOOTH",
"716 618 OFFCURVE",
"714 580 OFFCURVE",
"612 0 CURVE",
"862 0 LINE",
"966 590 OFFCURVE",
"970 638 OFFCURVE",
"970 678 CURVE SMOOTH",
"970 884 OFFCURVE",
"864 1016 OFFCURVE",
"648 1016 CURVE SMOOTH",
"544 1016 OFFCURVE",
"482 986 OFFCURVE",
"418 940 CURVE",
"408 1000 LINE",
"190 1000 LINE",
"14 0 LINE"
);
}
);
width = 1072;
},
{
anchors = (
{
name = bottom;
position = "{418, 0}";
},
{
name = top;
position = "{602, 980}";
}
);
associatedMasterId = UUID0;
background = {
paths = (
{
closed = 1;
nodes = (
"814 0 LINE",
"920 592 OFFCURVE",
"924 642 OFFCURVE",
"924 686 CURVE SMOOTH",
"924 886 OFFCURVE",
"840 1000 OFFCURVE",
"624 1000 CURVE SMOOTH",
"538 1000 OFFCURVE",
"444 976 OFFCURVE",
"340 876 CURVE",
"346 980 LINE",
"192 980 LINE",
"20 0 LINE",
"202 0 LINE",
"328 712 LINE",
"386 800 OFFCURVE",
"476 840 OFFCURVE",
"568 840 CURVE SMOOTH",
"688 840 OFFCURVE",
"740 786 OFFCURVE",
"740 664 CURVE SMOOTH",
"740 628 OFFCURVE",
"736 588 OFFCURVE",
"632 0 CURVE"
);
}
);
};
layerId = "FDC3E02C-CD06-49F7-9B33-53E56DCE8EEA";
name = "Regular Sep 23 16, 10:41";
paths = (
{
closed = 1;
nodes = (
"202 0 LINE",
"328 712 LINE",
"386 800 OFFCURVE",
"474 840 OFFCURVE",
"572 840 CURVE SMOOTH",
"688 840 OFFCURVE",
"740 784 OFFCURVE",
"740 662 CURVE SMOOTH",
"740 628 OFFCURVE",
"736 588 OFFCURVE",
"632 0 CURVE",
"814 0 LINE",
"920 592 OFFCURVE",
"924 642 OFFCURVE",
"924 686 CURVE SMOOTH",
"924 884 OFFCURVE",
"840 1000 OFFCURVE",
"632 1000 CURVE SMOOTH",
"536 1000 OFFCURVE",
"444 976 OFFCURVE",
"340 876 CURVE",
"346 980 LINE",
"192 980 LINE",
"20 0 LINE"
);
}
);
width = 1030;
}
);
leftKerningGroup = n;
rightKerningGroup = n;
unicode = 006E;
},
{
glyphname = eng;
layers = (
{
layerId = UUID0;
paths = (
{
closed = 1;
nodes = (
"964 540 LINE SMOOTH",
"972 590 OFFCURVE",
"978 638 OFFCURVE",
"978 682 CURVE SMOOTH",
"978 880 OFFCURVE",
"892 1000 OFFCURVE",
"686 1000 CURVE SMOOTH",
"594 1000 OFFCURVE",
"494 976 OFFCURVE",
"380 876 CURVE",
"378 980 LINE",
"236 980 LINE",
"64 0 LINE",
"246 0 LINE",
"370 712 LINE",
"428 800 OFFCURVE",
"524 840 OFFCURVE",
"622 840 CURVE SMOOTH",
"744 840 OFFCURVE",
"796 780 OFFCURVE",
"796 650 CURVE SMOOTH",
"796 618 OFFCURVE",
"792 582 OFFCURVE",
"784 540 CURVE SMOOTH",
"694 28 LINE SMOOTH",
"668 -120 OFFCURVE",
"580 -198 OFFCURVE",
"462 -198 CURVE SMOOTH",
"412 -198 OFFCURVE",
"364 -188 OFFCURVE",
"316 -168 CURVE",
"262 -324 LINE",
"320 -346 OFFCURVE",
"386 -358 OFFCURVE",
"454 -358 CURVE SMOOTH",
"662 -358 OFFCURVE",
"828 -240 OFFCURVE",
"876 34 CURVE SMOOTH"
);
}
);
width = 1130;
},
{
layerId = "D879A026-05F7-4E99-AC55-D533E46CE7AB";
paths = (
{
closed = 1;
nodes = (
"1002 558 LINE SMOOTH",
"1010 604 OFFCURVE",
"1014 648 OFFCURVE",
"1014 690 CURVE SMOOTH",
"1014 878 OFFCURVE",
"928 1016 OFFCURVE",
"736 1016 CURVE SMOOTH",
"628 1016 OFFCURVE",
"538 980 OFFCURVE",
"458 930 CURVE",
"466 1000 LINE",
"234 1000 LINE",
"58 0 LINE",
"306 0 LINE",
"436 738 LINE",
"490 780 OFFCURVE",
"550 812 OFFCURVE",
"626 812 CURVE SMOOTH",
"720 812 OFFCURVE",
"762 758 OFFCURVE",
"762 644 CURVE SMOOTH",
"762 614 OFFCURVE",
"758 578 OFFCURVE",
"750 538 CURVE SMOOTH",
"658 14 LINE SMOOTH",
"638 -102 OFFCURVE",
"578 -154 OFFCURVE",
"476 -154 CURVE SMOOTH",
"430 -154 OFFCURVE",
"386 -142 OFFCURVE",
"342 -124 CURVE",
"280 -324 LINE",
"342 -346 OFFCURVE",
"412 -358 OFFCURVE",
"484 -358 CURVE SMOOTH",
"720 -358 OFFCURVE",
"866 -212 OFFCURVE",
"908 24 CURVE SMOOTH"
);
}
);
width = 1158;
}
);
unicode = 014B;
},
{
glyphname = o;
layers = (
{
anchors = (
{
name = bottom;
position = "{410, 0}";
},
{
name = center;
position = "{514, 490}";
},
{
name = ogonek;
position = "{484, 0}";
},
{
name = top;
position = "{586, 980}";
},
{
name = topright;
position = "{662, 980}";
}
);
background = {
paths = (
{
closed = 1;
nodes = (
"730 -20 OFFCURVE",
"950 264 OFFCURVE",
"950 588 CURVE SMOOTH",
"950 820 OFFCURVE",
"824 1000 OFFCURVE",
"586 1000 CURVE SMOOTH",
"260 1000 OFFCURVE",
"42 716 OFFCURVE",
"42 392 CURVE SMOOTH",
"42 160 OFFCURVE",
"166 -20 OFFCURVE",
"406 -20 CURVE SMOOTH"
);
},
{
closed = 1;
nodes = (
"692 840 OFFCURVE",
"764 742 OFFCURVE",
"764 580 CURVE SMOOTH",
"764 324 OFFCURVE",
"638 140 OFFCURVE",
"434 140 CURVE SMOOTH",
"298 140 OFFCURVE",
"228 238 OFFCURVE",
"228 400 CURVE SMOOTH",
"228 656 OFFCURVE",
"354 840 OFFCURVE",
"558 840 CURVE SMOOTH"
);
}
);
};
layerId = UUID0;
paths = (
{
closed = 1;
nodes = (
"726 -20 OFFCURVE",
"950 264 OFFCURVE",
"950 584 CURVE SMOOTH",
"950 818 OFFCURVE",
"830 1000 OFFCURVE",
"580 1000 CURVE SMOOTH",
"266 1000 OFFCURVE",
"42 716 OFFCURVE",
"42 394 CURVE SMOOTH",
"42 160 OFFCURVE",
"162 -20 OFFCURVE",
"412 -20 CURVE SMOOTH"
);
},
{
closed = 1;
nodes = (
"298 140 OFFCURVE",
"228 232 OFFCURVE",
"228 410 CURVE SMOOTH",
"228 648 OFFCURVE",
"354 840 OFFCURVE",
"554 840 CURVE SMOOTH",
"692 840 OFFCURVE",
"764 750 OFFCURVE",
"764 570 CURVE SMOOTH",
"764 332 OFFCURVE",
"638 140 OFFCURVE",
"438 140 CURVE SMOOTH"
);
}
);
width = 1028;
},
{
anchors = (
{
name = bottom;
position = "{432, 0}";
},
{
name = center;
position = "{550, 500}";
},
{
name = ogonek;
position = "{508, 0}";
},
{
name = top;
position = "{636, 1000}";
},
{
name = topright;
position = "{716, 1000}";
}
);
background = {
paths = (
{
closed = 1;
nodes = (
"794 -20 OFFCURVE",
"1032 272 OFFCURVE",
"1032 588 CURVE SMOOTH",
"1032 822 OFFCURVE",
"892 1016 OFFCURVE",
"624 1016 CURVE SMOOTH",
"272 1016 OFFCURVE",
"34 724 OFFCURVE",
"34 408 CURVE SMOOTH",
"34 174 OFFCURVE",
"174 -20 OFFCURVE",
"442 -20 CURVE SMOOTH"
);
},
{
closed = 1;
nodes = (
"710 812 OFFCURVE",
"776 714 OFFCURVE",
"776 572 CURVE SMOOTH",
"776 356 OFFCURVE",
"656 184 OFFCURVE",
"478 184 CURVE SMOOTH",
"354 184 OFFCURVE",
"290 282 OFFCURVE",
"290 424 CURVE SMOOTH",
"290 640 OFFCURVE",
"410 812 OFFCURVE",
"588 812 CURVE SMOOTH"
);
}
);
};
layerId = "D879A026-05F7-4E99-AC55-D533E46CE7AB";
paths = (
{
closed = 1;
nodes = (
"790 -20 OFFCURVE",
"1032 272 OFFCURVE",
"1032 586 CURVE SMOOTH",
"1032 822 OFFCURVE",
"896 1016 OFFCURVE",
"618 1016 CURVE SMOOTH",
"276 1016 OFFCURVE",
"34 724 OFFCURVE",
"34 410 CURVE SMOOTH",
"34 174 OFFCURVE",
"170 -20 OFFCURVE",
"448 -20 CURVE SMOOTH"
);
},
{
closed = 1;
nodes = (
"354 184 OFFCURVE",
"290 278 OFFCURVE",
"290 430 CURVE SMOOTH",
"290 638 OFFCURVE",
"412 812 OFFCURVE",
"584 812 CURVE SMOOTH",
"710 812 OFFCURVE",
"776 720 OFFCURVE",
"776 568 CURVE SMOOTH",
"776 362 OFFCURVE",
"656 184 OFFCURVE",
"482 184 CURVE SMOOTH"
);
}
);
width = 1098;
},
{
anchors = (
{
name = bottom;
position = "{432, 0}";
},
{
name = center;
position = "{550, 500}";
},
{
name = ogonek;
position = "{988, 20}";
},
{
name = top;
position = "{656, 1000}";
},
{
name = topright;
position = "{916, 1000}";
}
);
associatedMasterId = "D879A026-05F7-4E99-AC55-D533E46CE7AB";
background = {
paths = (
{
closed = 1;
nodes = (
"794 -20 OFFCURVE",
"1032 272 OFFCURVE",
"1032 588 CURVE SMOOTH",
"1032 822 OFFCURVE",
"892 1016 OFFCURVE",
"624 1016 CURVE SMOOTH",
"272 1016 OFFCURVE",
"34 724 OFFCURVE",
"34 408 CURVE SMOOTH",
"34 174 OFFCURVE",
"174 -20 OFFCURVE",
"442 -20 CURVE SMOOTH"
);
},
{
closed = 1;
nodes = (
"710 812 OFFCURVE",
"776 714 OFFCURVE",
"776 572 CURVE SMOOTH",
"776 356 OFFCURVE",
"656 184 OFFCURVE",
"478 184 CURVE SMOOTH",
"354 184 OFFCURVE",
"290 282 OFFCURVE",
"290 424 CURVE SMOOTH",
"290 640 OFFCURVE",
"410 812 OFFCURVE",
"588 812 CURVE SMOOTH"
);
}
);
};
layerId = "75B1889C-510B-44D9-A792-2B1010C2865B";
name = "Bold Sep 23 16, 10:41";
paths = (
{
closed = 1;
nodes = (
"790 -20 OFFCURVE",
"1032 272 OFFCURVE",
"1032 586 CURVE SMOOTH",
"1032 822 OFFCURVE",
"896 1016 OFFCURVE",
"618 1016 CURVE SMOOTH",
"276 1016 OFFCURVE",
"34 724 OFFCURVE",
"34 410 CURVE SMOOTH",
"34 174 OFFCURVE",
"170 -20 OFFCURVE",
"448 -20 CURVE SMOOTH"
);
},
{
closed = 1;
nodes = (
"354 184 OFFCURVE",
"290 278 OFFCURVE",
"290 430 CURVE SMOOTH",
"290 638 OFFCURVE",
"412 812 OFFCURVE",
"584 812 CURVE SMOOTH",
"710 812 OFFCURVE",
"776 720 OFFCURVE",
"776 568 CURVE SMOOTH",
"776 362 OFFCURVE",
"656 184 OFFCURVE",
"482 184 CURVE SMOOTH"
);
}
);
width = 1098;
},
{
anchors = (
{
name = bottom;
position = "{410, 0}";
},
{
name = center;
position = "{514, 490}";
},
{
name = ogonek;
position = "{926, 20}";
},
{
name = top;
position = "{586, 980}";
},
{
name = topright;
position = "{862, 980}";
}
);
associatedMasterId = UUID0;
background = {
paths = (
{
closed = 1;
nodes = (
"730 -20 OFFCURVE",
"950 264 OFFCURVE",
"950 588 CURVE SMOOTH",
"950 820 OFFCURVE",
"824 1000 OFFCURVE",
"586 1000 CURVE SMOOTH",
"260 1000 OFFCURVE",
"42 716 OFFCURVE",
"42 392 CURVE SMOOTH",
"42 160 OFFCURVE",
"166 -20 OFFCURVE",
"406 -20 CURVE SMOOTH"
);
},
{
closed = 1;
nodes = (
"692 840 OFFCURVE",
"764 742 OFFCURVE",
"764 580 CURVE SMOOTH",
"764 324 OFFCURVE",
"638 140 OFFCURVE",
"434 140 CURVE SMOOTH",
"298 140 OFFCURVE",
"228 238 OFFCURVE",
"228 400 CURVE SMOOTH",
"228 656 OFFCURVE",
"354 840 OFFCURVE",
"558 840 CURVE SMOOTH"
);
}
);
};
layerId = "8A00790C-895C-4E75-BDA1-EC65013065E2";
name = "Regular Sep 23 16, 10:41";
paths = (
{
closed = 1;
nodes = (
"726 -20 OFFCURVE",
"950 264 OFFCURVE",
"950 584 CURVE SMOOTH",
"950 818 OFFCURVE",
"830 1000 OFFCURVE",
"580 1000 CURVE SMOOTH",
"266 1000 OFFCURVE",
"42 716 OFFCURVE",
"42 394 CURVE SMOOTH",
"42 160 OFFCURVE",
"162 -20 OFFCURVE",
"412 -20 CURVE SMOOTH"
);
},
{
closed = 1;
nodes = (
"298 140 OFFCURVE",
"228 232 OFFCURVE",
"228 410 CURVE SMOOTH",
"228 648 OFFCURVE",
"354 840 OFFCURVE",
"554 840 CURVE SMOOTH",
"692 840 OFFCURVE",
"764 750 OFFCURVE",
"764 570 CURVE SMOOTH",
"764 332 OFFCURVE",
"638 140 OFFCURVE",
"438 140 CURVE SMOOTH"
);
}
);
width = 1028;
}
);
leftKerningGroup = o;
rightKerningGroup = o;
unicode = 006F;
},
{
glyphname = oslash;
layers = (
{
background = {
paths = (
{
closed = 1;
nodes = (
"754 -16 OFFCURVE",
"978 272 OFFCURVE",
"978 590 CURVE SMOOTH",
"978 720 OFFCURVE",
"936 848 OFFCURVE",
"852 936 CURVE",
"938 1068 LINE",
"786 1068 LINE",
"738 988 LINE",
"686 1006 OFFCURVE",
"646 1012 OFFCURVE",
"602 1012 CURVE SMOOTH",
"272 1012 OFFCURVE",
"46 720 OFFCURVE",
"46 404 CURVE SMOOTH",
"46 274 OFFCURVE",
"86 146 OFFCURVE",
"168 62 CURVE",
"86 -70 LINE",
"234 -70 LINE",
"280 6 LINE",
"334 -10 OFFCURVE",
"378 -16 OFFCURVE",
"422 -16 CURVE SMOOTH"
);
},
{
closed = 1;
nodes = (
"756 796 LINE",
"780 768 OFFCURVE",
"788 680 OFFCURVE",
"788 620 CURVE SMOOTH",
"788 346 OFFCURVE",
"650 124 OFFCURVE",
"448 124 CURVE SMOOTH",
"430 124 OFFCURVE",
"414 126 OFFCURVE",
"368 136 CURVE"
);
},
{
closed = 1;
nodes = (
"594 872 OFFCURVE",
"606 870 OFFCURVE",
"650 858 CURVE",
"266 200 LINE",
"246 278 OFFCURVE",
"238 356 OFFCURVE",
"238 412 CURVE SMOOTH",
"238 650 OFFCURVE",
"374 872 OFFCURVE",
"576 872 CURVE SMOOTH"
);
}
);
};
components = (
{
name = o;
}
);
layerId = UUID0;
paths = (
{
closed = 1;
nodes = (
"-20 -80 LINE",
"140 -80 LINE",
"1012 1060 LINE",
"852 1060 LINE"
);
}
);
width = 1028;
},
{
background = {
paths = (
{
closed = 1;
nodes = (
"788 -20 OFFCURVE",
"1026 272 OFFCURVE",
"1026 586 CURVE SMOOTH",
"1026 716 OFFCURVE",
"984 842 OFFCURVE",
"906 918 CURVE",
"1004 1068 LINE",
"784 1068 LINE",
"742 1000 LINE",
"708 1010 OFFCURVE",
"668 1016 OFFCURVE",
"622 1016 CURVE SMOOTH",
"272 1016 OFFCURVE",
"34 724 OFFCURVE",
"34 406 CURVE SMOOTH",
"34 278 OFFCURVE",
"74 150 OFFCURVE",
"152 78 CURVE",
"56 -72 LINE",
"270 -72 LINE",
"312 -4 LINE",
"348 -14 OFFCURVE",
"390 -20 OFFCURVE",
"438 -20 CURVE SMOOTH"
);
},
{
closed = 1;
nodes = (
"758 698 LINE",
"766 666 OFFCURVE",
"770 618 OFFCURVE",
"770 574 CURVE SMOOTH",
"770 356 OFFCURVE",
"652 184 OFFCURVE",
"474 184 CURVE SMOOTH",
"460 184 OFFCURVE",
"444 186 OFFCURVE",
"440 188 CURVE"
);
},
{
closed = 1;
nodes = (
"598 812 OFFCURVE",
"610 810 OFFCURVE",
"614 808 CURVE",
"298 298 LINE",
"292 328 OFFCURVE",
"288 376 OFFCURVE",
"288 416 CURVE SMOOTH",
"288 640 OFFCURVE",
"408 812 OFFCURVE",
"586 812 CURVE SMOOTH"
);
}
);
};
components = (
{
name = o;
}
);
layerId = "D879A026-05F7-4E99-AC55-D533E46CE7AB";
paths = (
{
closed = 1;
nodes = (
"30 -80 LINE",
"204 -80 LINE",
"1046 1060 LINE",
"872 1060 LINE"
);
}
);
width = 1098;
},
{
associatedMasterId = UUID0;
background = {
paths = (
{
closed = 1;
nodes = (
"754 -16 OFFCURVE",
"978 272 OFFCURVE",
"978 590 CURVE SMOOTH",
"978 720 OFFCURVE",
"936 848 OFFCURVE",
"852 936 CURVE",
"938 1068 LINE",
"786 1068 LINE",
"738 988 LINE",
"686 1006 OFFCURVE",
"646 1012 OFFCURVE",
"602 1012 CURVE SMOOTH",
"272 1012 OFFCURVE",
"46 720 OFFCURVE",
"46 404 CURVE SMOOTH",
"46 274 OFFCURVE",
"86 146 OFFCURVE",
"168 62 CURVE",
"86 -70 LINE",
"234 -70 LINE",
"280 6 LINE",
"334 -10 OFFCURVE",
"378 -16 OFFCURVE",
"422 -16 CURVE SMOOTH"
);
},
{
closed = 1;
nodes = (
"756 796 LINE",
"780 768 OFFCURVE",
"788 680 OFFCURVE",
"788 620 CURVE SMOOTH",
"788 346 OFFCURVE",
"650 124 OFFCURVE",
"448 124 CURVE SMOOTH",
"430 124 OFFCURVE",
"414 126 OFFCURVE",
"368 136 CURVE"
);
},
{
closed = 1;
nodes = (
"594 872 OFFCURVE",
"606 870 OFFCURVE",
"650 858 CURVE",
"266 200 LINE",
"246 278 OFFCURVE",
"238 356 OFFCURVE",
"238 412 CURVE SMOOTH",
"238 650 OFFCURVE",
"374 872 OFFCURVE",
"576 872 CURVE SMOOTH"
);
}
);
};
layerId = "2326CCA5-8272-43D2-92A1-D5204AD0BA5E";
name = "Regular Sep 25 16, 02:40";
paths = (
{
closed = 1;
nodes = (
"234 -70 LINE",
"280 6 LINE",
"334 -10 OFFCURVE",
"378 -16 OFFCURVE",
"422 -16 CURVE",
"754 -16 OFFCURVE",
"978 272 OFFCURVE",
"978 590 CURVE SMOOTH",
"978 720 OFFCURVE",
"936 848 OFFCURVE",
"852 936 CURVE",
"938 1068 LINE",
"786 1068 LINE",
"738 988 LINE",
"686 1006 OFFCURVE",
"646 1012 OFFCURVE",
"602 1012 CURVE SMOOTH",
"272 1012 OFFCURVE",
"46 720 OFFCURVE",
"46 404 CURVE SMOOTH",
"46 274 OFFCURVE",
"86 146 OFFCURVE",
"168 62 CURVE",
"86 -70 LINE"
);
},
{
closed = 1;
nodes = (
"246 278 OFFCURVE",
"238 356 OFFCURVE",
"238 412 CURVE SMOOTH",
"238 650 OFFCURVE",
"374 872 OFFCURVE",
"576 872 CURVE",
"594 872 OFFCURVE",
"606 870 OFFCURVE",
"650 858 CURVE",
"266 200 LINE"
);
},
{
closed = 1;
nodes = (
"430 124 OFFCURVE",
"414 126 OFFCURVE",
"368 136 CURVE",
"756 796 LINE",
"780 768 OFFCURVE",
"788 680 OFFCURVE",
"788 620 CURVE SMOOTH",
"788 346 OFFCURVE",
"650 124 OFFCURVE",
"448 124 CURVE SMOOTH"
);
}
);
width = 1054;
},
{
associatedMasterId = "D879A026-05F7-4E99-AC55-D533E46CE7AB";
background = {
paths = (
{
closed = 1;
nodes = (
"788 -20 OFFCURVE",
"1026 272 OFFCURVE",
"1026 586 CURVE SMOOTH",
"1026 716 OFFCURVE",
"984 842 OFFCURVE",
"906 918 CURVE",
"1004 1068 LINE",
"784 1068 LINE",
"742 1000 LINE",
"708 1010 OFFCURVE",
"668 1016 OFFCURVE",
"622 1016 CURVE SMOOTH",
"272 1016 OFFCURVE",
"34 724 OFFCURVE",
"34 406 CURVE SMOOTH",
"34 278 OFFCURVE",
"74 150 OFFCURVE",
"152 78 CURVE",
"56 -72 LINE",
"270 -72 LINE",
"312 -4 LINE",
"348 -14 OFFCURVE",
"390 -20 OFFCURVE",
"438 -20 CURVE SMOOTH"
);
},
{
closed = 1;
nodes = (
"758 698 LINE",
"766 666 OFFCURVE",
"770 618 OFFCURVE",
"770 574 CURVE SMOOTH",
"770 356 OFFCURVE",
"652 184 OFFCURVE",
"474 184 CURVE SMOOTH",
"460 184 OFFCURVE",
"444 186 OFFCURVE",
"440 188 CURVE"
);
},
{
closed = 1;
nodes = (
"598 812 OFFCURVE",
"610 810 OFFCURVE",
"614 808 CURVE",
"298 298 LINE",
"292 328 OFFCURVE",
"288 376 OFFCURVE",
"288 416 CURVE SMOOTH",
"288 640 OFFCURVE",
"408 812 OFFCURVE",
"586 812 CURVE SMOOTH"
);
}
);
};
layerId = "FDDA39BA-9DE7-4ED3-9AA3-04D63F18C9C5";
name = "Bold Sep 25 16, 02:40";
paths = (
{
closed = 1;
nodes = (
"270 -72 LINE",
"312 -4 LINE",
"348 -14 OFFCURVE",
"390 -20 OFFCURVE",
"438 -20 CURVE",
"788 -20 OFFCURVE",
"1026 272 OFFCURVE",
"1026 586 CURVE SMOOTH",
"1026 716 OFFCURVE",
"984 842 OFFCURVE",
"906 918 CURVE",
"1004 1068 LINE",
"784 1068 LINE",
"742 1000 LINE",
"708 1010 OFFCURVE",
"668 1016 OFFCURVE",
"622 1016 CURVE SMOOTH",
"272 1016 OFFCURVE",
"34 724 OFFCURVE",
"34 406 CURVE SMOOTH",
"34 278 OFFCURVE",
"74 150 OFFCURVE",
"152 78 CURVE",
"56 -72 LINE"
);
},
{
closed = 1;
nodes = (
"292 328 OFFCURVE",
"288 376 OFFCURVE",
"288 416 CURVE SMOOTH",
"288 640 OFFCURVE",
"408 812 OFFCURVE",
"586 812 CURVE",
"598 812 OFFCURVE",
"610 810 OFFCURVE",
"614 808 CURVE",
"298 298 LINE"
);
},
{
closed = 1;
nodes = (
"460 184 OFFCURVE",
"444 186 OFFCURVE",
"440 188 CURVE",
"758 698 LINE",
"766 666 OFFCURVE",
"770 618 OFFCURVE",
"770 574 CURVE SMOOTH",
"770 356 OFFCURVE",
"652 184 OFFCURVE",
"474 184 CURVE SMOOTH"
);
}
);
visible = 1;
width = 1090;
}
);
leftKerningGroup = o;
rightKerningGroup = o;
unicode = 00F8;
},
{
glyphname = oe;
layers = (
{
background = {
paths = (
{
closed = 1;
nodes = (
"1556 490 LINE",
"1568 524 OFFCURVE",
"1592 554 OFFCURVE",
"1592 670 CURVE SMOOTH",
"1592 878 OFFCURVE",
"1464 1000 OFFCURVE",
"1268 1000 CURVE SMOOTH",
"1142 1000 OFFCURVE",
"996 936 OFFCURVE",
"902 796 CURVE",
"864 936 OFFCURVE",
"730 1000 OFFCURVE",
"594 1000 CURVE SMOOTH",
"262 1000 OFFCURVE",
"44 726 OFFCURVE",
"44 400 CURVE SMOOTH",
"44 164 OFFCURVE",
"170 -20 OFFCURVE",
"410 -20 CURVE SMOOTH",
"562 -20 OFFCURVE",
"714 54 OFFCURVE",
"800 194 CURVE",
"838 54 OFFCURVE",
"940 -20 OFFCURVE",
"1150 -20 CURVE SMOOTH",
"1270 -20 OFFCURVE",
"1372 10 OFFCURVE",
"1444 44 CURVE",
"1456 198 LINE",
"1374 156 OFFCURVE",
"1260 124 OFFCURVE",
"1164 124 CURVE SMOOTH",
"1056 124 OFFCURVE",
"902 176 OFFCURVE",
"950 490 CURVE"
);
},
{
closed = 1;
nodes = (
"1364 840 OFFCURVE",
"1420 758 OFFCURVE",
"1402 614 CURVE",
"976 614 LINE",
"1032 776 OFFCURVE",
"1118 840 OFFCURVE",
"1240 840 CURVE SMOOTH"
);
},
{
closed = 1;
nodes = (
"704 840 OFFCURVE",
"772 730 OFFCURVE",
"772 576 CURVE SMOOTH",
"772 354 OFFCURVE",
"654 140 OFFCURVE",
"442 140 CURVE SMOOTH",
"300 140 OFFCURVE",
"228 238 OFFCURVE",
"228 400 CURVE SMOOTH",
"228 656 OFFCURVE",
"350 840 OFFCURVE",
"566 840 CURVE SMOOTH"
);
}
);
};
layerId = UUID0;
paths = (
{
closed = 1;
nodes = (
"562 -20 OFFCURVE",
"714 54 OFFCURVE",
"800 194 CURVE",
"838 54 OFFCURVE",
"940 -20 OFFCURVE",
"1150 -20 CURVE SMOOTH",
"1270 -20 OFFCURVE",
"1372 10 OFFCURVE",
"1444 44 CURVE",
"1456 198 LINE",
"1374 156 OFFCURVE",
"1260 124 OFFCURVE",
"1164 124 CURVE SMOOTH",
"1070 124 OFFCURVE",
"940 164 OFFCURVE",
"940 382 CURVE SMOOTH",
"940 414 OFFCURVE",
"944 450 OFFCURVE",
"950 490 CURVE",
"1556 490 LINE",
"1568 524 OFFCURVE",
"1592 554 OFFCURVE",
"1592 670 CURVE SMOOTH",
"1592 878 OFFCURVE",
"1464 1000 OFFCURVE",
"1268 1000 CURVE SMOOTH",
"1142 1000 OFFCURVE",
"996 936 OFFCURVE",
"902 796 CURVE",
"862 936 OFFCURVE",
"724 1000 OFFCURVE",
"582 1000 CURVE SMOOTH",
"258 1000 OFFCURVE",
"44 726 OFFCURVE",
"44 400 CURVE SMOOTH",
"44 164 OFFCURVE",
"170 -20 OFFCURVE",
"410 -20 CURVE SMOOTH"
);
},
{
closed = 1;
nodes = (
"300 140 OFFCURVE",
"228 238 OFFCURVE",
"228 400 CURVE SMOOTH",
"228 656 OFFCURVE",
"350 840 OFFCURVE",
"566 840 CURVE SMOOTH",
"704 840 OFFCURVE",
"772 730 OFFCURVE",
"772 576 CURVE SMOOTH",
"772 354 OFFCURVE",
"654 140 OFFCURVE",
"442 140 CURVE SMOOTH"
);
},
{
closed = 1;
nodes = (
"1026 760 OFFCURVE",
"1118 840 OFFCURVE",
"1240 840 CURVE SMOOTH",
"1352 840 OFFCURVE",
"1406 772 OFFCURVE",
"1406 664 CURVE SMOOTH",
"1406 648 OFFCURVE",
"1404 632 OFFCURVE",
"1402 614 CURVE",
"976 614 LINE"
);
}
);
width = 1644;
},
{
background = {
paths = (
{
closed = 1;
nodes = (
"1630 446 LINE",
"1660 520 OFFCURVE",
"1680 574 OFFCURVE",
"1680 658 CURVE SMOOTH",
"1680 876 OFFCURVE",
"1536 1016 OFFCURVE",
"1324 1016 CURVE SMOOTH",
"1170 1016 OFFCURVE",
"1050 954 OFFCURVE",
"954 858 CURVE",
"884 954 OFFCURVE",
"780 1016 OFFCURVE",
"622 1016 CURVE SMOOTH",
"272 1016 OFFCURVE",
"34 724 OFFCURVE",
"34 408 CURVE SMOOTH",
"34 174 OFFCURVE",
"172 -20 OFFCURVE",
"440 -20 CURVE SMOOTH",
"596 -20 OFFCURVE",
"726 42 OFFCURVE",
"832 142 CURVE",
"904 42 OFFCURVE",
"1028 -20 OFFCURVE",
"1198 -20 CURVE SMOOTH",
"1338 -20 OFFCURVE",
"1456 16 OFFCURVE",
"1538 56 CURVE",
"1564 266 LINE",
"1478 222 OFFCURVE",
"1342 184 OFFCURVE",
"1254 184 CURVE SMOOTH",
"1124 184 OFFCURVE",
"1016 260 OFFCURVE",
"1016 446 CURVE"
);
},
{
closed = 1;
nodes = (
"1424 812 OFFCURVE",
"1442 704 OFFCURVE",
"1424 614 CURVE",
"1052 614 LINE",
"1094 728 OFFCURVE",
"1176 812 OFFCURVE",
"1296 812 CURVE SMOOTH"
);
},
{
closed = 1;
nodes = (
"708 812 OFFCURVE",
"774 714 OFFCURVE",
"774 572 CURVE SMOOTH",
"774 354 OFFCURVE",
"650 184 OFFCURVE",
"476 184 CURVE SMOOTH",
"354 184 OFFCURVE",
"290 282 OFFCURVE",
"290 424 CURVE SMOOTH",
"290 640 OFFCURVE",
"410 812 OFFCURVE",
"586 812 CURVE SMOOTH"
);
}
);
};
layerId = "D879A026-05F7-4E99-AC55-D533E46CE7AB";
paths = (
{
closed = 1;
nodes = (
"596 -20 OFFCURVE",
"726 42 OFFCURVE",
"832 142 CURVE",
"904 42 OFFCURVE",
"1028 -20 OFFCURVE",
"1198 -20 CURVE SMOOTH",
"1338 -20 OFFCURVE",
"1456 16 OFFCURVE",
"1538 56 CURVE",
"1564 266 LINE",
"1478 222 OFFCURVE",
"1342 184 OFFCURVE",
"1254 184 CURVE SMOOTH",
"1140 184 OFFCURVE",
"1046 242 OFFCURVE",
"1022 380 CURVE SMOOTH",
"1018 400 OFFCURVE",
"1016 422 OFFCURVE",
"1016 446 CURVE",
"1630 446 LINE",
"1660 520 OFFCURVE",
"1680 574 OFFCURVE",
"1680 658 CURVE SMOOTH",
"1680 876 OFFCURVE",
"1536 1016 OFFCURVE",
"1324 1016 CURVE SMOOTH",
"1170 1016 OFFCURVE",
"1050 954 OFFCURVE",
"954 858 CURVE",
"884 954 OFFCURVE",
"780 1016 OFFCURVE",
"622 1016 CURVE SMOOTH",
"272 1016 OFFCURVE",
"34 724 OFFCURVE",
"34 408 CURVE SMOOTH",
"34 174 OFFCURVE",
"172 -20 OFFCURVE",
"440 -20 CURVE SMOOTH"
);
},
{
closed = 1;
nodes = (
"354 184 OFFCURVE",
"290 282 OFFCURVE",
"290 424 CURVE SMOOTH",
"290 640 OFFCURVE",
"410 812 OFFCURVE",
"586 812 CURVE SMOOTH",
"708 812 OFFCURVE",
"774 714 OFFCURVE",
"774 572 CURVE SMOOTH",
"774 354 OFFCURVE",
"650 184 OFFCURVE",
"476 184 CURVE SMOOTH"
);
},
{
closed = 1;
nodes = (
"1094 728 OFFCURVE",
"1176 812 OFFCURVE",
"1296 812 CURVE SMOOTH",
"1404 812 OFFCURVE",
"1430 736 OFFCURVE",
"1430 672 CURVE SMOOTH",
"1430 660 OFFCURVE",
"1426 624 OFFCURVE",
"1424 614 CURVE",
"1052 614 LINE"
);
}
);
width = 1728;
}
);
leftKerningGroup = o;
rightKerningGroup = e;
unicode = 0153;
},
